<svg width="20" height="20" viewBox="0 0 20 20" fill="none" xmlns="http://www.w3.org/2000/svg">
<path d="M13.4986 10.2827C12.5307 11.1314 11.2873 11.5994 9.99998 11.5994C8.71266 11.5994 7.46923 11.1314 6.50132 10.2827C5.15336 10.9382 4.01667 11.9593 3.22081 13.2294C2.42496 14.4996 2.00195 15.9678 2 17.4667C2 17.6081 2.05619 17.7438 2.15621 17.8438C2.25623 17.9438 2.39188 18 2.53333 18H17.4666C17.6081 18 17.7437 17.9438 17.8437 17.8438C17.9438 17.7438 18 17.6081 18 17.4667C17.998 15.9678 17.575 14.4996 16.7791 13.2294C15.9833 11.9593 14.8466 10.9382 13.4986 10.2827Z" fill="white"/>
<path d="M9.99999 10.5333C12.3564 10.5333 14.2666 8.62306 14.2666 6.26666C14.2666 3.91025 12.3564 2 9.99999 2C7.64358 2 5.73334 3.91025 5.73334 6.26666C5.73334 8.62306 7.64358 10.5333 9.99999 10.5333Z" fill="white"/>
</svg>
