<svg width="44" height="40" viewBox="0 0 44 40" fill="none" xmlns="http://www.w3.org/2000/svg">
<path d="M44.0001 8.35452C43.8554 9.16424 43.7106 9.97481 43.5676 10.7845C43.5254 11.0223 43.4901 11.26 43.441 11.5606C33.0724 9.36666 22.7262 7.17872 12.3326 4.97958C12.4756 4.04583 12.6126 3.14653 12.7504 2.24637C12.7762 2.07668 12.7926 1.90526 12.8296 1.73815C13.1044 0.506357 14.2061 -0.208601 15.4483 0.0541247C23.2034 1.69508 30.9586 3.34121 38.7137 4.98389C39.7198 5.19665 40.7216 5.43698 41.7355 5.60495C42.8432 5.78843 43.6615 6.28459 44.0001 7.40871V8.35452Z" fill="#0062F8"/>
<path d="M11.1835 9.62402C12.9468 9.99787 14.6653 10.3605 16.3829 10.7249C18.5769 11.19 20.7691 11.6612 22.9648 12.116C23.1509 12.1548 23.3653 12.1264 23.5523 12.0756C25.0959 11.6569 26.6335 11.2185 28.1771 10.799C29.5415 10.4277 30.6295 11.0436 31.0266 12.396C31.1351 12.7655 31.2678 13.1316 31.3367 13.5089C31.3944 13.8294 31.5598 13.9465 31.8596 14.0094C35.1733 14.6994 38.4854 15.3997 41.7975 16.0983C41.9491 16.1301 42.0981 16.1749 42.279 16.2214C41.9904 17.5781 41.7053 18.9159 41.421 20.2536C41.0791 21.8601 40.7492 23.4684 40.3934 25.0714C40.0919 26.4298 39.0333 27.0897 37.6671 26.8002C36.7609 26.6081 35.8556 26.4135 34.8719 26.2033C35.0416 26.8287 35.1966 27.3955 35.3508 27.9631C35.455 28.349 35.5765 28.7306 35.66 29.1208C35.9228 30.3518 35.3232 31.3742 34.1026 31.7317C32.5952 32.1728 31.0791 32.5845 29.5657 33.004C22.2593 35.0309 14.953 37.0551 7.64662 39.082C6.1297 39.5024 5.06502 38.9011 4.64207 37.3756C3.13549 31.9419 1.62891 26.5074 0.124055 21.0737C-0.281662 19.6102 0.317007 18.5412 1.79172 18.1277C4.33541 17.4145 6.87997 16.7073 9.42884 16.0138C9.73033 15.932 9.86557 15.8002 9.92845 15.4893C10.2997 13.6562 10.6934 11.8275 11.0819 9.99701C11.1051 9.88761 11.1413 9.7808 11.1852 9.62488H11.1835V9.62402ZM3.71004 27.3782C3.75397 27.5522 3.7824 27.6771 3.81685 27.7995C4.65585 30.8255 5.49657 33.8507 6.33643 36.8768C6.50613 37.4876 6.60864 37.5479 7.21161 37.3799C15.9462 34.9551 24.6816 32.5302 33.4161 30.1054C33.9717 29.9512 34.0406 29.8332 33.8873 29.281C33.2275 26.9019 32.5659 24.5227 31.9061 22.1427C31.6864 21.3519 31.4685 20.5603 31.2419 19.7394C22.044 22.2917 12.8985 24.8285 3.7109 27.3774H3.71004V27.3782ZM2.66172 23.6441C11.87 21.0892 21.0258 18.5481 30.2022 16.0018C29.9171 14.969 29.6518 14.0059 29.3865 13.0438C29.2194 12.4382 29.1117 12.3736 28.507 12.5407C23.5798 13.9043 18.6527 15.267 13.7263 16.6323C9.92845 17.685 6.13142 18.7402 2.33267 19.7919C1.9795 19.8893 1.64786 19.9935 1.78052 20.4733C2.06908 21.5182 2.36024 22.5622 2.66086 23.6449L2.66172 23.6441ZM34.0587 20.8945C34.0716 21.3416 34.2448 21.6844 34.6772 21.7852C35.7729 22.0402 36.8746 22.2753 37.9815 22.4778C38.4079 22.5561 38.7636 22.3322 38.8644 21.9015C39.1203 20.8058 39.3571 19.7049 39.5553 18.598C39.6371 18.1424 39.3968 17.8452 38.9402 17.6979C38.6706 17.6109 38.3872 17.5644 38.109 17.5041C37.3983 17.3499 36.6885 17.1914 35.9753 17.0475C35.3474 16.9209 34.9304 17.082 34.7969 17.6023C34.517 18.6911 34.3008 19.7962 34.0587 20.8954V20.8945Z" fill="#0062F8"/>
</svg>
