<svg width="20" height="20" viewBox="0 0 20 20" fill="none" xmlns="http://www.w3.org/2000/svg">
<path d="M12.7273 16.4998V15.0554C12.7273 14.2892 12.4399 13.5544 11.9285 13.0126C11.417 12.4709 10.7233 12.1665 9.99998 12.1665H5.22727C4.50395 12.1665 3.81026 12.4709 3.2988 13.0126C2.78734 13.5544 2.5 14.2892 2.5 15.0554V16.4998" stroke="white" stroke-width="2" stroke-linecap="round" stroke-linejoin="round"/>
<path d="M7.61362 9.27778C9.11985 9.27778 10.3409 7.98438 10.3409 6.38889C10.3409 4.7934 9.11985 3.5 7.61362 3.5C6.10739 3.5 4.88635 4.7934 4.88635 6.38889C4.88635 7.98438 6.10739 9.27778 7.61362 9.27778Z" stroke="white" stroke-width="2" stroke-linecap="round" stroke-linejoin="round"/>
<path d="M13.4091 9.27794L14.7728 10.7224L17.5 7.8335" stroke="white" stroke-width="2" stroke-linecap="round" stroke-linejoin="round"/>
</svg>
