<svg width="16" height="16" viewBox="0 0 16 16" fill="none" xmlns="http://www.w3.org/2000/svg">
<path d="M11.7198 12.1435C11.3232 11.7446 10.939 11.3584 10.5459 10.9633C10.4899 11.0134 10.4278 11.069 10.3367 11.1502C10.2069 11.0027 10.0785 10.8573 9.94698 10.7081C9.53173 10.9796 9.10544 11.1671 8.636 11.2514C8.60321 11.2572 8.56283 11.3308 8.56006 11.3747C8.55075 11.5284 8.55661 11.6831 8.55661 11.8506C8.46445 11.8568 8.38195 11.8624 8.29048 11.8689V13.8159C8.94873 14.1353 9.21521 14.5847 9.0799 15.147C8.95218 15.6775 8.51416 16.0111 7.96015 15.9997C7.45136 15.9894 7.01092 15.6122 6.91806 15.0914C6.84489 14.681 6.98468 14.0877 7.72163 13.8193V11.871C7.63879 11.8651 7.55595 11.8593 7.4555 11.852C7.4555 11.6879 7.46137 11.5284 7.45171 11.3695C7.44894 11.3267 7.40545 11.2562 7.37093 11.2496C6.90874 11.1616 6.48659 10.9792 6.08101 10.7064C5.94985 10.8538 5.8242 10.9951 5.68993 11.146C5.6064 11.0721 5.54392 11.0165 5.48835 10.9675C5.09692 11.3626 4.71032 11.7532 4.3144 12.1532C4.64784 13.027 4.49735 13.6746 3.85083 14.0694C3.2806 14.4175 2.55849 14.3122 2.1108 13.8162C1.66276 13.3195 1.63411 12.5949 2.03279 12.0572C2.37417 11.5968 3.1125 11.2811 3.87845 11.719C4.26815 11.3284 4.65647 10.9391 5.05619 10.5382C5.01028 10.486 4.95574 10.4235 4.87083 10.3264C4.98853 10.2225 5.10244 10.1182 5.22014 10.019C5.28883 9.96102 5.29954 9.91197 5.24534 9.83115C5.00717 9.47437 4.85012 9.0834 4.7621 8.66272C4.75278 8.61851 4.67891 8.56083 4.63058 8.55669C4.47767 8.54287 4.32269 8.5515 4.15735 8.5515C4.15079 8.4579 4.14458 8.37501 4.13802 8.28418H2.18536C2.04418 8.70831 1.76701 8.9974 1.32104 9.08305C0.891296 9.1656 0.521268 9.03159 0.248924 8.68724C-0.0272164 8.33806 -0.0745054 7.94363 0.111544 7.53815C0.294833 7.13888 0.618607 6.91956 1.05767 6.90022C1.56094 6.87812 1.94753 7.14234 2.14843 7.6124C2.1681 7.65869 2.22713 7.71947 2.2682 7.72016C2.8871 7.72707 3.50635 7.725 4.13733 7.725C4.14354 7.63106 4.14872 7.54816 4.15528 7.44904C4.32131 7.44904 4.48112 7.45491 4.6399 7.44524C4.68236 7.44248 4.75174 7.39792 4.75864 7.36304C4.8477 6.89953 5.03927 6.48058 5.31127 6.07268C5.16699 5.94558 5.02512 5.82055 4.87255 5.6862C4.94987 5.59847 5.0051 5.53561 5.05688 5.47655C4.66269 5.08592 4.26919 4.69598 3.8712 4.30155C3.05141 4.76264 2.31515 4.37512 1.99655 3.9085C1.61755 3.35347 1.68485 2.61607 2.16223 2.14186C2.64099 1.66627 3.39175 1.60824 3.94334 2.00613C4.41071 2.34288 4.75554 3.07544 4.30094 3.87466C4.69134 4.26563 5.08035 4.65557 5.47799 5.0538C5.53253 5.00544 5.59432 4.95018 5.68095 4.87316C5.80867 5.02306 5.93397 5.17054 6.05961 5.31802C6.49005 5.02927 6.9153 4.83862 7.38336 4.7471C7.41408 4.74122 7.44825 4.66317 7.45101 4.61689C7.45964 4.46354 7.45412 4.30949 7.45412 4.14406H7.7168C7.72198 4.08948 7.72923 4.04562 7.72957 4.00176C7.73026 3.43844 7.7275 2.87546 7.73233 2.31214C7.73337 2.2099 7.70058 2.16604 7.60496 2.12736C7.10342 1.92427 6.81865 1.41517 6.91427 0.911603C7.01437 0.384892 7.4524 0.00773249 7.97292 0.000134039C8.529 -0.0078098 8.96564 0.33792 9.08749 0.883282C9.20175 1.3948 8.91249 1.92669 8.40059 2.13081C8.31326 2.16569 8.27668 2.20127 8.27771 2.30039C8.28289 2.87511 8.28013 3.44983 8.28047 4.02455C8.28047 4.05805 8.28392 4.09156 8.28668 4.13542H8.55592C8.55592 4.29982 8.56075 4.45283 8.5542 4.60549C8.55005 4.70254 8.57801 4.74571 8.68157 4.76437C9.09233 4.83897 9.47271 4.99681 9.81927 5.22822C9.91281 5.29073 9.967 5.28313 10.0347 5.20266C10.1303 5.08903 10.2328 4.98161 10.337 4.8666C10.4233 4.94466 10.482 4.9975 10.5352 5.04516C10.9224 4.64935 11.3066 4.257 11.7091 3.84564C11.5017 3.49715 11.444 3.08269 11.5955 2.65199C11.7063 2.33735 11.9128 2.09627 12.202 1.92841C12.7702 1.59857 13.4912 1.71635 13.9255 2.20956C14.367 2.71106 14.3894 3.44016 13.9831 3.96929C13.6335 4.42451 12.9086 4.73294 12.1237 4.28083C11.9314 4.47528 11.736 4.67526 11.5379 4.87247C11.3432 5.06623 11.1461 5.25757 10.947 5.45272C11.017 5.53008 11.0702 5.58914 11.1327 5.65822C10.9873 5.79119 10.8451 5.9214 10.7002 6.05438C10.9835 6.483 11.1696 6.90989 11.2569 7.37858C11.2628 7.40932 11.3408 7.44351 11.3871 7.44593C11.5403 7.45456 11.6943 7.44904 11.8593 7.44904V7.71464C11.9197 7.71844 11.9694 7.72431 12.0191 7.72431C12.5703 7.725 13.1216 7.72258 13.6728 7.72673C13.775 7.72742 13.8309 7.7098 13.874 7.59893C14.0711 7.09398 14.602 6.80455 15.106 6.91196C15.6479 7.02732 16.0055 7.47045 16 8.01961C15.9948 8.55047 15.6151 8.99463 15.0835 9.09238C14.6044 9.18045 14.1046 8.91416 13.8965 8.45929C13.8702 8.4023 13.8475 8.34358 13.8219 8.28349H11.8679V8.54563H11.2569C11.172 9.02364 11.0101 9.45399 10.7599 9.85153C10.7388 9.88503 10.7568 9.97 10.7868 10.0045C10.8917 10.1254 11.0101 10.2346 11.1316 10.3568C11.075 10.4193 11.0194 10.4805 10.9715 10.5333C11.3674 10.9277 11.7567 11.3156 12.1533 11.7107C12.9866 11.3678 13.65 11.5142 14.0549 12.1456C14.4122 12.703 14.3221 13.4401 13.8409 13.8939C13.3556 14.3515 12.6273 14.3992 12.0857 14.0086C11.4968 13.5841 11.3643 12.8961 11.7201 12.1432L11.7198 12.1435ZM8.01503 5.79257C6.7976 5.79257 5.80038 6.78832 5.80142 8.00373C5.80246 9.20877 6.79656 10.2021 8.00606 10.2069C9.20554 10.2114 10.2138 9.20463 10.2114 8.00442C10.209 6.79246 9.21659 5.79292 8.01503 5.79292V5.79257ZM12.0615 12.883C12.0646 13.3427 12.4229 13.6936 12.8865 13.6905C13.3487 13.6874 13.7332 13.2995 13.7256 12.8443C13.718 12.3953 13.3435 12.0299 12.8937 12.0319C12.4354 12.0344 12.0584 12.4198 12.0615 12.883ZM12.8799 3.93544C13.3442 3.9351 13.7287 3.55379 13.7256 3.09685C13.7229 2.65096 13.3445 2.27449 12.9 2.27518C12.444 2.27587 12.0605 2.66339 12.0612 3.12275C12.0619 3.58453 12.4153 3.93544 12.8799 3.9351V3.93544ZM3.14012 2.3035C2.67793 2.30108 2.31791 2.65476 2.31584 3.11377C2.31342 3.57832 2.66377 3.93372 3.12562 3.93544C3.59299 3.93752 3.94783 3.59006 3.95024 3.12793C3.953 2.66581 3.5992 2.30592 3.14012 2.3035ZM2.31549 12.8716C2.31411 13.334 2.66757 13.6898 3.12976 13.6908C3.59333 13.6919 3.94955 13.3392 3.95024 12.8778C3.95093 12.4164 3.59644 12.0589 3.13597 12.0575C2.67551 12.0561 2.31653 12.4119 2.31549 12.8716Z" fill="white"/>
</svg>
