<svg width="43" height="40" viewBox="0 0 43 40" fill="none" xmlns="http://www.w3.org/2000/svg">
<path d="M43 31.5588V34.5324C42.9703 34.6043 42.9272 34.6743 42.9148 34.7501C42.4666 37.3257 40.9506 38.9573 38.4979 39.7544C38.1857 39.8561 37.8601 39.9194 37.5412 40H5.4588C5.38697 39.9703 5.31802 39.9252 5.24332 39.9137C3.3337 39.6096 1.84067 38.6456 0.875323 36.9765C0.476927 36.2878 0.28539 35.4782 0 34.7242V5.27578C0.0316036 5.18657 0.0746993 5.10024 0.0928953 5.00815C0.443408 3.18177 1.42025 1.7765 3.03011 0.872902C3.72156 0.484412 4.51835 0.284892 5.26726 0H27.6771C27.7977 0.0345324 27.9165 0.0796163 28.0391 0.102638C30.6315 0.580336 32.703 2.79616 32.9434 5.40911C33.0114 6.14676 32.9539 6.89592 32.9539 7.68441C34.377 7.68441 35.6814 7.66906 36.9838 7.68729C39.6491 7.7247 42.0634 9.60192 42.7721 12.1698C42.8602 12.4902 42.9243 12.8173 43 13.1415V18.4173C42.8113 18.4355 42.6227 18.4691 42.4331 18.4691C39.9287 18.4729 37.4234 18.4537 34.9191 18.4758C30.5951 18.5132 27.5277 22.5305 28.629 26.6906C29.3779 29.5194 31.9225 31.4619 34.9708 31.4897C37.4588 31.5127 39.9479 31.4935 42.4369 31.4974C42.6246 31.4974 42.8123 31.5376 42.999 31.5588H43ZM3.08374 7.65659H29.9018C29.9018 7.03118 29.9295 6.42686 29.896 5.82734C29.8357 4.75108 29.3042 3.92134 28.3446 3.47242C27.8159 3.22494 27.1839 3.09257 26.5978 3.09065C19.8652 3.06475 13.1337 3.07434 6.40116 3.07434C6.27379 3.07434 6.14546 3.07434 6.01809 3.08393C4.36704 3.20096 3.22548 4.27626 3.09045 5.88393C3.04256 6.45372 3.08278 7.03022 3.08278 7.65659H3.08374Z" fill="#03C988"/>
<path d="M43 28.4892C40.353 28.4834 37.7059 28.4815 35.0579 28.4691C33.3791 28.4614 32.0575 27.5165 31.6093 26.0259C30.9159 23.718 32.5411 21.5367 35.01 21.5108C37.5144 21.4849 40.0187 21.505 42.5231 21.5031C42.682 21.5031 42.841 21.4916 42.999 21.4858V28.4882L43 28.4892Z" fill="#03C988"/>
</svg>
