<svg width="20" height="20" viewBox="0 0 20 20" fill="none" xmlns="http://www.w3.org/2000/svg">
<path d="M17.2592 5.21777L15.2083 7.26865C15.0186 7.45855 14.7567 7.57577 14.4674 7.57577C14.1778 7.57577 13.9152 7.45855 13.7255 7.26865L13.2312 6.77455C13.0414 6.58465 12.9245 6.32252 12.9245 6.03295C12.9245 5.74337 13.0414 5.4814 13.2312 5.29165L15.282 3.24077C14.0282 2.74952 12.5475 3.00985 11.5343 4.0231C10.1693 5.38787 10.1693 7.6009 11.5343 8.9656C12.8994 10.3307 15.1121 10.3307 16.4768 8.9656C17.4903 7.9525 17.7505 6.47192 17.2592 5.21777Z" fill="white"/>
<path d="M6.25615 11.5417L4.12795 13.515C3.75175 13.864 3.51258 14.3597 3.50208 14.9134C3.49158 15.467 3.71185 15.9712 4.07485 16.3341L4.16628 16.4254C4.52898 16.7883 5.03313 17.0087 5.58678 16.9982C6.14073 16.9879 6.63588 16.7487 6.98508 16.3722L8.95833 14.244L6.25615 11.5417ZM6.16323 15.5725C5.82243 15.9139 5.26908 15.9139 4.92768 15.5725C4.58658 15.2314 4.58658 14.678 4.92768 14.3369C5.26908 13.9954 5.82243 13.9954 6.16323 14.3369C6.50433 14.678 6.50433 15.2314 6.16323 15.5725Z" fill="white"/>
<path d="M9.5842 8.18018C9.44905 8.18018 9.32673 8.2347 9.2383 8.32328L6.96475 10.5971C6.87603 10.6856 6.8215 10.808 6.8215 10.943C6.8215 11.0782 6.87603 11.2005 6.96475 11.2889L12.0554 16.3799C12.8749 17.1989 14.2022 17.1986 15.021 16.3799C15.8403 15.5609 15.8403 14.2333 15.021 13.4142L9.9301 8.32328C9.84168 8.2347 9.71943 8.18018 9.5842 8.18018ZM13.0688 15.07C13.2046 15.206 13.2046 15.4283 13.0688 15.5642C12.933 15.7002 12.7103 15.7002 12.5745 15.5642L8.1262 11.1159C7.99015 10.9801 7.99015 10.7577 8.1262 10.6216C8.26203 10.4858 8.4844 10.4858 8.62045 10.6216L13.0688 15.07ZM14.2057 13.9332C14.3415 14.0692 14.3415 14.2916 14.2057 14.4275C14.0699 14.5635 13.8472 14.5635 13.7114 14.4275L9.26313 9.97905C9.12678 9.84308 9.12678 9.6207 9.26313 9.4848C9.39865 9.34883 9.62133 9.34883 9.75708 9.48495L14.2057 13.9332Z" fill="white"/>
<path d="M3.9211 6.59631L4.47715 6.57696L7.38497 9.48464L8.1262 8.74319L5.21875 5.83574L5.23795 5.27954C5.23945 5.23236 5.22925 5.18391 5.20555 5.13906C5.18192 5.09414 5.14712 5.05859 5.10692 5.03324L3.2416 3.85889L2.5 4.60004L3.67502 6.46581C3.69992 6.50601 3.73592 6.54014 3.78055 6.56399C3.82547 6.58769 3.87377 6.59796 3.9211 6.59631Z" fill="white"/>
</svg>
