<svg width="20" height="20" viewBox="0 0 20 20" fill="none" xmlns="http://www.w3.org/2000/svg">
<path d="M17 4.64286V5.98214C17 7.16239 13.8646 8.125 10 8.125C6.13541 8.125 3 7.16239 3 5.98214V4.64286C3 3.46261 6.13541 2.5 10 2.5C13.8646 2.5 17 3.46261 17 4.64286ZM17 7.65625V10.6696C17 11.8499 13.8646 12.8125 10 12.8125C6.13541 12.8125 3 11.8499 3 10.6696V7.65625C4.50391 8.62724 7.2565 9.07926 10 9.07926C12.7435 9.07926 15.4961 8.62724 17 7.65625ZM17 12.3438V15.3571C17 16.5374 13.8646 17.5 10 17.5C6.13541 17.5 3 16.5374 3 15.3571V12.3438C4.50391 13.3147 7.2565 13.7668 10 13.7668C12.7435 13.7668 15.4961 13.3147 17 12.3438Z" fill="white"/>
</svg>
