<svg width="120" height="30" viewBox="0 0 120 30" fill="none" xmlns="http://www.w3.org/2000/svg">
<path d="M95.6509 20C94.2311 20 92.8841 19.7559 91.6099 19.2676C90.3539 18.7606 89.3801 18.1127 88.6884 17.3239L89.3164 16.2535C89.9717 16.9484 90.8636 17.5399 91.9922 18.0282C93.139 18.4977 94.3494 18.7324 95.6236 18.7324C96.8978 18.7324 97.9354 18.5634 98.7363 18.2253C99.5555 17.8685 100.156 17.3991 100.538 16.8169C100.939 16.2347 101.139 15.5869 101.139 14.8732C101.139 14.0282 100.921 13.3521 100.484 12.8451C100.047 12.338 99.4735 11.9343 98.7636 11.6338C98.0537 11.3333 97.2801 11.0798 96.4428 10.8732C95.6054 10.6667 94.759 10.4507 93.9035 10.2254C93.0479 9.98122 92.2652 9.67136 91.5553 9.29577C90.8454 8.92019 90.272 8.41315 89.8351 7.77465C89.4165 7.11737 89.2071 6.2723 89.2071 5.23944C89.2071 4.30047 89.4438 3.43662 89.917 2.64789C90.3903 1.85915 91.1275 1.22066 92.1287 0.732395C93.1299 0.244132 94.4132 0 95.9786 0C97.0344 0 98.0719 0.159624 99.0913 0.478874C100.129 0.798123 101.012 1.23005 101.74 1.77465L101.221 2.92958C100.42 2.3662 99.5555 1.95305 98.6271 1.69014C97.717 1.40845 96.8341 1.26761 95.9786 1.26761C94.759 1.26761 93.7488 1.44601 92.9478 1.80282C92.1469 2.15962 91.5553 2.6385 91.173 3.23944C90.7908 3.8216 90.5997 4.47887 90.5997 5.21127C90.5997 6.05634 90.809 6.73239 91.2277 7.23944C91.6645 7.74648 92.2379 8.15023 92.9478 8.4507C93.6577 8.75117 94.4405 9.00469 95.296 9.21127C96.1515 9.41784 96.998 9.64319 97.8353 9.88732C98.6726 10.1127 99.4462 10.4131 100.156 10.7887C100.866 11.1643 101.439 11.6714 101.876 12.3099C102.313 12.9484 102.532 13.7746 102.532 14.7887C102.532 15.7089 102.286 16.5728 101.794 17.3803C101.303 18.169 100.548 18.8075 99.5282 19.2958C98.527 19.7653 97.2346 20 95.6509 20Z" fill="white"/>
<path d="M79.0124 20C77.5926 20 76.2456 19.7559 74.9714 19.2676C73.7154 18.7606 72.7415 18.1127 72.0498 17.3239L72.6778 16.2535C73.3331 16.9484 74.225 17.5399 75.3536 18.0282C76.5004 18.4977 77.7109 18.7324 78.9851 18.7324C80.2593 18.7324 81.2969 18.5634 82.0978 18.2253C82.9169 17.8685 83.5176 17.3991 83.8999 16.8169C84.3003 16.2347 84.5006 15.5869 84.5006 14.8732C84.5006 14.0282 84.2821 13.3521 83.8453 12.8451C83.4084 12.338 82.835 11.9343 82.1251 11.6338C81.4152 11.3333 80.6416 11.0798 79.8042 10.8732C78.9669 10.6667 78.1205 10.4507 77.2649 10.2254C76.4094 9.98122 75.6267 9.67136 74.9168 9.29577C74.2068 8.92019 73.6335 8.41315 73.1966 7.77465C72.7779 7.11737 72.5686 6.2723 72.5686 5.23944C72.5686 4.30047 72.8052 3.43662 73.2785 2.64789C73.7518 1.85915 74.489 1.22066 75.4901 0.732395C76.4913 0.244132 77.7746 0 79.34 0C80.3958 0 81.4334 0.159624 82.4527 0.478874C83.4903 0.798123 84.3731 1.23005 85.1013 1.77465L84.5825 2.92958C83.7815 2.3662 82.9169 1.95305 81.9886 1.69014C81.0784 1.40845 80.1956 1.26761 79.34 1.26761C78.1205 1.26761 77.1102 1.44601 76.3093 1.80282C75.5084 2.15962 74.9168 2.6385 74.5345 3.23944C74.1522 3.8216 73.9611 4.47887 73.9611 5.21127C73.9611 6.05634 74.1704 6.73239 74.5891 7.23944C75.026 7.74648 75.5994 8.15023 76.3093 8.4507C77.0192 8.75117 77.8019 9.00469 78.6574 9.21127C79.513 9.41784 80.3594 9.64319 81.1967 9.88732C82.0341 10.1127 82.8077 10.4131 83.5176 10.7887C84.2275 11.1643 84.8009 11.6714 85.2378 12.3099C85.6746 12.9484 85.8931 13.7746 85.8931 14.7887C85.8931 15.7089 85.6473 16.5728 85.1559 17.3803C84.6644 18.169 83.909 18.8075 82.8896 19.2958C81.8884 19.7653 80.596 20 79.0124 20Z" fill="white"/>
<path d="M56.952 9.21153H67.3003V10.4791H56.952V9.21153ZM57.1158 18.5636H68.9112V19.8594H55.7233V0.141113H68.5017V1.43689H57.1158V18.5636Z" fill="white"/>
<path d="M44.1088 20C42.689 20 41.342 19.7559 40.0678 19.2676C38.8118 18.7606 37.8379 18.1127 37.1462 17.3239L37.7742 16.2535C38.4295 16.9484 39.3215 17.5399 40.4501 18.0282C41.5968 18.4977 42.8073 18.7324 44.0815 18.7324C45.3557 18.7324 46.3933 18.5634 47.1942 18.2253C48.0133 17.8685 48.614 17.3991 48.9963 16.8169C49.3968 16.2347 49.597 15.5869 49.597 14.8732C49.597 14.0282 49.3786 13.3521 48.9417 12.8451C48.5048 12.338 47.9314 11.9343 47.2215 11.6338C46.5116 11.3333 45.738 11.0798 44.9007 10.8732C44.0633 10.6667 43.2169 10.4507 42.3614 10.2254C41.5058 9.98122 40.7231 9.67136 40.0132 9.29577C39.3033 8.92019 38.7299 8.41315 38.293 7.77465C37.8744 7.11737 37.665 6.2723 37.665 5.23944C37.665 4.30047 37.9017 3.43662 38.3749 2.64789C38.8482 1.85915 39.5854 1.22066 40.5866 0.732395C41.5877 0.244132 42.871 0 44.4365 0C45.4923 0 46.5298 0.159624 47.5492 0.478874C48.5867 0.798123 49.4696 1.23005 50.1977 1.77465L49.6789 2.92958C48.878 2.3662 48.0133 1.95305 47.085 1.69014C46.1749 1.40845 45.292 1.26761 44.4365 1.26761C43.2169 1.26761 42.2066 1.44601 41.4057 1.80282C40.6048 2.15962 40.0132 2.6385 39.6309 3.23944C39.2487 3.8216 39.0575 4.47887 39.0575 5.21127C39.0575 6.05634 39.2669 6.73239 39.6855 7.23944C40.1224 7.74648 40.6958 8.15023 41.4057 8.4507C42.1156 8.75117 42.8983 9.00469 43.7539 9.21127C44.6094 9.41784 45.4558 9.64319 46.2932 9.88732C47.1305 10.1127 47.9041 10.4131 48.614 10.7887C49.324 11.1643 49.8973 11.6714 50.3342 12.3099C50.7711 12.9484 50.9895 13.7746 50.9895 14.7887C50.9895 15.7089 50.7438 16.5728 50.2523 17.3803C49.7608 18.169 49.0054 18.8075 47.986 19.2958C46.9849 19.7653 45.6925 20 44.1088 20Z" fill="white"/>
<path d="M27.4703 20C26.0505 20 24.7034 19.7559 23.4292 19.2676C22.1733 18.7606 21.1994 18.1127 20.5077 17.3239L21.1357 16.2535C21.791 16.9484 22.6829 17.5399 23.8115 18.0282C24.9583 18.4977 26.1688 18.7324 27.443 18.7324C28.7172 18.7324 29.7547 18.5634 30.5557 18.2253C31.3748 17.8685 31.9755 17.3991 32.3577 16.8169C32.7582 16.2347 32.9584 15.5869 32.9584 14.8732C32.9584 14.0282 32.74 13.3521 32.3031 12.8451C31.8663 12.338 31.2929 11.9343 30.583 11.6338C29.8731 11.3333 29.0994 11.0798 28.2621 10.8732C27.4248 10.6667 26.5783 10.4507 25.7228 10.2254C24.8673 9.98122 24.0846 9.67136 23.3746 9.29577C22.6647 8.92019 22.0913 8.41315 21.6545 7.77465C21.2358 7.11737 21.0265 6.2723 21.0265 5.23944C21.0265 4.30047 21.2631 3.43662 21.7364 2.64789C22.2097 1.85915 22.9469 1.22066 23.948 0.732395C24.9492 0.244132 26.2325 0 27.7979 0C28.8537 0 29.8913 0.159624 30.9106 0.478874C31.9482 0.798123 32.831 1.23005 33.5591 1.77465L33.0404 2.92958C32.2394 2.3662 31.3748 1.95305 30.4465 1.69014C29.5363 1.40845 28.6535 1.26761 27.7979 1.26761C26.5783 1.26761 25.5681 1.44601 24.7672 1.80282C23.9662 2.15962 23.3746 2.6385 22.9924 3.23944C22.6101 3.8216 22.419 4.47887 22.419 5.21127C22.419 6.05634 22.6283 6.73239 23.047 7.23944C23.4839 7.74648 24.0572 8.15023 24.7672 8.4507C25.4771 8.75117 26.2598 9.00469 27.1153 9.21127C27.9709 9.41784 28.8173 9.64319 29.6546 9.88732C30.492 10.1127 31.2656 10.4131 31.9755 10.7887C32.6854 11.1643 33.2588 11.6714 33.6957 12.3099C34.1325 12.9484 34.351 13.7746 34.351 14.7887C34.351 15.7089 34.1052 16.5728 33.6137 17.3803C33.1223 18.169 32.3669 18.8075 31.3475 19.2958C30.3463 19.7653 29.0539 20 27.4703 20Z" fill="white"/>
<path d="M0 19.8594L8.79198 0.141113H10.1845L18.9765 19.8594H17.4747L9.17424 1.04252H9.77493L1.50174 19.8594H0ZM3.22191 14.3101L3.68608 13.0989H15.1266L15.5907 14.3101H3.22191Z" fill="white"/>
<path d="M118.708 28.8933C118.412 28.8933 118.15 28.8286 117.922 28.6993C117.697 28.57 117.519 28.3913 117.388 28.1631C117.261 27.935 117.197 27.6745 117.197 27.3817C117.197 27.0851 117.257 26.8246 117.377 26.6002C117.501 26.3721 117.669 26.1933 117.882 26.0641C118.096 25.9348 118.336 25.8701 118.601 25.8701C118.867 25.8701 119.105 25.9329 119.315 26.0584C119.528 26.1838 119.695 26.3607 119.815 26.5888C119.938 26.8132 120 27.0737 120 27.3703C120 27.3817 119.998 27.395 119.994 27.4102C119.994 27.4216 119.994 27.4349 119.994 27.4501H117.405V27.2277H119.843L119.73 27.3361C119.734 27.1041 119.685 26.8968 119.584 26.7143C119.487 26.528 119.354 26.3835 119.186 26.2808C119.017 26.1743 118.822 26.1211 118.601 26.1211C118.384 26.1211 118.19 26.1743 118.017 26.2808C117.849 26.3835 117.716 26.528 117.619 26.7143C117.521 26.8968 117.472 27.106 117.472 27.3418V27.3931C117.472 27.6365 117.525 27.8532 117.63 28.0434C117.738 28.2297 117.886 28.3761 118.073 28.4826C118.261 28.5852 118.474 28.6366 118.714 28.6366C118.901 28.6366 119.075 28.6024 119.236 28.5339C119.401 28.4655 119.539 28.3609 119.652 28.2202L119.815 28.4084C119.687 28.5681 119.526 28.6898 119.332 28.7735C119.141 28.8533 118.933 28.8933 118.708 28.8933Z" fill="white"/>
<path d="M115.78 28.8705V25.4366C115.78 25.1894 115.849 24.9917 115.988 24.8434C116.13 24.6913 116.332 24.6152 116.594 24.6152C116.703 24.6152 116.81 24.6323 116.915 24.6666C117.019 24.697 117.106 24.7445 117.173 24.8092L117.061 25.0259C117.005 24.9689 116.937 24.9271 116.858 24.9004C116.78 24.8738 116.696 24.8605 116.606 24.8605C116.426 24.8605 116.289 24.9118 116.196 25.0145C116.102 25.1134 116.055 25.2617 116.055 25.4594V25.9614L116.061 26.0983V28.8705H115.78ZM115.241 26.1382V25.8929H116.993V26.1382H115.241Z" fill="white"/>
<path d="M114.259 28.8705V25.893H114.54V28.8705H114.259ZM114.4 25.1686C114.336 25.1686 114.282 25.1458 114.237 25.1001C114.192 25.0545 114.17 25.0013 114.17 24.9404C114.17 24.8758 114.192 24.8206 114.237 24.775C114.282 24.7294 114.336 24.7065 114.4 24.7065C114.467 24.7065 114.522 24.7294 114.563 24.775C114.608 24.8168 114.63 24.8701 114.63 24.9347C114.63 24.9994 114.608 25.0545 114.563 25.1001C114.522 25.1458 114.467 25.1686 114.4 25.1686Z" fill="white"/>
<path d="M111.064 28.8703V24.8774H111.35V28.6079H113.614V28.8703H111.064Z" fill="white"/>
<path d="M105.004 28.8703L106.813 24.8774H107.099L108.908 28.8703H108.599L106.891 25.06H107.015L105.313 28.8703H105.004ZM105.667 27.7466L105.762 27.5013H108.116L108.211 27.7466H105.667Z" fill="white"/>
<path d="M102.157 26.7141H104.285V26.9708H102.157V26.7141ZM102.19 28.6079H104.617V28.8703H101.904V24.8774H104.533V25.1398H102.19V28.6079Z" fill="white"/>
<path d="M97.3296 28.8703V24.8774H97.5711L100.374 28.5109H100.245V24.8774H100.531V28.8703H100.295L97.4869 25.2368H97.616V28.8703H97.3296Z" fill="white"/>
<path d="M92.7625 30C92.6277 30 92.5004 29.9772 92.3806 29.9315C92.2645 29.8859 92.1653 29.8194 92.0829 29.7319L92.2233 29.5151C92.2982 29.595 92.3787 29.6539 92.4648 29.692C92.5547 29.73 92.6558 29.749 92.7681 29.749C92.9029 29.749 93.0209 29.711 93.1219 29.6349C93.2268 29.5589 93.3241 29.4201 93.414 29.2185L93.6162 28.7622L93.6555 28.7109L94.8968 25.8931H95.1832L93.678 29.2756C93.5994 29.4581 93.5132 29.6007 93.4196 29.7034C93.3298 29.8098 93.2305 29.8859 93.1219 29.9315C93.0134 29.9772 92.8935 30 92.7625 30ZM93.6106 28.9447L92.2514 25.8931H92.5491L93.7847 28.6938L93.6106 28.9447Z" fill="white"/>
<path d="M90.5936 28.8929C90.3352 28.8929 90.1012 28.8321 89.8915 28.7104C89.6856 28.5887 89.5208 28.4138 89.3973 28.1856C89.2775 27.9575 89.2176 27.6894 89.2176 27.3813C89.2176 27.0657 89.2775 26.7957 89.3973 26.5714C89.5208 26.347 89.6856 26.174 89.8915 26.0523C90.1012 25.9306 90.3352 25.8698 90.5936 25.8698C90.8707 25.8698 91.1178 25.9344 91.335 26.0637C91.5559 26.1892 91.7281 26.366 91.8517 26.5942C91.979 26.8185 92.0427 27.0809 92.0427 27.3813C92.0427 27.678 91.979 27.9403 91.8517 28.1685C91.7281 28.3967 91.5559 28.5754 91.335 28.7047C91.1178 28.8302 90.8707 28.8929 90.5936 28.8929ZM89.1221 28.8701V24.6377H89.4029V26.8566L89.3467 27.3756L89.3917 27.8947V28.8701H89.1221ZM90.5768 28.6362C90.8014 28.6362 91.0036 28.5849 91.1833 28.4822C91.3631 28.3758 91.5035 28.2274 91.6046 28.0373C91.7094 27.8472 91.7618 27.6285 91.7618 27.3813C91.7618 27.1304 91.7094 26.9117 91.6046 26.7254C91.5035 26.5352 91.3631 26.3888 91.1833 26.2862C91.0036 26.1797 90.8014 26.1265 90.5768 26.1265C90.3521 26.1265 90.1499 26.1797 89.9702 26.2862C89.7942 26.3888 89.6538 26.5352 89.5489 26.7254C89.4478 26.9117 89.3973 27.1304 89.3973 27.3813C89.3973 27.6285 89.4478 27.8472 89.5489 28.0373C89.6538 28.2274 89.7942 28.3758 89.9702 28.4822C90.1499 28.5849 90.3521 28.6362 90.5768 28.6362Z" fill="white"/>
<path d="M85.0184 28.8929C84.7451 28.8929 84.4979 28.8302 84.277 28.7047C84.0598 28.5754 83.8876 28.3967 83.7603 28.1685C83.633 27.9403 83.5693 27.678 83.5693 27.3813C83.5693 27.0809 83.633 26.8185 83.7603 26.5942C83.8876 26.366 84.0598 26.1892 84.277 26.0637C84.4979 25.9344 84.7451 25.8698 85.0184 25.8698C85.2768 25.8698 85.5089 25.9306 85.7149 26.0523C85.9245 26.174 86.0893 26.347 86.2091 26.5714C86.3327 26.7957 86.3945 27.0657 86.3945 27.3813C86.3945 27.6894 86.3345 27.9575 86.2147 28.1856C86.0949 28.4138 85.9302 28.5887 85.7205 28.7104C85.5145 28.8321 85.2805 28.8929 85.0184 28.8929ZM85.0353 28.6362C85.2599 28.6362 85.4602 28.5849 85.6362 28.4822C85.816 28.3758 85.9564 28.2274 86.0575 28.0373C86.1623 27.8472 86.2147 27.6285 86.2147 27.3813C86.2147 27.1304 86.1623 26.9117 86.0575 26.7254C85.9564 26.5352 85.816 26.3888 85.6362 26.2862C85.4602 26.1797 85.2599 26.1265 85.0353 26.1265C84.8106 26.1265 84.6084 26.1797 84.4287 26.2862C84.2527 26.3888 84.1123 26.5352 84.0074 26.7254C83.9063 26.9117 83.8558 27.1304 83.8558 27.3813C83.8558 27.6285 83.9063 27.8472 84.0074 28.0373C84.1123 28.2274 84.2527 28.3758 84.4287 28.4822C84.6084 28.5849 84.8106 28.6362 85.0353 28.6362ZM86.2203 28.8701V27.8947L86.2709 27.3756L86.2147 26.8566V24.6377H86.4956V28.8701H86.2203Z" fill="white"/>
<path d="M81.7289 28.8933C81.4331 28.8933 81.171 28.8286 80.9426 28.6993C80.7179 28.57 80.54 28.3913 80.409 28.1631C80.2817 27.935 80.218 27.6745 80.218 27.3817C80.218 27.0851 80.2779 26.8246 80.3977 26.6002C80.5213 26.3721 80.6898 26.1933 80.9032 26.0641C81.1167 25.9348 81.3563 25.8701 81.6222 25.8701C81.888 25.8701 82.1258 25.9329 82.3355 26.0584C82.5489 26.1838 82.7155 26.3607 82.8353 26.5888C82.9589 26.8132 83.0207 27.0737 83.0207 27.3703C83.0207 27.3817 83.0188 27.395 83.0151 27.4102C83.0151 27.4216 83.0151 27.4349 83.0151 27.4501H80.4258V27.2277H82.8634L82.7511 27.3361C82.7548 27.1041 82.7061 26.8968 82.6051 26.7143C82.5077 26.528 82.3748 26.3835 82.2063 26.2808C82.0378 26.1743 81.8431 26.1211 81.6222 26.1211C81.405 26.1211 81.2103 26.1743 81.038 26.2808C80.8695 26.3835 80.7366 26.528 80.6393 26.7143C80.5419 26.8968 80.4932 27.106 80.4932 27.3418V27.3931C80.4932 27.6365 80.5456 27.8532 80.6505 28.0434C80.7591 28.2297 80.907 28.3761 81.0942 28.4826C81.2814 28.5852 81.4948 28.6366 81.7345 28.6366C81.9217 28.6366 82.0958 28.6024 82.2568 28.5339C82.4216 28.4655 82.5601 28.3609 82.6724 28.2202L82.8353 28.4084C82.708 28.5681 82.547 28.6898 82.3523 28.7735C82.1613 28.8533 81.9535 28.8933 81.7289 28.8933Z" fill="white"/>
<path d="M78.4045 28.8704V25.8929H78.6742V26.7086L78.6461 26.6173C78.7285 26.3778 78.8671 26.1933 79.0619 26.0641C79.2567 25.9348 79.5001 25.8701 79.7923 25.8701V26.1496C79.781 26.1496 79.7698 26.1496 79.7586 26.1496C79.7473 26.1458 79.7361 26.1439 79.7248 26.1439C79.399 26.1439 79.1443 26.2485 78.9608 26.4576C78.7772 26.663 78.6855 26.9501 78.6855 27.3189V28.8704H78.4045Z" fill="white"/>
<path d="M76.244 28.8933C75.9482 28.8933 75.6861 28.8286 75.4577 28.6993C75.233 28.57 75.0552 28.3913 74.9241 28.1631C74.7968 27.935 74.7332 27.6745 74.7332 27.3817C74.7332 27.0851 74.7931 26.8246 74.9129 26.6002C75.0364 26.3721 75.2049 26.1933 75.4184 26.0641C75.6318 25.9348 75.8714 25.8701 76.1373 25.8701C76.4031 25.8701 76.6409 25.9329 76.8506 26.0584C77.064 26.1838 77.2306 26.3607 77.3505 26.5888C77.474 26.8132 77.5358 27.0737 77.5358 27.3703C77.5358 27.3817 77.5339 27.395 77.5302 27.4102C77.5302 27.4216 77.5302 27.4349 77.5302 27.4501H74.941V27.2277H77.3785L77.2662 27.3361C77.27 27.1041 77.2213 26.8968 77.1202 26.7143C77.0228 26.528 76.8899 26.3835 76.7214 26.2808C76.5529 26.1743 76.3582 26.1211 76.1373 26.1211C75.9201 26.1211 75.7254 26.1743 75.5532 26.2808C75.3847 26.3835 75.2517 26.528 75.1544 26.7143C75.057 26.8968 75.0084 27.106 75.0084 27.3418V27.3931C75.0084 27.6365 75.0608 27.8532 75.1656 28.0434C75.2742 28.2297 75.4221 28.3761 75.6093 28.4826C75.7966 28.5852 76.01 28.6366 76.2496 28.6366C76.4368 28.6366 76.611 28.6024 76.772 28.5339C76.9367 28.4655 77.0753 28.3609 77.1876 28.2202L77.3505 28.4084C77.2232 28.5681 77.0622 28.6898 76.8674 28.7735C76.6765 28.8533 76.4687 28.8933 76.244 28.8933Z" fill="white"/>
<path d="M70.8652 28.8706L69.7532 25.8931H70.0228L71.0562 28.7109H70.9383L71.9998 25.8931H72.2413L73.2972 28.7109H73.1737L74.2239 25.8931H74.4823L73.3702 28.8706H73.1063L72.0728 26.1669H72.1627L71.1236 28.8706H70.8652Z" fill="white"/>
<path d="M68.0375 28.8933C67.7566 28.8933 67.5058 28.8286 67.2848 28.6993C67.0677 28.57 66.8935 28.3913 66.7625 28.1631C66.6352 27.935 66.5715 27.6745 66.5715 27.3817C66.5715 27.0851 66.6352 26.8246 66.7625 26.6002C66.8935 26.3721 67.0677 26.1933 67.2848 26.0641C67.5058 25.9348 67.7566 25.8701 68.0375 25.8701C68.3183 25.8701 68.5692 25.9348 68.7901 26.0641C69.011 26.1933 69.1851 26.3721 69.3124 26.6002C69.4397 26.8246 69.5034 27.0851 69.5034 27.3817C69.5034 27.6745 69.4397 27.935 69.3124 28.1631C69.1851 28.3913 69.011 28.57 68.7901 28.6993C68.5692 28.8286 68.3183 28.8933 68.0375 28.8933ZM68.0375 28.6366C68.2621 28.6366 68.4643 28.5852 68.644 28.4826C68.8238 28.3761 68.9642 28.2278 69.0653 28.0377C69.1664 27.8475 69.2169 27.6289 69.2169 27.3817C69.2169 27.1307 69.1664 26.9121 69.0653 26.7257C68.9642 26.5356 68.8238 26.3892 68.644 26.2865C68.4643 26.18 68.2621 26.1268 68.0375 26.1268C67.8128 26.1268 67.6106 26.18 67.4309 26.2865C67.2549 26.3892 67.1145 26.5356 67.0096 26.7257C66.9085 26.9121 66.858 27.1307 66.858 27.3817C66.858 27.6289 66.9085 27.8475 67.0096 28.0377C67.1145 28.2278 67.2549 28.3761 67.4309 28.4826C67.6106 28.5852 67.8128 28.6366 68.0375 28.6366Z" fill="white"/>
<path d="M63.038 28.8703V24.8774H64.4477C64.7772 24.8774 65.0599 24.9307 65.2958 25.0372C65.5317 25.1436 65.7133 25.2976 65.8406 25.4992C65.9679 25.6969 66.0316 25.9384 66.0316 26.2236C66.0316 26.5012 65.9679 26.7408 65.8406 26.9423C65.7133 27.1439 65.5317 27.2979 65.2958 27.4043C65.0599 27.5108 64.7772 27.564 64.4477 27.564H63.1952L63.3244 27.4272V28.8703H63.038ZM63.3244 27.4443L63.1952 27.3017H64.4477C64.8708 27.3017 65.191 27.2085 65.4081 27.0222C65.6291 26.832 65.7395 26.5658 65.7395 26.2236C65.7395 25.8776 65.6291 25.6114 65.4081 25.425C65.191 25.2349 64.8708 25.1398 64.4477 25.1398H63.1952L63.3244 24.9972V27.4443Z" fill="white"/>
<rect x="107.089" width="2.27848" height="20" fill="#0062F8"/>
<rect x="112.405" width="2.27848" height="20" fill="#03C988"/>
<rect x="117.722" width="2.27848" height="20" fill="#FFC91F"/>
</svg>
