<svg width="20" height="20" viewBox="0 0 20 20" fill="none" xmlns="http://www.w3.org/2000/svg">
<path fill-rule="evenodd" clip-rule="evenodd" d="M19 16.0485C19 17.1265 18.1243 18 17.0435 18H2.95652C1.87574 18 1 17.1265 1 16.0485V4.72976C1 3.86759 1.70083 3.16856 2.56522 3.16856H10.4582L13.6274 2.02341C13.8281 1.95043 14.0504 2.05386 14.1236 2.2533L14.4573 3.16856H15.8696C16.734 3.16856 17.4348 3.86759 17.4348 4.72976V5.51036C18.2992 5.51036 19 6.20939 19 7.07157V16.0485ZM2.56522 3.94916C2.13322 3.94916 1.78261 4.29887 1.78261 4.72976C1.78261 5.16065 2.13322 5.51036 2.56522 5.51036H3.91326H3.98722C3.9923 5.50841 3.99543 5.50412 4.00052 5.50217L8.29783 3.94916H2.56522ZM13.9436 4.0198L13.528 2.87856L12.725 3.16856H12.7262L10.5686 3.94916H10.5647L6.24504 5.51036H14.4867L13.9436 4.0198ZM16.6522 4.72976C16.6522 4.29887 16.3016 3.94916 15.8696 3.94916H14.7414L15.3104 5.51036H16.6522V4.72976ZM17.4348 6.29097H2.56522C2.27878 6.29097 2.01348 6.20861 1.78261 6.07435V16.0485C1.78261 16.6952 2.30852 17.2194 2.95652 17.2194H17.0435C17.6919 17.2194 18.2174 16.6952 18.2174 16.0485V13.3164H16.6522C15.7878 13.3164 15.087 12.6174 15.087 11.7552C15.087 10.893 15.7878 10.194 16.6522 10.194H18.2174V7.07157C18.2174 6.64068 17.8668 6.29097 17.4348 6.29097ZM18.2174 12.5358V10.9746H16.6522C16.2202 10.9746 15.8696 11.3243 15.8696 11.7552C15.8696 12.1861 16.2202 12.5358 16.6522 12.5358H18.2174ZM16.6522 11.3649H17.4348V12.1455H16.6522V11.3649Z" fill="white"/>
</svg>
