<svg  width="20" height="20" viewBox="0 0 20 20" fill="none" xmlns="http://www.w3.org/2000/svg">
<path d="M15.5758 6.09375C15.5406 6.00781 15.4977 5.92578 15.4391 5.85547L12.1656 2.27344C12.0914 2.19141 12.0016 2.13281 11.9039 2.08203C11.7906 2.02344 11.6656 2 11.5328 2H5.28674C4.80237 2 4.40002 2.41406 4.40002 2.93359V16.0273C4.40002 16.5508 4.80237 17 5.28674 17H14.7828C15.2672 17 15.65 16.5508 15.65 16.0273V6.49219C15.65 6.35156 15.6305 6.21484 15.5758 6.09375ZM6.27502 6.46094C6.27502 6.40234 6.34534 6.37891 6.40784 6.37891H9.17346C9.23596 6.37891 9.28284 6.40234 9.28284 6.46094V6.88281C9.28284 6.9375 9.23987 7.00391 9.17346 7.00391H6.40784C6.34534 7.00391 6.27502 6.9375 6.27502 6.88281V6.46094ZM6.27502 11.4609C6.27502 11.4023 6.34534 11.3789 6.40784 11.3789H11.1813C11.2438 11.3789 11.275 11.4023 11.275 11.4609V11.8828C11.275 11.9375 11.2477 12.0039 11.1813 12.0039H6.40784C6.34534 12.0039 6.27502 11.9375 6.27502 11.8828V11.4609ZM12.525 14.3828C12.525 14.4375 12.4977 14.5039 12.4313 14.5039H6.40784C6.34534 14.5039 6.27502 14.4375 6.27502 14.3828V13.9609C6.27502 13.9023 6.34534 13.8789 6.40784 13.8789H12.4313C12.4938 13.8789 12.525 13.9023 12.525 13.9609V14.3828ZM13.775 9.38281C13.775 9.4375 13.7477 9.50391 13.6813 9.50391H6.40784C6.34534 9.50391 6.27502 9.4375 6.27502 9.38281V8.96094C6.27502 8.90234 6.34534 8.87891 6.40784 8.87891H13.6813C13.7438 8.87891 13.775 8.90234 13.775 8.96094V9.38281ZM11.943 6.41797C11.7242 6.41797 11.5094 6.21484 11.5094 5.97656V3.39844L14.2906 6.41797H11.943Z" fill="white"/>
</svg>
