<svg width="20" height="20" viewBox="0 0 20 20" fill="none" xmlns="http://www.w3.org/2000/svg">
<path d="M12.1339 17.1582L15.261 13.8512H12.1339V17.1582ZM5.75636 10.0734H14.2436V10.8835H5.75636V10.0734ZM5.75636 12.1302H9.72908V12.9403H5.75636V12.1302ZM5.75636 14.1877H8.55531V14.9974H5.75636V14.1877ZM17 13.4286L12.0155 18.8071C11.967 18.8674 11.9058 18.916 11.8363 18.9493C11.7668 18.9827 11.6907 19 11.6137 19H3.93601C3.41825 19 3 18.5792 3 18.0582V1.94145C3 1.4219 3.41895 1 3.93601 1H16.0643C16.581 1 17 1.4219 17 1.94145V13.4286ZM16.0863 12.9319V1.91932H3.91367V18.0852H11.2202V13.4598C11.2202 13.1707 11.4531 12.9319 11.7453 12.9319H16.0863Z" fill="white"/>
<path fill-rule="evenodd" clip-rule="evenodd" d="M10 3.26562C11.4741 3.26562 12.6684 4.46808 12.6684 5.95052C12.6684 7.43366 11.4734 8.63506 10 8.63506C8.52603 8.63506 7.33167 7.43295 7.33167 5.95052C7.33167 4.46703 8.52673 3.26562 10 3.26562ZM9.17191 5.5237L9.64498 5.97335L10.7625 4.83342C10.8554 4.73858 10.9134 4.6627 11.0275 4.78108L11.3979 5.16293C11.5198 5.28413 11.5139 5.35509 11.3986 5.46785L9.85655 6.99455C9.61461 7.23342 9.65685 7.24783 9.41107 7.00298L8.54837 6.13951C8.49705 6.08366 8.50264 6.02745 8.5585 5.97195L8.98897 5.523C9.05391 5.4538 9.10593 5.46012 9.17191 5.5237Z" fill="white"/>
</svg>
