<svg width="20" height="20" viewBox="0 0 20 20" fill="none" xmlns="http://www.w3.org/2000/svg">
<path d="M16.8256 11.6L16.0226 11.1333C15.1526 10.6 15.1526 9.33333 16.0226 8.8L16.8256 8.33333C17.4947 7.93333 17.6955 7.13333 17.294 6.53333L16.6248 5.4C16.2233 4.73333 15.4203 4.53333 14.8181 4.93333L14.015 5.4C13.1451 5.93333 12.0075 5.26667 12.0075 4.26667V3.33333C12.0075 2.6 11.4053 2 10.6692 2H9.33083C8.59474 2 7.99248 2.6 7.99248 3.33333V4.2C7.99248 5.2 6.85488 5.86667 5.98496 5.33333L5.18195 4.93333C4.51278 4.53333 3.70977 4.8 3.37518 5.4L2.70601 6.53333C2.37142 7.2 2.57217 8 3.17443 8.4L3.97744 8.86667C4.84736 9.33333 4.84736 10.6667 3.97744 11.1333L3.17443 11.6C2.50525 12 2.3045 12.8 2.70601 13.4L3.37518 14.5333C3.77668 15.2 4.57969 15.4 5.18195 15L5.98496 14.6C6.85488 14.0667 7.99248 14.7333 7.99248 15.7333V16.6667C7.99248 17.4 8.59474 18 9.33083 18H10.6692C11.4053 18 12.0075 17.4 12.0075 16.6667V15.8C12.0075 14.8 13.1451 14.1333 14.015 14.6667L14.8181 15.1333C15.4872 15.5333 16.2902 15.2667 16.6248 14.6667L17.294 13.5333C17.6286 12.8 17.4278 12 16.8256 11.6ZM10 12.6667C8.52782 12.6667 7.32331 11.4667 7.32331 10C7.32331 8.53333 8.52782 7.33333 10 7.33333C11.4722 7.33333 12.6767 8.53333 12.6767 10C12.6767 11.4667 11.4722 12.6667 10 12.6667Z" fill="white"/>
</svg>
