<svg width="42" height="40" viewBox="0 0 42 40" fill="none" xmlns="http://www.w3.org/2000/svg">
<g clip-path="url(#clip0_107_5722)">
<path d="M20.9983 10.3567C15.4319 10.3567 9.86374 10.3878 4.29909 10.3325C2.9466 10.3186 2.42682 10.6714 2.45811 12.1237C2.55372 16.4341 2.48071 20.7479 2.49809 25.0599C2.50852 27.6845 3.68717 28.7997 6.33998 28.8672C7.32392 28.8914 8.80505 28.428 8.81548 30.0498C8.82591 31.8082 7.25786 31.2826 6.24611 31.2929C2.18344 31.3292 0.00868881 29.149 0.00521199 25.1101C-3.24362e-06 18.7751 -0.00174165 12.4384 0.00521199 6.10339C0.0104272 2.22355 2.15215 0.0242866 6.01664 0.0173707C16.0264 -0.00337706 26.0362 -0.00683503 36.0442 0.0173707C39.8131 0.0260156 41.9739 2.2443 41.9809 6.01694C41.9913 12.4055 41.9392 18.7941 42 25.181C42.04 29.4187 39.1264 31.9517 34.2293 31.2376C33.819 31.1771 33.2245 30.4924 33.2193 30.0913C33.2141 29.6919 33.786 29.2009 34.2154 28.9087C34.4744 28.7323 34.9438 28.8533 35.3175 28.8499C38.4223 28.8205 39.4897 27.7796 39.4949 24.7453C39.5019 20.4868 39.4497 16.2266 39.5245 11.9698C39.5471 10.6748 39.069 10.329 37.8608 10.3377C32.2406 10.3757 26.6203 10.355 21 10.355L20.9983 10.3567ZM20.9913 7.79779C26.669 7.79779 32.3449 7.81681 38.0225 7.76494C38.5075 7.75975 39.3298 7.36554 39.4185 7.00937C40.0669 4.38478 38.5093 2.51748 35.7765 2.51575C25.8693 2.51056 15.9603 2.50883 6.05314 2.51575C3.70803 2.51748 2.60761 3.71566 2.4668 6.0567C2.37988 7.49868 2.89097 7.8462 4.28518 7.82718C9.85331 7.75111 15.4249 7.79606 20.9948 7.79606L20.9913 7.79779Z" fill="#F0204E"/>
<path d="M21.0678 20.1548C26.6464 20.1842 31.0376 24.5723 31.0272 30.1103C31.0185 35.6862 26.5108 40.0588 20.8331 40C15.2702 39.943 10.9224 35.5202 10.9572 29.9581C10.992 24.4617 15.4632 20.1254 21.0678 20.1565V20.1548ZM20.8783 37.4999C25.0766 37.5311 28.4786 34.2373 28.5117 30.1085C28.5447 26.0748 25.1757 22.6774 21.106 22.6376C16.9286 22.5961 13.5109 25.9123 13.4727 30.0411C13.4362 34.0679 16.8139 37.4705 20.8783 37.4999Z" fill="#F0204E"/>
<path d="M19.9952 30.4423C21.1599 29.3513 22.243 28.3347 23.3295 27.3198C23.9675 26.7233 24.6698 26.3239 25.419 27.0898C26.177 27.8644 25.7302 28.5353 25.0957 29.1335C23.778 30.3784 22.4446 31.6077 21.1408 32.8681C20.4002 33.5839 19.6788 33.6721 18.8983 32.9563C18.1907 32.3079 17.3719 31.7425 16.8104 30.987C16.4836 30.5478 16.4419 29.8648 16.7374 29.3583C17.2346 29.0055 17.8569 29.0159 18.455 29.213C19.013 29.3963 19.4389 29.9772 19.9952 30.4441V30.4423Z" fill="#F0204E"/>
</g>
<defs>
<clipPath id="clip0_107_5722">
<rect width="42" height="40" fill="white"/>
</clipPath>
</defs>
</svg>
