<svg width="16" height="16" viewBox="0 0 16 16" fill="none" xmlns="http://www.w3.org/2000/svg">
<path d="M14.6667 2.66667H10.6667V2C10.6667 1.46957 10.456 0.960859 10.0809 0.585786C9.70583 0.210714 9.19712 0 8.66669 0L7.33335 0C6.80292 0 6.29421 0.210714 5.91914 0.585786C5.54407 0.960859 5.33335 1.46957 5.33335 2V2.66667H1.33335C1.15654 2.66667 0.986973 2.7369 0.861949 2.86193C0.736925 2.98695 0.666687 3.15652 0.666687 3.33333C0.666687 3.51014 0.736925 3.67971 0.861949 3.80474C0.986973 3.92976 1.15654 4 1.33335 4H2.66669V13.3333C2.66669 13.8638 2.8774 14.3725 3.25247 14.7475C3.62755 15.1226 4.13625 15.3333 4.66669 15.3333H11.3334C11.8638 15.3333 12.3725 15.1226 12.7476 14.7475C13.1226 14.3725 13.3334 13.8638 13.3334 13.3333V4H14.6667C14.8435 4 15.0131 3.92976 15.1381 3.80474C15.2631 3.67971 15.3334 3.51014 15.3334 3.33333C15.3334 3.15652 15.2631 2.98695 15.1381 2.86193C15.0131 2.7369 14.8435 2.66667 14.6667 2.66667ZM6.66669 2C6.66669 1.82319 6.73693 1.65362 6.86195 1.5286C6.98697 1.40357 7.15654 1.33333 7.33335 1.33333H8.66669C8.8435 1.33333 9.01307 1.40357 9.13809 1.5286C9.26312 1.65362 9.33335 1.82319 9.33335 2V2.66667H6.66669V2ZM6.00002 12C6.00002 12.1768 5.92978 12.3464 5.80476 12.4714C5.67973 12.5964 5.51016 12.6667 5.33335 12.6667C5.15654 12.6667 4.98697 12.5964 4.86195 12.4714C4.73693 12.3464 4.66669 12.1768 4.66669 12V6.66667C4.66669 6.48986 4.73693 6.32029 4.86195 6.19526C4.98697 6.07024 5.15654 6 5.33335 6C5.51016 6 5.67973 6.07024 5.80476 6.19526C5.92978 6.32029 6.00002 6.48986 6.00002 6.66667V12ZM8.66669 12C8.66669 12.1768 8.59645 12.3464 8.47143 12.4714C8.3464 12.5964 8.17683 12.6667 8.00002 12.6667C7.82321 12.6667 7.65364 12.5964 7.52862 12.4714C7.40359 12.3464 7.33335 12.1768 7.33335 12V6.66667C7.33335 6.48986 7.40359 6.32029 7.52862 6.19526C7.65364 6.07024 7.82321 6 8.00002 6C8.17683 6 8.3464 6.07024 8.47143 6.19526C8.59645 6.32029 8.66669 6.48986 8.66669 6.66667V12ZM11.3334 12C11.3334 12.1768 11.2631 12.3464 11.1381 12.4714C11.0131 12.5964 10.8435 12.6667 10.6667 12.6667C10.4899 12.6667 10.3203 12.5964 10.1953 12.4714C10.0703 12.3464 10 12.1768 10 12V6.66667C10 6.48986 10.0703 6.32029 10.1953 6.19526C10.3203 6.07024 10.4899 6 10.6667 6C10.8435 6 11.0131 6.07024 11.1381 6.19526C11.2631 6.32029 11.3334 6.48986 11.3334 6.66667V12Z" fill="#232323"/>
</svg>
