<svg width="16" height="16" viewBox="0 0 16 16" fill="none" xmlns="http://www.w3.org/2000/svg">
<path d="M9.33331 4.00009V1.34009C9.37331 1.37342 9.41331 1.41342 9.44665 1.44675L13.22 5.22009C13.2533 5.25342 13.2933 5.29342 13.3266 5.33342H10.6666C10.3133 5.33237 9.97482 5.19155 9.725 4.94173C9.47518 4.69191 9.33437 4.35339 9.33331 4.00009Z" fill="#1F2C40"/>
<path d="M13.96 6.66675H10.6667C9.95942 6.66675 9.28115 6.3858 8.78105 5.8857C8.28095 5.3856 8 4.70733 8 4.00008V0.706748C7.85483 0.680219 7.70757 0.666832 7.56 0.666748H4C3.46957 0.666748 2.96086 0.877462 2.58579 1.25253C2.21071 1.62761 2 2.13632 2 2.66675V13.3334C2 13.8638 2.21071 14.3726 2.58579 14.7476C2.96086 15.1227 3.46957 15.3334 4 15.3334H12C12.5304 15.3334 13.0391 15.1227 13.4142 14.7476C13.7893 14.3726 14 13.8638 14 13.3334V7.10675C13.9999 6.95918 13.9865 6.81191 13.96 6.66675ZM4.66667 9.33342H7.33333C7.51014 9.33342 7.67971 9.40365 7.80474 9.52868C7.92976 9.6537 8 9.82327 8 10.0001C8 10.1769 7.92976 10.3465 7.80474 10.4715C7.67971 10.5965 7.51014 10.6667 7.33333 10.6667H4.66667C4.48986 10.6667 4.32029 10.5965 4.19526 10.4715C4.07024 10.3465 4 10.1769 4 10.0001C4 9.82327 4.07024 9.6537 4.19526 9.52868C4.32029 9.40365 4.48986 9.33342 4.66667 9.33342ZM11.3333 13.3334H4.66667C4.48986 13.3334 4.32029 13.2632 4.19526 13.1382C4.07024 13.0131 4 12.8436 4 12.6667C4 12.4899 4.07024 12.3204 4.19526 12.1953C4.32029 12.0703 4.48986 12.0001 4.66667 12.0001H11.3333C11.5101 12.0001 11.6797 12.0703 11.8047 12.1953C11.9298 12.3204 12 12.4899 12 12.6667C12 12.8436 11.9298 13.0131 11.8047 13.1382C11.6797 13.2632 11.5101 13.3334 11.3333 13.3334Z" fill="#1F2C40"/>
</svg>
