<svg width="17" height="16" viewBox="0 0 17 16" fill="none" xmlns="http://www.w3.org/2000/svg">
<path d="M10.1904 3.99984V1.33984C10.2304 1.37318 10.2704 1.41318 10.3038 1.44651L14.0771 5.21984C14.1104 5.25318 14.1504 5.29318 14.1838 5.33318H11.5238C11.1705 5.33212 10.8319 5.19131 10.5821 4.94149C10.3323 4.69167 10.1915 4.35314 10.1904 3.99984Z" fill="#1F2C40"/>
<path d="M14.8171 6.6665H11.5237C10.8165 6.6665 10.1382 6.38555 9.6381 5.88546C9.13801 5.38536 8.85706 4.70708 8.85706 3.99984V0.706504C8.71189 0.679975 8.56463 0.666588 8.41706 0.666504H4.85706C4.32662 0.666504 3.81791 0.877218 3.44284 1.25229C3.06777 1.62736 2.85706 2.13607 2.85706 2.6665V13.3332C2.85706 13.8636 3.06777 14.3723 3.44284 14.7474C3.81791 15.1225 4.32662 15.3332 4.85706 15.3332H12.8571C13.3875 15.3332 13.8962 15.1225 14.2713 14.7474C14.6463 14.3723 14.8571 13.8636 14.8571 13.3332V7.1065C14.857 6.95893 14.8436 6.81167 14.8171 6.6665ZM5.52372 9.33317H8.19039C8.3672 9.33317 8.53677 9.40341 8.66179 9.52843C8.78682 9.65346 8.85706 9.82303 8.85706 9.99984C8.85706 10.1766 8.78682 10.3462 8.66179 10.4712C8.53677 10.5963 8.3672 10.6665 8.19039 10.6665H5.52372C5.34691 10.6665 5.17734 10.5963 5.05232 10.4712C4.92729 10.3462 4.85706 10.1766 4.85706 9.99984C4.85706 9.82303 4.92729 9.65346 5.05232 9.52843C5.17734 9.40341 5.34691 9.33317 5.52372 9.33317ZM12.1904 13.3332H5.52372C5.34691 13.3332 5.17734 13.2629 5.05232 13.1379C4.92729 13.0129 4.85706 12.8433 4.85706 12.6665C4.85706 12.4897 4.92729 12.3201 5.05232 12.1951C5.17734 12.0701 5.34691 11.9998 5.52372 11.9998H12.1904C12.3672 11.9998 12.5368 12.0701 12.6618 12.1951C12.7868 12.3201 12.8571 12.4897 12.8571 12.6665C12.8571 12.8433 12.7868 13.0129 12.6618 13.1379C12.5368 13.2629 12.3672 13.3332 12.1904 13.3332Z" fill="#1F2C40"/>
</svg>
