<svg width="16" height="16" viewBox="0 0 16 16" fill="none" xmlns="http://www.w3.org/2000/svg">
<path d="M15.4149 4.82862L14.7079 5.53616L10.4647 1.29347L11.1718 0.585938C11.953 -0.195312 13.2196 -0.195312 14.0008 0.585938L15.4149 2.0005C16.1952 2.78128 16.1952 4.04737 15.4149 4.82862ZM5.51453 13.3135C5.31922 13.5088 5.31922 13.8252 5.51453 14.0205C5.70985 14.2168 6.02625 14.2168 6.22157 14.0205L14.0009 6.24319L13.2929 5.53566L5.51453 13.3135ZM1.97841 9.77834C1.7831 9.97366 1.7831 10.2901 1.97841 10.4854C2.17372 10.6807 2.49013 10.6807 2.68544 10.4854L10.4647 2.70753L9.75769 2.0005L1.97841 9.77834ZM11.1708 3.41409L3.39247 11.1924C3.00185 11.5821 3.00282 12.2158 3.39247 12.6065C3.7831 12.9971 4.41591 12.9991 4.8075 12.6055L12.5858 4.82866L11.1708 3.41409ZM4.80557 14.7256C4.56632 14.4864 4.45107 14.1827 4.4081 13.8702C4.30653 13.8858 4.204 13.9004 4.0995 13.9004C3.56532 13.9004 3.06338 13.6914 2.68544 13.3135C2.3075 12.9346 2.0995 12.4337 2.0995 11.8995C2.0995 11.8018 2.11416 11.7071 2.12782 11.6123C1.80457 11.5684 1.50575 11.4268 1.27138 11.1924C1.24891 11.1699 1.2411 11.1397 1.2206 11.1153L-0.00012207 16L4.87194 14.7803C4.85047 14.7608 4.82607 14.7461 4.80557 14.7256Z" fill="#1F2C40"/>
</svg>
