<svg width="16" height="10" viewBox="0 0 16 10" fill="none" xmlns="http://www.w3.org/2000/svg">
<path d="M0.160004 4.99998C0.896957 3.55439 2.01924 2.34071 3.40282 1.49305C4.7864 0.645395 6.37741 0.196777 8 0.196777C9.6226 0.196777 11.2136 0.645395 12.5972 1.49305C13.9808 2.34071 15.103 3.55439 15.84 4.99998C15.103 6.44556 13.9808 7.65925 12.5972 8.50691C11.2136 9.35456 9.6226 9.80318 8 9.80318C6.37741 9.80318 4.7864 9.35456 3.40282 8.50691C2.01924 7.65925 0.896957 6.44556 0.160004 4.99998ZM8 8.19998C8.8487 8.19998 9.66263 7.86284 10.2627 7.26272C10.8629 6.6626 11.2 5.84867 11.2 4.99998C11.2 4.15129 10.8629 3.33735 10.2627 2.73724C9.66263 2.13712 8.8487 1.79998 8 1.79998C7.15131 1.79998 6.33738 2.13712 5.73726 2.73724C5.13715 3.33735 4.8 4.15129 4.8 4.99998C4.8 5.84867 5.13715 6.6626 5.73726 7.26272C6.33738 7.86284 7.15131 8.19998 8 8.19998ZM8 6.59998C7.57566 6.59998 7.16869 6.43141 6.86863 6.13135C6.56857 5.83129 6.4 5.42432 6.4 4.99998C6.4 4.57563 6.56857 4.16867 6.86863 3.86861C7.16869 3.56855 7.57566 3.39998 8 3.39998C8.42435 3.39998 8.83132 3.56855 9.13137 3.86861C9.43143 4.16867 9.6 4.57563 9.6 4.99998C9.6 5.42432 9.43143 5.83129 9.13137 6.13135C8.83132 6.43141 8.42435 6.59998 8 6.59998Z" fill="#1F2C40"/>
</svg>
