<svg width="960" height="960" viewBox="0 0 960 960" fill="none" xmlns="http://www.w3.org/2000/svg">
<path d="M931.171 94.0922C899.807 139.111 849.129 167.416 796.521 181.946C743.938 196.476 688.883 198.607 634.394 200.661C573.082 202.974 511.744 205.261 450.431 207.575C423.264 208.588 395.531 209.732 370.218 219.739C344.905 229.746 322.064 250.462 316.965 277.39C309.781 315.131 337.952 350.298 342.665 388.429C348.896 438.724 313.463 484.965 273.421 515.557C233.404 546.15 186.435 568.14 152.135 605.127C107.792 652.979 89.8699 724.302 106.247 787.697C122.651 851.092 172.813 904.454 234.666 924.312C307.129 947.576 385.797 926.106 456.921 899.048C528.044 871.964 599.451 838.746 675.467 838.278C763.534 837.706 849.722 886.13 898.082 960H19.519C8.75524 960 0 951.189 0 940.272V19.7282C0 8.83739 8.75524 0 19.519 0H959.961C960.733 33.0102 950.149 66.9042 931.171 94.0922Z" fill="#E2EEFF"/>
</svg>
