<svg width="193" height="48" viewBox="0 0 193 48" fill="none" xmlns="http://www.w3.org/2000/svg">
<path d="M153.839 32C151.555 32 149.389 31.6094 147.339 30.8281C145.319 30.0169 143.753 28.9803 142.641 27.7183L143.651 26.0056C144.705 27.1174 146.139 28.0638 147.954 28.8451C149.799 29.5962 151.746 29.9718 153.795 29.9718C155.844 29.9718 157.513 29.7014 158.801 29.1605C160.119 28.5897 161.085 27.8385 161.699 26.907C162.344 25.9756 162.666 24.9389 162.666 23.7972C162.666 22.4451 162.314 21.3634 161.612 20.5521C160.909 19.7408 159.987 19.0948 158.845 18.6141C157.703 18.1333 156.459 17.7277 155.112 17.3972C153.766 17.0667 152.404 16.7211 151.028 16.3606C149.652 15.9699 148.393 15.4742 147.252 14.8732C146.11 14.2723 145.188 13.461 144.485 12.4394C143.812 11.3878 143.475 10.0357 143.475 8.38309C143.475 6.88075 143.856 5.49859 144.617 4.23662C145.378 2.97465 146.564 1.95305 148.174 1.17183C149.784 0.39061 151.848 0 154.366 0C156.064 0 157.733 0.255399 159.372 0.766197C161.041 1.277 162.461 1.96807 163.632 2.83944L162.797 4.68732C161.509 3.78591 160.119 3.12488 158.625 2.70422C157.162 2.25352 155.742 2.02817 154.366 2.02817C152.404 2.02817 150.779 2.31361 149.491 2.8845C148.203 3.4554 147.252 4.22159 146.637 5.18309C146.022 6.11455 145.715 7.16619 145.715 8.33802C145.715 9.69013 146.051 10.7718 146.725 11.5831C147.427 12.3944 148.35 13.0404 149.491 13.5211C150.633 14.0019 151.892 14.4075 153.268 14.738C154.644 15.0685 156.005 15.4291 157.352 15.8197C158.699 16.1803 159.943 16.661 161.085 17.262C162.226 17.8629 163.149 18.6742 163.851 19.6958C164.554 20.7174 164.905 22.0394 164.905 23.662C164.905 25.1343 164.51 26.5164 163.72 27.8084C162.929 29.0704 161.714 30.092 160.075 30.8732C158.464 31.6244 156.386 32 153.839 32Z" fill="white"/>
<path d="M127.077 32C124.794 32 122.627 31.6094 120.578 30.8281C118.558 30.0169 116.991 28.9803 115.879 27.7183L116.889 26.0056C117.943 27.1174 119.377 28.0638 121.193 28.8451C123.037 29.5962 124.984 29.9718 127.033 29.9718C129.083 29.9718 130.751 29.7014 132.039 29.1605C133.357 28.5897 134.323 27.8385 134.938 26.907C135.582 25.9756 135.904 24.9389 135.904 23.7972C135.904 22.4451 135.553 21.3634 134.85 20.5521C134.147 19.7408 133.225 19.0948 132.083 18.6141C130.942 18.1333 129.697 17.7277 128.351 17.3972C127.004 17.0667 125.643 16.7211 124.267 16.3606C122.891 15.9699 121.632 15.4742 120.49 14.8732C119.348 14.2723 118.426 13.461 117.723 12.4394C117.05 11.3878 116.713 10.0357 116.713 8.38309C116.713 6.88075 117.094 5.49859 117.855 4.23662C118.616 2.97465 119.802 1.95305 121.412 1.17183C123.022 0.39061 125.086 0 127.604 0C129.302 0 130.971 0.255399 132.61 0.766197C134.279 1.277 135.699 1.96807 136.87 2.83944L136.036 4.68732C134.747 3.78591 133.357 3.12488 131.864 2.70422C130.4 2.25352 128.98 2.02817 127.604 2.02817C125.643 2.02817 124.018 2.31361 122.73 2.8845C121.441 3.4554 120.49 4.22159 119.875 5.18309C119.26 6.11455 118.953 7.16619 118.953 8.33802C118.953 9.69013 119.29 10.7718 119.963 11.5831C120.666 12.3944 121.588 13.0404 122.73 13.5211C123.871 14.0019 125.13 14.4075 126.506 14.738C127.882 15.0685 129.244 15.4291 130.59 15.8197C131.937 16.1803 133.181 16.661 134.323 17.262C135.465 17.8629 136.387 18.6742 137.09 19.6958C137.792 20.7174 138.143 22.0394 138.143 23.662C138.143 25.1343 137.748 26.5164 136.958 27.8084C136.167 29.0704 134.952 30.092 133.313 30.8732C131.703 31.6244 129.624 32 127.077 32Z" fill="white"/>
<path d="M91.5972 14.7373H108.241V16.7654H91.5972V14.7373ZM91.8607 29.7007H110.832V31.7739H89.6211V0.224609H110.173V2.29785H91.8607V29.7007Z" fill="white"/>
<path d="M70.9423 32C68.6588 32 66.4923 31.6094 64.443 30.8281C62.4229 30.0169 60.8566 28.9803 59.7441 27.7183L60.7542 26.0056C61.8081 27.1174 63.2427 28.0638 65.0578 28.8451C66.9022 29.5962 68.8491 29.9718 70.8984 29.9718C72.9477 29.9718 74.6165 29.7014 75.9046 29.1605C77.2221 28.5897 78.1882 27.8385 78.803 26.907C79.4471 25.9756 79.7691 24.9389 79.7691 23.7972C79.7691 22.4451 79.4178 21.3634 78.7152 20.5521C78.0125 19.7408 77.0903 19.0948 75.9485 18.6141C74.8068 18.1333 73.5625 17.7277 72.2158 17.3972C70.8691 17.0667 69.5078 16.7211 68.1318 16.3606C66.7558 15.9699 65.4969 15.4742 64.3552 14.8732C63.2134 14.2723 62.2912 13.461 61.5885 12.4394C60.9152 11.3878 60.5785 10.0357 60.5785 8.38309C60.5785 6.88075 60.9591 5.49859 61.7203 4.23662C62.4815 2.97465 63.6672 1.95305 65.2774 1.17183C66.8876 0.39061 68.9515 0 71.4693 0C73.1673 0 74.8361 0.255399 76.4755 0.766197C78.1443 1.277 79.5642 1.96807 80.7352 2.83944L79.9008 4.68732C78.6127 3.78591 77.2221 3.12488 75.729 2.70422C74.2652 2.25352 72.8453 2.02817 71.4693 2.02817C69.5078 2.02817 67.8829 2.31361 66.5948 2.8845C65.3066 3.4554 64.3552 4.22159 63.7404 5.18309C63.1255 6.11455 62.8181 7.16619 62.8181 8.33802C62.8181 9.69013 63.1548 10.7718 63.8282 11.5831C64.5308 12.3944 65.453 13.0404 66.5948 13.5211C67.7366 14.0019 68.9954 14.4075 70.3714 14.738C71.7474 15.0685 73.1088 15.4291 74.4555 15.8197C75.8022 16.1803 77.0464 16.661 78.1882 17.262C79.33 17.8629 80.2522 18.6742 80.9548 19.6958C81.6574 20.7174 82.0087 22.0394 82.0087 23.662C82.0087 25.1343 81.6135 26.5164 80.823 27.8084C80.0326 29.0704 78.8176 30.092 77.1782 30.8732C75.568 31.6244 73.4893 32 70.9423 32Z" fill="white"/>
<path d="M44.1808 32C41.8972 32 39.7308 31.6094 37.6815 30.8281C35.6614 30.0169 34.0951 28.9803 32.9826 27.7183L33.9927 26.0056C35.0466 27.1174 36.4811 28.0638 38.2963 28.8451C40.1407 29.5962 42.0875 29.9718 44.1369 29.9718C46.1862 29.9718 47.855 29.7014 49.1431 29.1605C50.4606 28.5897 51.4267 27.8385 52.0415 26.907C52.6855 25.9756 53.0076 24.9389 53.0076 23.7972C53.0076 22.4451 52.6563 21.3634 51.9536 20.5521C51.251 19.7408 50.3288 19.0948 49.187 18.6141C48.0453 18.1333 46.801 17.7277 45.4543 17.3972C44.1076 17.0667 42.7463 16.7211 41.3703 16.3606C39.9943 15.9699 38.7354 15.4742 37.5936 14.8732C36.4519 14.2723 35.5297 13.461 34.827 12.4394C34.1537 11.3878 33.817 10.0357 33.817 8.38309C33.817 6.88075 34.1976 5.49859 34.9588 4.23662C35.72 2.97465 36.9056 1.95305 38.5158 1.17183C40.126 0.39061 42.19 0 44.7078 0C46.4058 0 48.0745 0.255399 49.714 0.766197C51.3828 1.277 52.8027 1.96807 53.9737 2.83944L53.1393 4.68732C51.8512 3.78591 50.4606 3.12488 48.9675 2.70422C47.5037 2.25352 46.0838 2.02817 44.7078 2.02817C42.7463 2.02817 41.1214 2.31361 39.8333 2.8845C38.5451 3.4554 37.5936 4.22159 36.9788 5.18309C36.364 6.11455 36.0566 7.16619 36.0566 8.33802C36.0566 9.69013 36.3933 10.7718 37.0667 11.5831C37.7693 12.3944 38.6915 13.0404 39.8333 13.5211C40.975 14.0019 42.2339 14.4075 43.6099 14.738C44.9859 15.0685 46.3472 15.4291 47.6939 15.8197C49.0407 16.1803 50.2849 16.661 51.4267 17.262C52.5684 17.8629 53.4906 18.6742 54.1933 19.6958C54.8959 20.7174 55.2472 22.0394 55.2472 23.662C55.2472 25.1343 54.852 26.5164 54.0615 27.8084C53.2711 29.0704 52.0561 30.092 50.4166 30.8732C48.8064 31.6244 46.7278 32 44.1808 32Z" fill="white"/>
<path d="M0 31.7739L14.1404 0.224609H16.3801L30.5205 31.7739H28.1052L14.7552 1.66686H15.7214L2.41529 31.7739H0ZM5.1819 22.895L5.92844 20.957H24.3286L25.0751 22.895H5.1819Z" fill="white"/>
<path d="M190.922 46.2296C190.446 46.2296 190.025 46.1262 189.657 45.9193C189.296 45.7124 189.01 45.4265 188.799 45.0614C188.595 44.6964 188.492 44.2796 188.492 43.8111C188.492 43.3365 188.589 42.9197 188.781 42.5608C188.98 42.1957 189.251 41.9097 189.594 41.7029C189.938 41.496 190.323 41.3926 190.751 41.3926C191.178 41.3926 191.56 41.493 191.898 41.6938C192.241 41.8945 192.509 42.1775 192.702 42.5425C192.9 42.9015 193 43.3183 193 43.7928C193 43.8111 192.997 43.8324 192.991 43.8567C192.991 43.875 192.991 43.8963 192.991 43.9206H188.826V43.5647H192.747L192.566 43.7381C192.572 43.3669 192.494 43.0353 192.331 42.7433C192.175 42.4452 191.961 42.214 191.69 42.0497C191.419 41.8793 191.106 41.7941 190.751 41.7941C190.401 41.7941 190.088 41.8793 189.811 42.0497C189.54 42.214 189.326 42.4452 189.17 42.7433C189.013 43.0353 188.935 43.37 188.935 43.7472V43.8293C188.935 44.2187 189.019 44.5656 189.188 44.8698C189.362 45.1679 189.6 45.4021 189.901 45.5725C190.202 45.7368 190.546 45.8189 190.931 45.8189C191.232 45.8189 191.512 45.7642 191.771 45.6546C192.036 45.5451 192.259 45.3778 192.44 45.1527L192.702 45.4539C192.497 45.7094 192.238 45.9041 191.925 46.038C191.618 46.1657 191.283 46.2296 190.922 46.2296Z" fill="white"/>
<path d="M186.213 46.1931V40.699C186.213 40.3035 186.324 39.9871 186.547 39.7498C186.776 39.5065 187.101 39.3848 187.523 39.3848C187.697 39.3848 187.869 39.4121 188.038 39.4669C188.206 39.5156 188.345 39.5916 188.453 39.6951L188.272 40.0419C188.182 39.9506 188.074 39.8837 187.947 39.8411C187.821 39.7985 187.685 39.7772 187.541 39.7772C187.252 39.7772 187.032 39.8593 186.881 40.0236C186.731 40.1818 186.656 40.4191 186.656 40.7355V41.5386L186.665 41.7576V46.1931H186.213ZM185.346 41.8215V41.4291H188.164V41.8215H185.346Z" fill="white"/>
<path d="M183.768 46.1936V41.4296H184.219V46.1936H183.768ZM183.994 40.2705C183.891 40.2705 183.804 40.234 183.731 40.161C183.659 40.088 183.623 40.0028 183.623 39.9054C183.623 39.802 183.659 39.7138 183.731 39.6408C183.804 39.5678 183.891 39.5312 183.994 39.5312C184.102 39.5312 184.189 39.5678 184.256 39.6408C184.328 39.7077 184.364 39.7929 184.364 39.8963C184.364 39.9997 184.328 40.088 184.256 40.161C184.189 40.234 184.102 40.2705 183.994 40.2705Z" fill="white"/>
<path d="M178.629 46.1932V39.8047H179.09V45.7734H182.73V46.1932H178.629Z" fill="white"/>
<path d="M168.881 46.1932L171.79 39.8047H172.25L175.159 46.1932H174.662L171.916 40.0967H172.115L169.378 46.1932H168.881ZM169.947 44.3953L170.1 44.0029H173.885L174.039 44.3953H169.947Z" fill="white"/>
<path d="M164.303 42.7434H167.727V43.1541H164.303V42.7434ZM164.357 45.7734H168.26V46.1932H163.896V39.8047H168.124V40.2245H164.357V45.7734Z" fill="white"/>
<path d="M156.539 46.1932V39.8047H156.927L161.435 45.6183H161.227V39.8047H161.688V46.1932H161.309L156.792 40.3797H157V46.1932H156.539Z" fill="white"/>
<path d="M149.195 47.9988C148.978 47.9988 148.773 47.9623 148.58 47.8893C148.394 47.8163 148.234 47.7098 148.102 47.5699L148.327 47.223C148.448 47.3508 148.577 47.4451 148.716 47.506C148.86 47.5668 149.023 47.5972 149.204 47.5972C149.42 47.5972 149.61 47.5364 149.773 47.4147C149.941 47.293 150.098 47.0709 150.242 46.7485L150.568 46.0184L150.631 45.9362L152.627 41.4277H153.088L150.667 46.8397C150.541 47.1318 150.402 47.3599 150.251 47.5242C150.107 47.6946 149.947 47.8163 149.773 47.8893C149.598 47.9623 149.405 47.9988 149.195 47.9988ZM150.559 46.3104L148.373 41.4277H148.851L150.839 45.9088L150.559 46.3104Z" fill="white"/>
<path d="M145.705 46.2302C145.289 46.2302 144.913 46.1329 144.575 45.9382C144.244 45.7435 143.979 45.4636 143.781 45.0985C143.588 44.7335 143.491 44.3045 143.491 43.8117C143.491 43.3067 143.588 42.8747 143.781 42.5158C143.979 42.1568 144.244 41.8799 144.575 41.6852C144.913 41.4905 145.289 41.3932 145.705 41.3932C146.15 41.3932 146.548 41.4966 146.897 41.7035C147.252 41.9043 147.529 42.1872 147.728 42.5523C147.933 42.9112 148.035 43.331 148.035 43.8117C148.035 44.2863 147.933 44.7061 147.728 45.0712C147.529 45.4362 147.252 45.7222 146.897 45.9291C146.548 46.1298 146.15 46.2302 145.705 46.2302ZM143.338 46.1937V39.4219H143.79V42.9721L143.699 43.8026L143.771 44.6331V46.1937H143.338ZM145.678 45.8195C146.039 45.8195 146.364 45.7374 146.653 45.5731C146.942 45.4028 147.168 45.1655 147.331 44.8613C147.499 44.557 147.584 44.2072 147.584 43.8117C147.584 43.4101 147.499 43.0603 147.331 42.7622C147.168 42.4579 146.942 42.2237 146.653 42.0594C146.364 41.8891 146.039 41.8039 145.678 41.8039C145.316 41.8039 144.991 41.8891 144.702 42.0594C144.419 42.2237 144.193 42.4579 144.024 42.7622C143.862 43.0603 143.781 43.4101 143.781 43.8117C143.781 44.2072 143.862 44.557 144.024 44.8613C144.193 45.1655 144.419 45.4028 144.702 45.5731C144.991 45.7374 145.316 45.8195 145.678 45.8195Z" fill="white"/>
<path d="M136.739 46.2302C136.299 46.2302 135.902 46.1298 135.546 45.9291C135.197 45.7222 134.92 45.4362 134.715 45.0712C134.511 44.7061 134.408 44.2863 134.408 43.8117C134.408 43.331 134.511 42.9112 134.715 42.5523C134.92 42.1872 135.197 41.9043 135.546 41.7035C135.902 41.4966 136.299 41.3932 136.739 41.3932C137.154 41.3932 137.528 41.4905 137.859 41.6852C138.196 41.8799 138.461 42.1568 138.654 42.5158C138.853 42.8747 138.952 43.3067 138.952 43.8117C138.952 44.3045 138.856 44.7335 138.663 45.0985C138.47 45.4636 138.205 45.7435 137.868 45.9382C137.537 46.1329 137.16 46.2302 136.739 46.2302ZM136.766 45.8195C137.127 45.8195 137.449 45.7374 137.732 45.5731C138.022 45.4028 138.247 45.1655 138.41 44.8613C138.579 44.557 138.663 44.2072 138.663 43.8117C138.663 43.4101 138.579 43.0603 138.41 42.7622C138.247 42.4579 138.022 42.2237 137.732 42.0594C137.449 41.8891 137.127 41.8039 136.766 41.8039C136.405 41.8039 136.079 41.8891 135.79 42.0594C135.507 42.2237 135.281 42.4579 135.113 42.7622C134.95 43.0603 134.869 43.4101 134.869 43.8117C134.869 44.2072 134.95 44.557 135.113 44.8613C135.281 45.1655 135.507 45.4028 135.79 45.5731C136.079 45.7374 136.405 45.8195 136.766 45.8195ZM138.672 46.1937V44.6331L138.753 43.8026L138.663 42.9721V39.4219H139.115V46.1937H138.672Z" fill="white"/>
<path d="M131.448 46.2296C130.972 46.2296 130.55 46.1262 130.183 45.9193C129.822 45.7124 129.535 45.4265 129.325 45.0614C129.12 44.6964 129.018 44.2796 129.018 43.8111C129.018 43.3365 129.114 42.9197 129.307 42.5608C129.505 42.1957 129.776 41.9097 130.12 41.7029C130.463 41.496 130.848 41.3926 131.276 41.3926C131.703 41.3926 132.086 41.493 132.423 41.6938C132.766 41.8945 133.034 42.1775 133.227 42.5425C133.426 42.9015 133.525 43.3183 133.525 43.7928C133.525 43.8111 133.522 43.8324 133.516 43.8567C133.516 43.875 133.516 43.8963 133.516 43.9206H129.352V43.5647H133.272L133.092 43.7381C133.098 43.3669 133.019 43.0353 132.857 42.7433C132.7 42.4452 132.486 42.214 132.215 42.0497C131.944 41.8793 131.631 41.7941 131.276 41.7941C130.927 41.7941 130.613 41.8793 130.336 42.0497C130.065 42.214 129.852 42.4452 129.695 42.7433C129.538 43.0353 129.46 43.37 129.46 43.7472V43.8293C129.46 44.2187 129.545 44.5656 129.713 44.8698C129.888 45.1679 130.126 45.4021 130.427 45.5725C130.728 45.7368 131.071 45.8189 131.457 45.8189C131.758 45.8189 132.038 45.7642 132.297 45.6546C132.562 45.5451 132.784 45.3778 132.965 45.1527L133.227 45.4539C133.022 45.7094 132.763 45.9041 132.45 46.038C132.143 46.1657 131.809 46.2296 131.448 46.2296Z" fill="white"/>
<path d="M126.102 46.1931V41.4291H126.535V42.7342L126.49 42.5881C126.623 42.2048 126.846 41.9097 127.159 41.7029C127.472 41.496 127.864 41.3926 128.333 41.3926V41.8398C128.315 41.8398 128.297 41.8398 128.279 41.8398C128.261 41.8337 128.243 41.8306 128.225 41.8306C127.701 41.8306 127.291 41.998 126.996 42.3326C126.701 42.6612 126.553 43.1205 126.553 43.7107V46.1931H126.102Z" fill="white"/>
<path d="M122.627 46.2296C122.151 46.2296 121.73 46.1262 121.363 45.9193C121.001 45.7124 120.715 45.4265 120.504 45.0614C120.3 44.6964 120.197 44.2796 120.197 43.8111C120.197 43.3365 120.294 42.9197 120.486 42.5608C120.685 42.1957 120.956 41.9097 121.299 41.7029C121.643 41.496 122.028 41.3926 122.456 41.3926C122.883 41.3926 123.266 41.493 123.603 41.6938C123.946 41.8945 124.214 42.1775 124.407 42.5425C124.606 42.9015 124.705 43.3183 124.705 43.7928C124.705 43.8111 124.702 43.8324 124.696 43.8567C124.696 43.875 124.696 43.8963 124.696 43.9206H120.531V43.5647H124.452L124.271 43.7381C124.277 43.3669 124.199 43.0353 124.036 42.7433C123.88 42.4452 123.666 42.214 123.395 42.0497C123.124 41.8793 122.811 41.7941 122.456 41.7941C122.106 41.7941 121.793 41.8793 121.516 42.0497C121.245 42.214 121.031 42.4452 120.875 42.7433C120.718 43.0353 120.64 43.37 120.64 43.7472V43.8293C120.64 44.2187 120.724 44.5656 120.893 44.8698C121.067 45.1679 121.305 45.4021 121.606 45.5725C121.908 45.7368 122.251 45.8189 122.636 45.8189C122.937 45.8189 123.217 45.7642 123.476 45.6546C123.741 45.5451 123.964 45.3778 124.145 45.1527L124.407 45.4539C124.202 45.7094 123.943 45.9041 123.63 46.038C123.323 46.1657 122.989 46.2296 122.627 46.2296Z" fill="white"/>
<path d="M113.974 46.1918L112.186 41.4277H112.619L114.281 45.9362H114.092L115.799 41.4277H116.187L117.886 45.9362H117.687L119.376 41.4277H119.792L118.003 46.1918H117.578L115.916 41.8658H116.061L114.39 46.1918H113.974Z" fill="white"/>
<path d="M109.428 46.2296C108.976 46.2296 108.573 46.1262 108.218 45.9193C107.868 45.7124 107.588 45.4265 107.377 45.0614C107.173 44.6964 107.07 44.2796 107.07 43.8111C107.07 43.3365 107.173 42.9197 107.377 42.5608C107.588 42.1957 107.868 41.9097 108.218 41.7029C108.573 41.496 108.976 41.3926 109.428 41.3926C109.88 41.3926 110.283 41.496 110.638 41.7029C110.994 41.9097 111.274 42.1957 111.479 42.5608C111.683 42.9197 111.786 43.3365 111.786 43.8111C111.786 44.2796 111.683 44.6964 111.479 45.0614C111.274 45.4265 110.994 45.7124 110.638 45.9193C110.283 46.1262 109.88 46.2296 109.428 46.2296ZM109.428 45.8189C109.789 45.8189 110.115 45.7368 110.404 45.5725C110.693 45.4021 110.918 45.1649 111.081 44.8606C111.244 44.5564 111.325 44.2066 111.325 43.8111C111.325 43.4095 111.244 43.0597 111.081 42.7615C110.918 42.4573 110.693 42.2231 110.404 42.0588C110.115 41.8884 109.789 41.8033 109.428 41.8033C109.067 41.8033 108.741 41.8884 108.452 42.0588C108.169 42.2231 107.944 42.4573 107.775 42.7615C107.612 43.0597 107.531 43.4095 107.531 43.8111C107.531 44.2066 107.612 44.5564 107.775 44.8606C107.944 45.1649 108.169 45.4021 108.452 45.5725C108.741 45.7368 109.067 45.8189 109.428 45.8189Z" fill="white"/>
<path d="M101.387 46.1932V39.8047H103.654C104.184 39.8047 104.639 39.8899 105.018 40.0602C105.397 40.2306 105.69 40.477 105.894 40.7995C106.099 41.1159 106.201 41.5022 106.201 41.9585C106.201 42.4027 106.099 42.786 105.894 43.1085C105.69 43.4309 105.397 43.6774 105.018 43.8477C104.639 44.0181 104.184 44.1033 103.654 44.1033H101.64L101.847 43.8842V46.1932H101.387ZM101.847 43.9116L101.64 43.6834H103.654C104.335 43.6834 104.849 43.5344 105.199 43.2362C105.554 42.932 105.732 42.5061 105.732 41.9585C105.732 41.4049 105.554 40.979 105.199 40.6808C104.849 40.3766 104.335 40.2245 103.654 40.2245H101.64L101.847 39.9963V43.9116Z" fill="white"/>
<rect x="172.234" width="3.66456" height="32" fill="#0062F8"/>
<rect x="180.785" width="3.66456" height="32" fill="#03C988"/>
<rect x="189.336" width="3.66456" height="32" fill="#FFC91F"/>
</svg>
