<svg width="630" height="635" viewBox="0 0 630 635" fill="none" xmlns="http://www.w3.org/2000/svg">
<g clip-path="url(#clip0_145_145)">
<path d="M3.47109 408.271C13.4565 365.581 46.1116 332.071 87.6811 321.822C116.261 314.776 143.681 318.557 166.858 329.975C174.545 333.763 183.679 329.476 185.809 320.997C206.296 239.445 278.402 179.197 364.212 179.197C465.966 179.197 548.451 263.906 548.451 368.402C548.451 371.175 548.396 374.965 548.349 378.6C548.709 386.415 552.03 389.733 556.991 390.566C596.858 394.827 628.189 428.577 629.928 470.206C631.925 518.006 594.041 557.607 547.454 557.607H116.53C42.7627 557.607 -14.9962 487.215 3.47109 408.271Z" fill="#0062F8"/>
<path opacity="0.21" d="M36.8462 424.268C45.7628 386.152 74.9174 356.23 112.035 347.082C137.554 340.791 162.035 344.168 182.728 354.362C189.591 357.743 197.747 353.915 199.649 346.345C217.941 273.528 282.321 219.735 358.939 219.735C449.79 219.735 523.439 295.37 523.439 388.67C523.439 391.146 523.39 394.53 523.349 397.775C523.67 404.751 526.637 407.715 531.065 408.459C566.66 412.265 594.634 442.4 596.188 479.568C597.97 522.247 564.146 557.605 522.55 557.605H137.791C71.9263 557.605 20.3556 494.756 36.8439 424.268H36.8462Z" fill="#F5F9FF"/>
<path d="M431.212 153.264C431.087 153.264 430.96 153.235 430.843 153.169C430.474 152.965 430.342 152.5 430.546 152.13C431.037 151.246 431.513 150.357 431.975 149.459C432.167 149.085 432.627 148.94 433.003 149.13C433.376 149.323 433.524 149.783 433.331 150.16C432.862 151.069 432.38 151.974 431.882 152.87C431.744 153.122 431.483 153.262 431.214 153.262L431.212 153.264Z" fill="#B3D1FF"/>
<path d="M342.041 205.833C341.59 205.833 341.142 205.831 340.691 205.824C340.27 205.817 339.935 205.472 339.94 205.051C339.946 204.633 340.286 204.298 340.703 204.298H340.714C342.686 204.325 344.676 204.291 346.646 204.202C347.038 204.175 347.423 204.509 347.441 204.93C347.461 205.352 347.135 205.708 346.714 205.726C345.165 205.797 343.594 205.833 342.043 205.833H342.041ZM331.009 205.236C330.982 205.236 330.955 205.237 330.928 205.232C328.938 205.017 326.929 204.74 324.964 204.409C324.549 204.338 324.269 203.944 324.339 203.529C324.409 203.114 324.803 202.83 325.217 202.903C327.156 203.229 329.132 203.502 331.095 203.715C331.514 203.76 331.818 204.137 331.772 204.556C331.729 204.948 331.399 205.236 331.016 205.236H331.009ZM356.346 204.828C355.973 204.828 355.647 204.552 355.592 204.171C355.534 203.753 355.823 203.368 356.24 203.309C358.192 203.034 360.159 202.696 362.089 202.306C362.498 202.225 362.904 202.492 362.987 202.905C363.069 203.318 362.802 203.722 362.39 203.805C360.431 204.2 358.434 204.543 356.453 204.821C356.417 204.826 356.38 204.828 356.346 204.828ZM315.599 202.361C315.533 202.361 315.467 202.352 315.402 202.334C313.47 201.817 311.53 201.236 309.633 200.608C309.232 200.476 309.017 200.043 309.148 199.644C309.279 199.245 309.709 199.027 310.11 199.159C311.978 199.778 313.889 200.349 315.794 200.86C316.201 200.968 316.441 201.386 316.332 201.794C316.242 202.136 315.934 202.361 315.597 202.361H315.599ZM371.657 201.447C371.329 201.447 371.028 201.234 370.928 200.905C370.806 200.501 371.035 200.075 371.438 199.952C373.326 199.379 375.219 198.744 377.064 198.063C377.458 197.918 377.898 198.12 378.042 198.517C378.187 198.914 377.986 199.351 377.59 199.497C375.717 200.188 373.797 200.832 371.879 201.415C371.804 201.438 371.732 201.447 371.657 201.447ZM300.809 197.154C300.707 197.154 300.603 197.133 300.503 197.088C298.671 196.278 296.842 195.405 295.069 194.494C294.695 194.301 294.548 193.841 294.738 193.466C294.931 193.092 295.388 192.945 295.764 193.135C297.512 194.033 299.312 194.893 301.117 195.691C301.502 195.861 301.676 196.312 301.506 196.698C301.379 196.984 301.101 197.154 300.809 197.154ZM386.266 195.746C385.983 195.746 385.709 195.587 385.578 195.312C385.395 194.934 385.555 194.476 385.933 194.294C387.706 193.439 389.479 192.518 391.202 191.557C391.571 191.353 392.033 191.484 392.239 191.854C392.443 192.221 392.312 192.688 391.943 192.893C390.195 193.868 388.395 194.802 386.595 195.671C386.488 195.723 386.375 195.746 386.264 195.746H386.266ZM287.001 189.729C286.861 189.729 286.718 189.69 286.591 189.609C284.909 188.527 283.236 187.382 281.621 186.205C281.282 185.957 281.207 185.479 281.454 185.139C281.703 184.799 282.178 184.724 282.518 184.971C284.108 186.13 285.754 187.257 287.413 188.323C287.767 188.55 287.871 189.024 287.644 189.377C287.499 189.604 287.253 189.729 287.001 189.729ZM399.822 187.851C399.58 187.851 399.342 187.735 399.195 187.522C398.955 187.175 399.043 186.699 399.39 186.461C401.011 185.341 402.623 184.157 404.177 182.943C404.509 182.685 404.987 182.744 405.248 183.077C405.506 183.411 405.447 183.889 405.114 184.15C403.536 185.381 401.903 186.581 400.257 187.72C400.124 187.81 399.974 187.856 399.825 187.856L399.822 187.851ZM274.505 180.261C274.324 180.261 274.145 180.197 274 180.07C272.508 178.748 271.031 177.36 269.61 175.943C269.311 175.646 269.311 175.162 269.607 174.863C269.904 174.564 270.386 174.564 270.685 174.861C272.084 176.256 273.54 177.623 275.012 178.927C275.327 179.206 275.356 179.689 275.078 180.004C274.926 180.174 274.718 180.261 274.507 180.261H274.505ZM412.018 177.968C411.816 177.968 411.612 177.886 411.463 177.727C411.173 177.421 411.189 176.938 411.495 176.648C412.93 175.292 414.341 173.879 415.69 172.448C415.98 172.142 416.462 172.128 416.768 172.416C417.074 172.706 417.087 173.189 416.8 173.496C415.43 174.949 413.997 176.383 412.541 177.759C412.394 177.897 412.206 177.968 412.018 177.968ZM263.589 168.987C263.369 168.987 263.154 168.894 263.002 168.713C261.725 167.177 260.473 165.581 259.285 163.968C259.035 163.628 259.106 163.152 259.445 162.9C259.787 162.651 260.263 162.723 260.512 163.061C261.682 164.651 262.916 166.223 264.175 167.737C264.445 168.062 264.402 168.543 264.078 168.812C263.935 168.93 263.763 168.989 263.591 168.989L263.589 168.987ZM422.569 166.356C422.406 166.356 422.241 166.304 422.103 166.195C421.77 165.937 421.711 165.456 421.969 165.125C423.183 163.562 424.362 161.95 425.474 160.331C425.714 159.984 426.19 159.895 426.534 160.133C426.88 160.374 426.969 160.848 426.731 161.195C425.601 162.839 424.405 164.476 423.171 166.062C423.022 166.254 422.796 166.356 422.569 166.356ZM254.507 156.187C254.249 156.187 253.995 156.056 253.853 155.818C252.82 154.094 251.828 152.325 250.904 150.556C250.71 150.182 250.855 149.722 251.228 149.527C251.6 149.332 252.062 149.477 252.256 149.851C253.164 151.593 254.14 153.334 255.159 155.033C255.376 155.394 255.259 155.863 254.899 156.081C254.776 156.156 254.641 156.19 254.507 156.19V156.187ZM247.499 142.14C247.198 142.14 246.913 141.961 246.793 141.664C246.039 139.804 245.332 137.902 244.694 136.01C244.56 135.611 244.773 135.178 245.171 135.042C245.568 134.906 246.002 135.121 246.138 135.52C246.768 137.382 247.463 139.255 248.208 141.088C248.366 141.478 248.178 141.925 247.789 142.083C247.696 142.122 247.599 142.14 247.501 142.14H247.499Z" fill="#B3D1FF"/>
<path d="M242.726 127.141C242.38 127.141 242.067 126.903 241.986 126.551C241.752 125.551 241.533 124.551 241.329 123.546C241.245 123.133 241.512 122.73 241.924 122.646C242.337 122.562 242.74 122.827 242.823 123.242C243.025 124.231 243.24 125.218 243.471 126.202C243.566 126.612 243.312 127.023 242.903 127.12C242.844 127.134 242.785 127.141 242.728 127.141H242.726Z" fill="#B3D1FF"/>
<path d="M255.65 49.2831C255.512 49.2831 255.372 49.2446 255.245 49.1652C254.89 48.9407 254.783 48.469 255.007 48.1129C255.551 47.2488 256.11 46.3893 256.681 45.5366C256.916 45.1874 257.389 45.0921 257.738 45.328C258.089 45.5638 258.18 46.0378 257.946 46.3871C257.383 47.2284 256.832 48.0743 256.296 48.9271C256.151 49.1584 255.904 49.2831 255.65 49.2831Z" fill="#B3D1FF"/>
<path d="M439.886 74.8599C439.556 74.8599 439.252 74.6444 439.155 74.3111C438.573 72.3221 437.921 70.3242 437.217 68.3738C437.074 67.9769 437.278 67.5392 437.674 67.3963C438.068 67.2512 438.507 67.4576 438.65 67.8545C439.365 69.8343 440.027 71.8618 440.62 73.8824C440.738 74.2884 440.507 74.7125 440.104 74.8304C440.031 74.8508 439.961 74.8599 439.888 74.8599H439.886ZM433.979 59.4498C433.693 59.4498 433.422 59.291 433.29 59.0166C432.391 57.1434 431.425 55.2792 430.415 53.4717C430.209 53.1043 430.34 52.6394 430.709 52.433C431.076 52.2289 431.542 52.3582 431.746 52.7279C432.77 54.5603 433.752 56.4539 434.665 58.3567C434.848 58.7377 434.687 59.1935 434.309 59.3749C434.203 59.4271 434.09 59.4498 433.979 59.4498ZM425.653 45.2008C425.413 45.2008 425.175 45.0874 425.028 44.8743C423.842 43.1779 422.587 41.4929 421.297 39.8691C421.034 39.538 421.088 39.0595 421.419 38.7964C421.749 38.5333 422.227 38.5878 422.49 38.9189C423.801 40.5699 425.076 42.2776 426.278 44.0011C426.52 44.3459 426.437 44.8221 426.09 45.0648C425.956 45.1577 425.805 45.2031 425.653 45.2031V45.2008ZM263.43 38.5379C263.258 38.5379 263.086 38.4812 262.944 38.361C262.62 38.0911 262.574 37.6103 262.844 37.286C264.182 35.6736 265.59 34.0725 267.035 32.5326C267.323 32.2242 267.805 32.2106 268.113 32.4986C268.419 32.7889 268.434 33.2719 268.147 33.5781C266.725 35.0953 265.335 36.6714 264.017 38.2612C263.865 38.4426 263.65 38.5379 263.43 38.5379ZM415.149 32.4804C414.95 32.4804 414.751 32.4033 414.601 32.2491C413.166 30.7659 411.66 29.3032 410.125 27.9039C409.815 27.6204 409.792 27.1374 410.075 26.8244C410.358 26.5114 410.843 26.4887 411.153 26.7745C412.711 28.1964 414.239 29.6819 415.695 31.1855C415.989 31.4871 415.98 31.9724 415.679 32.265C415.532 32.4079 415.339 32.4804 415.149 32.4804ZM274.94 26.7223C274.727 26.7223 274.516 26.6339 274.367 26.4615C274.09 26.144 274.122 25.661 274.439 25.3843C276.026 23.9964 277.673 22.6425 279.335 21.3566C279.67 21.1003 280.147 21.1615 280.403 21.4949C280.659 21.8283 280.598 22.3091 280.265 22.5654C278.628 23.8308 277.005 25.1643 275.442 26.5318C275.297 26.6588 275.118 26.7201 274.94 26.7201V26.7223ZM402.761 21.6015C402.603 21.6015 402.444 21.5516 402.306 21.4518C400.644 20.2159 398.924 19.0162 397.189 17.8845C396.836 17.6554 396.736 17.1815 396.967 16.8277C397.196 16.4739 397.667 16.3741 398.022 16.6054C399.782 17.753 401.53 18.9708 403.217 20.2272C403.554 20.4789 403.624 20.9574 403.373 21.2954C403.223 21.4972 402.992 21.6038 402.759 21.6038L402.761 21.6015ZM288.185 16.8912C287.932 16.8912 287.683 16.7642 287.538 16.5306C287.316 16.1723 287.425 15.7028 287.782 15.4783C289.564 14.367 291.408 13.2944 293.26 12.292C293.631 12.0901 294.093 12.2307 294.292 12.6004C294.491 12.9723 294.353 13.435 293.984 13.6345C292.159 14.621 290.343 15.6779 288.586 16.771C288.462 16.8504 288.321 16.8866 288.183 16.8866L288.185 16.8912ZM388.782 12.8703C388.664 12.8703 388.544 12.843 388.433 12.7864C386.595 11.8361 384.702 10.9335 382.807 10.0967C382.422 9.92659 382.245 9.47755 382.415 9.08975C382.582 8.70421 383.033 8.52732 383.42 8.69741C385.345 9.54332 387.267 10.4618 389.133 11.4256C389.506 11.6184 389.654 12.0788 389.461 12.453C389.325 12.716 389.058 12.8657 388.782 12.8657V12.8703ZM302.842 9.33014C302.543 9.33014 302.26 9.15325 302.138 8.86069C301.977 8.47062 302.16 8.02385 302.55 7.86283C304.486 7.05774 306.478 6.29801 308.471 5.61085C308.872 5.47478 309.304 5.68569 309.44 6.08257C309.576 6.48171 309.365 6.91714 308.969 7.05321C307.006 7.7313 305.045 8.47742 303.136 9.27117C303.041 9.30973 302.942 9.33014 302.844 9.33014H302.842ZM373.573 6.52026C373.496 6.52026 373.417 6.50892 373.337 6.48398C371.37 5.84444 369.355 5.25933 367.348 4.74226C366.941 4.63794 366.694 4.22066 366.8 3.81244C366.905 3.40423 367.328 3.1593 367.729 3.26362C369.764 3.78976 371.811 4.38394 373.808 5.03255C374.209 5.16182 374.429 5.59271 374.297 5.99412C374.193 6.31616 373.894 6.52253 373.573 6.52253V6.52026ZM318.524 4.25241C318.178 4.25241 317.865 4.01428 317.784 3.66503C317.689 3.25455 317.942 2.84407 318.352 2.74655C320.401 2.26349 322.491 1.83714 324.559 1.48335C324.982 1.41532 325.367 1.69199 325.439 2.10701C325.512 2.52203 325.231 2.91664 324.817 2.98921C322.779 3.33846 320.723 3.75801 318.703 4.23426C318.644 4.24787 318.585 4.25467 318.527 4.25467L318.524 4.25241ZM357.54 2.71253C357.501 2.71253 357.463 2.71026 357.424 2.70346C355.377 2.38823 353.294 2.13423 351.231 1.94599C350.813 1.90744 350.502 1.53551 350.541 1.11596C350.579 0.696406 350.942 0.385709 351.37 0.424263C353.462 0.614763 355.577 0.873299 357.653 1.19307C358.07 1.25657 358.355 1.64664 358.291 2.06392C358.235 2.44266 357.909 2.71253 357.54 2.71253ZM334.82 1.77591C334.424 1.77591 334.089 1.46748 334.062 1.06607C334.032 0.644245 334.349 0.27912 334.768 0.251906C336.862 0.104495 338.989 0.0205843 341.094 0.00244141H341.101C341.52 0.00244141 341.86 0.340352 341.864 0.759906C341.869 1.18173 341.529 1.52644 341.108 1.53098C339.034 1.54912 336.937 1.63076 334.877 1.77591C334.859 1.77591 334.841 1.77591 334.822 1.77591H334.82Z" fill="#B3D1FF"/>
<path d="M442.784 87.8594C442.415 87.8594 442.092 87.5895 442.033 87.2131C441.879 86.2152 441.709 85.2219 441.521 84.2263C441.444 83.8113 441.716 83.4121 442.13 83.335C442.542 83.2625 442.943 83.5323 443.02 83.9451C443.208 84.9543 443.38 85.9635 443.538 86.9749C443.604 87.3922 443.319 87.7823 442.902 87.8481C442.861 87.8549 442.823 87.8571 442.784 87.8571V87.8594Z" fill="#B3D1FF"/>
<path d="M420.33 100.634C420.371 100.113 420.076 99.6228 419.596 99.4141L405.931 93.4678C404.876 86.5803 402.716 79.8108 399.424 73.4404L406.964 60.5816C407.229 60.1303 407.179 59.5611 406.839 59.1642L395.224 45.5616C394.884 45.1647 394.329 45.0264 393.845 45.2169L379.994 50.687C374.22 46.4438 367.878 43.2575 361.249 41.1461L357.501 26.7044C357.37 26.1987 356.933 25.8313 356.412 25.7904L338.595 24.4002C338.074 24.3594 337.585 24.6542 337.376 25.135L331.44 38.8215C324.563 39.8784 317.804 42.0419 311.444 45.3394L298.606 37.7851C298.155 37.5198 297.587 37.5697 297.19 37.9099L283.609 49.5462C283.213 49.8864 283.075 50.442 283.268 50.9274L288.729 64.7999C284.493 70.5829 281.311 76.9329 279.203 83.5754L264.782 87.3287C264.277 87.4603 263.91 87.898 263.87 88.4196L262.482 106.265C262.441 106.787 262.735 107.277 263.215 107.485L276.88 113.432C277.935 120.319 280.095 127.089 283.388 133.459L275.845 146.318C275.58 146.769 275.63 147.339 275.97 147.735L287.588 161.338C287.927 161.735 288.482 161.873 288.967 161.68L302.817 156.21C308.591 160.454 314.933 163.64 321.563 165.751L325.31 180.193C325.442 180.699 325.879 181.066 326.399 181.107L344.217 182.497C344.738 182.538 345.227 182.243 345.435 181.762L351.372 168.076C358.248 167.019 365.007 164.855 371.368 161.558L384.206 169.112C384.656 169.378 385.225 169.328 385.621 168.987L399.202 157.351C399.598 157.011 399.736 156.458 399.546 155.97L394.085 142.097C398.321 136.314 401.5 129.962 403.611 123.322L418.029 119.569C418.534 119.437 418.901 118.999 418.942 118.478L420.33 100.632V100.634Z" fill="#B3D1FF"/>
<path opacity="0.7" d="M341.371 120.494C337.881 120.494 334.485 119.419 331.58 117.36C323.922 111.933 322.102 101.278 327.52 93.6085C330.144 89.8938 334.057 87.424 338.536 86.6575C343.014 85.891 347.525 86.9161 351.231 89.5445C354.94 92.1752 357.406 96.0918 358.171 100.578C358.939 105.063 357.916 109.581 355.289 113.296C352.665 117.011 348.752 119.48 344.273 120.247C343.304 120.412 342.331 120.494 341.366 120.494H341.371ZM341.439 88.6986C340.603 88.6986 339.763 88.7712 338.923 88.914C335.047 89.5785 331.659 91.7148 329.388 94.9307C324.697 101.569 326.273 110.792 332.9 115.489C336.111 117.766 340.012 118.65 343.891 117.988C347.767 117.323 351.152 115.187 353.426 111.971C355.699 108.756 356.584 104.846 355.921 100.963C355.257 97.0806 353.122 93.6879 349.914 91.4132C347.398 89.6307 344.459 88.6986 341.439 88.6986Z" fill="white"/>
<path opacity="0.7" d="M341.097 147.792C339.931 147.792 338.762 147.747 337.587 147.656C325.799 146.738 315.074 141.275 307.389 132.273C300.467 124.17 296.758 114.074 296.758 103.526C296.758 102.358 296.803 101.186 296.894 100.011C297.813 88.2044 303.265 77.4615 312.252 69.7644C321.237 62.0673 332.676 58.3344 344.466 59.2529C356.254 60.1714 366.979 65.6347 374.664 74.6358C376.716 77.0374 378.511 79.6568 380.001 82.4145L377.99 83.5031C376.58 80.886 374.875 78.4027 372.928 76.1235C365.639 67.5896 355.468 62.4075 344.289 61.5366C333.111 60.6726 322.26 64.2059 313.74 71.5039C305.22 78.8041 300.048 88.9913 299.176 100.188C299.09 101.304 299.047 102.415 299.047 103.521C299.047 113.525 302.566 123.1 309.13 130.786C316.419 139.32 326.59 144.499 337.768 145.373C348.956 146.246 359.797 142.706 368.318 135.405C374.1 130.45 378.427 124.032 380.83 116.843L382.999 117.571C380.465 125.152 375.903 131.922 369.803 137.147C361.713 144.078 351.632 147.795 341.099 147.795L341.097 147.792Z" fill="white"/>
<path d="M517.195 178.326C517.063 178.326 516.93 178.292 516.807 178.22C516.445 178.004 516.325 177.537 516.54 177.174C517.052 176.308 517.543 175.423 517.996 174.543C518.189 174.169 518.648 174.024 519.024 174.215C519.398 174.407 519.545 174.868 519.353 175.244C518.886 176.149 518.381 177.061 517.854 177.952C517.711 178.192 517.457 178.326 517.197 178.326H517.195Z" fill="#B3D1FF"/>
<path d="M467.997 203.88C467.977 203.88 467.956 203.88 467.936 203.88C465.869 203.717 463.79 203.431 461.763 203.03C461.351 202.948 461.082 202.547 461.163 202.132C461.245 201.719 461.648 201.449 462.058 201.531C464.03 201.921 466.047 202.2 468.056 202.359C468.475 202.393 468.789 202.76 468.755 203.179C468.724 203.581 468.391 203.883 467.997 203.883V203.88ZM477.966 203.719C477.584 203.719 477.253 203.431 477.21 203.041C477.163 202.622 477.464 202.245 477.883 202.198C479.889 201.973 481.897 201.628 483.849 201.172C484.257 201.073 484.669 201.331 484.764 201.744C484.859 202.154 484.605 202.565 484.193 202.66C482.182 203.13 480.115 203.483 478.05 203.717C478.021 203.719 477.994 203.722 477.964 203.722L477.966 203.719ZM452.353 200.184C452.258 200.184 452.161 200.166 452.066 200.127C450.15 199.347 448.257 198.444 446.441 197.442C446.072 197.238 445.939 196.773 446.142 196.405C446.346 196.036 446.808 195.902 447.177 196.106C448.941 197.079 450.779 197.957 452.641 198.714C453.03 198.873 453.218 199.32 453.06 199.71C452.94 200.007 452.654 200.186 452.353 200.186V200.184ZM493.477 199.499C493.184 199.499 492.906 199.331 492.779 199.047C492.607 198.662 492.779 198.211 493.164 198.038C495.003 197.215 496.81 196.274 498.537 195.242C498.897 195.024 499.366 195.144 499.583 195.505C499.798 195.868 499.681 196.335 499.321 196.553C497.543 197.616 495.68 198.585 493.789 199.433C493.687 199.478 493.583 199.499 493.479 199.499H493.477ZM438.582 191.899C438.41 191.899 438.236 191.84 438.095 191.722C436.51 190.398 434.982 188.96 433.553 187.45C433.263 187.143 433.277 186.66 433.58 186.37C433.886 186.08 434.37 186.093 434.658 186.397C436.046 187.865 437.531 189.259 439.071 190.548C439.395 190.817 439.438 191.298 439.168 191.623C439.019 191.804 438.802 191.897 438.582 191.897V191.899ZM506.967 190.747C506.759 190.747 506.548 190.661 506.399 190.493C506.118 190.178 506.145 189.695 506.46 189.416L506.908 189.01C508.249 187.785 509.539 186.477 510.742 185.125C511.02 184.808 511.502 184.78 511.817 185.062C512.132 185.343 512.161 185.824 511.88 186.139C510.644 187.531 509.317 188.878 507.936 190.139L507.476 190.554C507.332 190.684 507.15 190.747 506.969 190.747H506.967ZM427.954 179.825C427.702 179.825 427.455 179.7 427.31 179.474C426.194 177.727 425.168 175.895 424.263 174.026C424.079 173.647 424.238 173.189 424.616 173.006C424.996 172.822 425.452 172.981 425.635 173.359C426.513 175.174 427.51 176.954 428.594 178.65C428.821 179.004 428.719 179.478 428.363 179.705C428.237 179.787 428.094 179.825 427.954 179.825Z" fill="#B3D1FF"/>
<path d="M421.471 165.062C421.134 165.062 420.826 164.835 420.735 164.492C420.472 163.499 420.235 162.485 420.031 161.478C419.947 161.066 420.212 160.662 420.626 160.578C421.039 160.494 421.442 160.759 421.525 161.174C421.725 162.152 421.956 163.138 422.209 164.102C422.318 164.51 422.076 164.928 421.668 165.037C421.602 165.055 421.537 165.062 421.473 165.062H421.471Z" fill="#B3D1FF"/>
<path d="M427.75 123.626C427.612 123.626 427.471 123.587 427.344 123.508C426.989 123.283 426.883 122.811 427.107 122.455C427.655 121.584 428.234 120.72 428.83 119.884C429.074 119.541 429.552 119.462 429.892 119.707C430.236 119.952 430.313 120.428 430.068 120.77C429.489 121.582 428.925 122.424 428.393 123.269C428.248 123.501 428.001 123.626 427.748 123.626H427.75Z" fill="#B3D1FF"/>
<path d="M520.347 131.05C520.05 131.05 519.769 130.876 519.645 130.586C518.873 128.762 517.983 126.964 517.002 125.24C516.794 124.875 516.921 124.408 517.288 124.199C517.652 123.991 518.118 124.118 518.327 124.485C519.337 126.258 520.251 128.111 521.048 129.989C521.214 130.377 521.033 130.826 520.643 130.991C520.546 131.032 520.446 131.053 520.344 131.053L520.347 131.05ZM512.03 117.579C511.815 117.579 511.6 117.489 511.45 117.312C511.061 116.854 510.662 116.402 510.255 115.953C509.324 114.933 508.344 113.937 507.336 112.994C507.028 112.706 507.012 112.223 507.3 111.914C507.587 111.606 508.07 111.59 508.378 111.878C509.412 112.849 510.422 113.871 511.38 114.924C511.799 115.384 512.211 115.849 512.61 116.321C512.881 116.643 512.843 117.123 512.524 117.398C512.381 117.52 512.204 117.579 512.03 117.579ZM435.878 113.663C435.677 113.663 435.475 113.583 435.326 113.427C435.036 113.121 435.047 112.638 435.351 112.347C435.659 112.053 435.971 111.76 436.288 111.472C437.479 110.383 438.734 109.338 440.015 108.363C440.35 108.107 440.828 108.172 441.082 108.508C441.338 108.844 441.272 109.322 440.937 109.576C439.691 110.524 438.473 111.54 437.316 112.597C437.008 112.878 436.705 113.164 436.404 113.45C436.257 113.59 436.066 113.66 435.878 113.66V113.663ZM500.095 107.188C499.957 107.188 499.814 107.149 499.687 107.07C498.014 106.011 496.262 105.038 494.48 104.181C494.099 103.997 493.941 103.544 494.122 103.163C494.303 102.782 494.756 102.621 495.139 102.804C496.973 103.686 498.777 104.687 500.5 105.777C500.856 106.004 500.962 106.474 500.738 106.832C500.593 107.061 500.346 107.188 500.093 107.188H500.095ZM448.812 104.551C448.531 104.551 448.262 104.396 448.128 104.126C447.94 103.748 448.094 103.29 448.472 103.104C450.295 102.196 452.192 101.387 454.113 100.693C454.511 100.552 454.946 100.756 455.088 101.153C455.231 101.55 455.025 101.988 454.629 102.131C452.761 102.804 450.918 103.591 449.149 104.471C449.041 104.526 448.925 104.551 448.81 104.551H448.812ZM485.608 100.854C485.543 100.854 485.477 100.845 485.411 100.829C483.5 100.321 481.537 99.9173 479.576 99.6315C479.16 99.5703 478.87 99.1825 478.931 98.7675C478.992 98.3502 479.375 98.0508 479.794 98.1211C481.811 98.4159 483.831 98.8287 485.801 99.3526C486.208 99.4614 486.451 99.8787 486.342 100.287C486.251 100.629 485.943 100.854 485.606 100.854H485.608ZM463.874 99.7358C463.505 99.7358 463.181 99.4682 463.122 99.0918C463.056 98.6745 463.339 98.2844 463.756 98.2186C465.764 97.9011 467.816 97.6948 469.858 97.6086C470.279 97.5995 470.635 97.917 470.651 98.3388C470.669 98.7607 470.343 99.1167 469.922 99.1326C467.938 99.2165 465.946 99.4161 463.994 99.7245C463.953 99.7313 463.912 99.7336 463.874 99.7336V99.7358Z" fill="#B3D1FF"/>
<path d="M523.877 143.442C523.507 143.442 523.184 143.172 523.125 142.796C522.971 141.809 522.787 140.814 522.577 139.838C522.489 139.426 522.749 139.02 523.161 138.931C523.58 138.843 523.978 139.106 524.067 139.516C524.282 140.521 524.472 141.546 524.631 142.56C524.696 142.977 524.411 143.367 523.994 143.433C523.953 143.44 523.915 143.442 523.877 143.442Z" fill="#B3D1FF"/>
<path d="M512.342 149.633C512.363 149.365 512.213 149.114 511.967 149.007L504.947 145.952C504.406 142.415 503.297 138.936 501.605 135.665L505.479 129.059C505.615 128.828 505.59 128.535 505.416 128.331L499.45 121.344C499.275 121.14 498.99 121.069 498.741 121.167L491.627 123.977C488.661 121.797 485.405 120.16 481.997 119.076L480.072 111.658C480.004 111.397 479.78 111.209 479.513 111.188L470.361 110.474C470.094 110.454 469.842 110.606 469.736 110.85L466.686 117.881C463.154 118.423 459.683 119.536 456.415 121.228L449.819 117.348C449.589 117.212 449.296 117.237 449.093 117.411L442.116 123.389C441.913 123.564 441.843 123.85 441.94 124.099L444.745 131.225C442.569 134.196 440.935 137.457 439.852 140.87L432.446 142.798C432.185 142.866 431.998 143.09 431.977 143.358L431.264 152.525C431.244 152.792 431.395 153.044 431.64 153.151L438.659 156.205C439.2 159.743 440.312 163.222 442.001 166.492L438.127 173.099C437.991 173.33 438.016 173.622 438.19 173.827L444.159 180.814C444.333 181.018 444.618 181.088 444.868 180.991L451.982 178.181C454.948 180.36 458.206 181.998 461.612 183.082L463.536 190.5C463.604 190.761 463.828 190.949 464.096 190.969L473.248 191.684C473.515 191.704 473.766 191.552 473.873 191.307L476.923 184.277C480.455 183.733 483.928 182.621 487.193 180.93L493.789 184.81C494.02 184.946 494.312 184.921 494.516 184.746L501.492 178.771C501.696 178.596 501.766 178.31 501.669 178.061L498.863 170.935C501.039 167.964 502.674 164.701 503.756 161.29L511.163 159.362C511.423 159.294 511.611 159.07 511.631 158.802L512.345 149.635L512.342 149.633Z" fill="#B3D1FF"/>
<path opacity="0.7" d="M471.781 160.392C469.874 160.392 468.017 159.805 466.43 158.68C462.246 155.713 461.252 149.892 464.211 145.703C465.647 143.673 467.784 142.324 470.229 141.904C472.677 141.485 475.141 142.045 477.167 143.481C479.194 144.918 480.541 147.057 480.96 149.508C481.379 151.96 480.819 154.427 479.386 156.457C477.951 158.487 475.815 159.836 473.368 160.256C472.838 160.347 472.308 160.392 471.781 160.392ZM471.81 144.063C469.611 144.063 467.444 145.095 466.079 147.025C463.847 150.184 464.596 154.575 467.75 156.809C469.279 157.893 471.14 158.315 472.981 157.997C474.826 157.682 476.438 156.664 477.518 155.135C478.6 153.604 479.022 151.742 478.705 149.896C478.39 148.048 477.373 146.433 475.847 145.351C474.62 144.481 473.207 144.063 471.808 144.063H471.81Z" fill="white"/>
<path opacity="0.7" d="M471.645 174.414C471.031 174.414 470.415 174.389 469.797 174.341C463.593 173.858 457.95 170.983 453.904 166.247C450.155 161.859 448.321 156.466 448.323 151.096C448.323 144.508 451.085 137.958 456.465 133.35C466.224 124.986 480.96 126.136 489.308 135.912C489.374 135.99 489.439 136.067 489.503 136.144C490.409 137.232 491.215 138.4 491.903 139.623C491.905 139.627 491.91 139.632 491.912 139.636C491.923 139.654 491.932 139.673 491.941 139.691C491.96 139.722 491.978 139.754 491.996 139.786C492.005 139.804 492.016 139.822 492.025 139.838C492.055 139.893 492.086 139.949 492.116 140.004L490.105 141.092C489.399 139.784 488.547 138.541 487.571 137.398C482.239 131.157 474.022 128.816 466.555 130.656C463.475 131.415 460.523 132.885 457.95 135.087C453.1 139.244 450.61 145.149 450.607 151.091C450.607 155.933 452.263 160.798 455.641 164.755C463.17 173.57 476.458 174.609 485.262 167.066C488.156 164.587 490.32 161.374 491.523 157.777L493.692 158.505C492.358 162.496 489.958 166.057 486.747 168.806C482.49 172.452 477.185 174.409 471.642 174.409L471.645 174.414Z" fill="white"/>
<g clip-path="url(#clip1_145_145)">
<path d="M299.425 297L282 267.346L286.945 264L305 294.06L299.425 297Z" fill="#1F2C40"/>
<path d="M327.314 203.288C327.314 203.288 321.008 201.708 320.49 192.24C319.961 182.772 327.314 183.026 327.314 183.026L335.45 178.286C335.45 178.286 342.539 166.707 360.399 170.916C378.26 175.126 380.354 198.017 388.502 214.335C396.65 230.654 404.786 244.861 404.786 257.489C404.786 270.117 396.385 273.807 396.385 273.807C396.385 273.807 397.167 265.389 393.232 254.86C393.232 254.86 395.591 268.018 391.92 271.962C391.92 271.962 389.032 254.86 376.431 246.695C363.829 238.529 353.587 208.534 353.587 208.534C353.587 208.534 340.457 192.409 330.744 194.061L324.702 195.376L327.326 203.276L327.314 203.288Z" fill="#1F2C40"/>
<path d="M353.575 208.559C353.575 208.559 340.445 192.433 330.732 194.086L324.69 195.4L327.314 203.3L331.779 214.878C331.779 214.878 338.603 236.455 345.439 238.301C352.276 240.146 358.04 235.671 358.04 235.671L363.817 248.564C366.971 244.886 373.097 244.029 373.097 244.029C362.072 233.416 353.575 208.559 353.575 208.559Z" fill="#FEBBBA"/>
<path d="M327.314 183.026C327.314 183.026 339.398 182.495 353.575 208.546C353.575 208.546 348.581 181.964 335.462 178.286L327.326 183.026H327.314Z" fill="#F0204E"/>
<path d="M358.04 235.659L362.048 232.897L359.136 238.107L358.04 235.659Z" fill="#CC9F80"/>
<path d="M400.261 349.935C401.645 339.08 405.183 322.497 404.786 301.776C404.569 290.21 402.872 277.92 401.428 269.297C399.093 272.625 396.385 273.819 396.385 273.819C396.385 273.819 397.167 265.401 393.232 254.872C393.232 254.872 395.591 268.03 391.92 271.974C391.92 271.974 389.032 254.872 376.431 246.707C375.299 245.971 374.192 245.066 373.097 244.017C373.097 244.017 366.971 244.668 363.817 248.552C363.817 248.552 359.485 253.81 361.254 266.643C361.254 266.643 355.826 273.349 348.894 280.453C341.961 287.557 345.5 298.013 346.884 309.073C348.268 320.121 347.534 329.999 344.741 345.388C341.949 360.778 337.616 383.874 337.616 383.874C337.616 383.874 344.513 382.885 357.114 387.432C369.715 391.967 381.341 388.216 390.006 383.681C398.672 379.146 403.197 377.566 403.197 377.566C403.197 377.566 398.864 360.79 400.249 349.935H400.261Z" fill="#F0204E"/>
<path d="M361.254 266.643C362.337 269.441 363.071 272.312 363.709 275.194C364.311 278.089 364.84 281.007 364.997 284.011C363.902 281.213 363.18 278.342 362.542 275.46C361.94 272.565 361.422 269.646 361.254 266.643Z" fill="#A54653"/>
<path d="M390.018 278.282C389.224 276.22 388.791 274.097 388.442 271.962C388.129 269.827 387.912 267.669 388.057 265.461C388.851 267.524 389.284 269.647 389.633 271.781C389.946 273.928 390.163 276.075 390.018 278.282Z" fill="#A54653"/>
<path d="M371.219 314.995C371.219 314.995 377.995 318.155 379.969 323.486" stroke="#1F2C40" stroke-miterlimit="10"/>
<path d="M329.36 294.673C329.36 294.673 319.912 289.933 313.209 290.729C306.517 291.513 298.826 291.235 298.044 292.659C297.262 294.082 297.262 295.662 299.621 295.867C299.621 295.867 298.838 298.038 299.813 300.607C300.8 303.176 304.339 308.108 308.082 308.506C311.825 308.904 326.195 307.517 326.195 307.517C326.195 307.517 346.282 324.101 354.755 329.227C363.228 334.353 378.188 343.037 388.43 339.093C398.672 335.149 395.326 317.576 394.147 306.528C392.967 295.481 390.006 278.306 390.006 278.306C390.006 278.306 384.29 288.57 364.997 284.035L371.219 315.019C371.219 315.019 360.869 309.893 352.793 306.143C344.717 302.392 329.36 294.697 329.36 294.697V294.673Z" fill="#FEBBBA"/>
<path d="M299.621 295.855C300.969 295.384 302.317 295.276 303.653 295.251C305.001 295.264 306.349 295.372 307.684 295.855C306.337 296.337 304.989 296.445 303.653 296.458C302.305 296.433 300.957 296.325 299.621 295.855Z" fill="#CC9F80"/>
<path d="M299.813 300.594C300.367 300.124 300.933 300.015 301.486 299.991C302.04 300.003 302.606 300.112 303.159 300.594C302.606 301.077 302.04 301.185 301.486 301.197C300.933 301.173 300.367 301.065 299.813 300.594Z" fill="#CC9F80"/>
<path d="M390.019 383.682C381.353 388.216 369.739 391.967 357.126 387.432C344.525 382.898 337.629 383.875 337.629 383.875C337.629 383.875 316.157 436.966 310.645 451.97C305.133 466.974 301.197 516.314 299.621 532.5C298.044 548.686 292.135 572.759 292.135 572.759C292.135 572.759 303.954 581.841 309.863 578.283C309.863 578.283 328.77 543.15 332.706 529.726C336.642 516.302 339.013 489.696 341.769 481.483C344.525 473.269 374.854 436.568 383.917 422.361C392.979 408.153 408.336 389.603 403.221 377.555C403.221 377.555 398.696 379.135 390.031 383.67L390.019 383.682Z" fill="#D1D8DA"/>
<path d="M424.873 521.44C422.117 503.289 414.631 488.285 412.272 476.839C410.31 467.323 403.992 411.458 401.909 392.86C397.926 402.593 389.657 413.351 383.905 422.361C380.065 428.379 372.423 438.414 364.672 448.629C370.449 463.174 380.715 489.153 383.507 496.969C387.443 508.017 399.262 528.158 400.838 544.73C402.415 561.313 404.22 584.205 404.22 584.205C404.22 584.205 418.169 591.707 424.861 585.785C424.861 585.785 427.617 539.604 424.861 521.44H424.873Z" fill="#BFC3C4"/>
<path d="M292.135 572.759C292.135 572.759 283.072 582.625 272.445 583.614C261.806 584.603 255.114 583.433 252.358 588.064C249.602 592.695 249.012 595.855 249.012 595.855C249.012 595.855 283.277 611.052 306.722 609.074C306.722 609.074 310.657 588.739 309.875 578.283C303.966 581.841 292.147 572.759 292.147 572.759H292.135Z" fill="#FFCB5B"/>
<path d="M424.957 584.205C424.897 585.206 424.873 585.785 424.873 585.785C418.181 591.706 404.232 584.205 404.232 584.205C404.232 584.205 402.427 593.672 386.083 600.39C369.739 607.096 367.175 608.483 368.162 617.167C368.162 617.167 403.618 622.293 430 615.394C430 615.394 427.617 591.115 424.969 584.205H424.957Z" fill="#FFCB5B"/>
</g>
<path d="M85.0993 601.992C85.0993 605.015 87.5709 607.488 90.5923 607.488H387.649C390.67 607.488 393.142 605.015 393.142 601.992L395.613 431.01C395.613 427.988 392.058 422.084 385.539 422.529L95.2224 415.005C91.4318 414.907 87.7665 416.367 85.0817 419.048C82.3968 421.727 80.9291 425.393 81.0172 429.185L85.0973 601.992H85.0993Z" fill="#1F2C40"/>
<path d="M90.5216 596.718C90.5216 599.581 92.8601 601.924 95.7192 601.924H380.484C383.343 601.924 385.682 599.581 385.682 596.718L388.014 441.5C387.74 432.159 379.565 428.803 374.608 429.001L96.3669 421.524C93.7036 421.451 91.1283 422.48 89.2418 424.364C87.3554 426.247 86.3182 428.827 86.3847 431.494L90.5236 596.718H90.5216Z" fill="#B3D1FF"/>
<path d="M62.1056 621.683H410.112C410.723 621.683 411.218 621.187 411.218 620.575V607.766C411.218 607.155 410.723 606.659 410.112 606.659H62.1056C61.495 606.659 61 607.155 61 607.766V620.575C61 621.187 61.495 621.683 62.1056 621.683Z" fill="#1F2C40"/>
<path d="M214.065 594.352H104.424C100.381 594.352 97.1048 591.069 97.1048 587.022V443.678C97.1048 439.519 100.555 436.192 104.705 436.351L214.347 440.553C218.278 440.704 221.386 443.94 221.386 447.88V587.022C221.386 591.071 218.108 594.352 214.067 594.352H214.065Z" fill="white"/>
<path opacity="0.51" d="M192.259 492.582H119.633C119.057 492.582 118.59 493.05 118.59 493.627V501.204C118.59 501.781 119.057 502.249 119.633 502.249H192.259C192.836 502.249 193.303 501.781 193.303 501.204V493.627C193.303 493.05 192.836 492.582 192.259 492.582Z" fill="#E9F2FF"/>
<path opacity="0.51" d="M192.406 508.019H119.78C119.204 508.019 118.737 508.487 118.737 509.064V516.641C118.737 517.218 119.204 517.686 119.78 517.686H192.406C192.982 517.686 193.449 517.218 193.449 516.641V509.064C193.449 508.487 192.982 508.019 192.406 508.019Z" fill="#E9F2FF"/>
<path opacity="0.51" d="M192.843 523.782H120.216C119.64 523.782 119.173 524.249 119.173 524.826V532.404C119.173 532.981 119.64 533.449 120.216 533.449H192.843C193.419 533.449 193.886 532.981 193.886 532.404V524.826C193.886 524.249 193.419 523.782 192.843 523.782Z" fill="#E9F2FF"/>
<path opacity="0.51" d="M192.991 539.219H120.364C119.788 539.219 119.321 539.686 119.321 540.263V547.841C119.321 548.418 119.788 548.886 120.364 548.886H192.991C193.567 548.886 194.034 548.418 194.034 547.841V540.263C194.034 539.686 193.567 539.219 192.991 539.219Z" fill="#E9F2FF"/>
<path opacity="0.5" d="M346.347 517.634H241.019C240.443 517.634 239.976 518.102 239.976 518.679V526.256C239.976 526.833 240.443 527.301 241.019 527.301H346.347C346.923 527.301 347.39 526.833 347.39 526.256V518.679C347.39 518.102 346.923 517.634 346.347 517.634Z" fill="white"/>
<path opacity="0.5" d="M346.68 533.083H241.351C240.775 533.083 240.308 533.551 240.308 534.128V541.705C240.308 542.282 240.775 542.75 241.351 542.75H346.68C347.256 542.75 347.723 542.282 347.723 541.705V534.128C347.723 533.551 347.256 533.083 346.68 533.083Z" fill="white"/>
<path opacity="0.5" d="M302.913 548.846H241.351C240.775 548.846 240.308 549.313 240.308 549.89V557.468C240.308 558.045 240.775 558.513 241.351 558.513H302.913C303.49 558.513 303.956 558.045 303.956 557.468V549.89C303.956 549.313 303.49 548.846 302.913 548.846Z" fill="white"/>
<path d="M277.618 493.207L277.654 498.093L329.199 497.666C330.433 497.656 331.425 496.648 331.416 495.415L331.413 494.996C331.404 493.763 330.397 492.772 329.163 492.782L277.618 493.208L277.618 493.207Z" fill="#0062F8"/>
<path d="M321.634 494.246L321.717 505.58C321.719 505.809 321.907 505.996 322.138 505.994L325.034 505.97C325.264 505.968 325.451 505.78 325.449 505.549L325.366 494.215L321.634 494.246Z" fill="#0062F8"/>
<path d="M314.464 503.609L314.404 495.349C314.401 495.016 314.67 494.743 315.004 494.74L317.527 494.719C317.861 494.716 318.133 494.985 318.136 495.318L318.196 503.579C318.199 503.912 317.93 504.185 317.596 504.188L315.073 504.209C314.74 504.211 314.467 503.943 314.464 503.609Z" fill="#0062F8"/>
<path d="M317.762 502.223L317.724 497.109L323.52 497.061L323.558 502.175L317.762 502.223Z" fill="#0062F8"/>
<path d="M257.672 495.02C257.622 488.199 262.516 482.627 268.604 482.575C274.693 482.525 279.667 488.015 279.718 494.838C279.768 501.66 274.874 507.231 268.786 507.283C262.698 507.333 257.722 501.844 257.672 495.02ZM276.419 494.865C276.384 490.084 272.897 486.238 268.631 486.272C264.365 486.308 260.935 490.213 260.971 494.991C261.006 499.773 264.493 503.619 268.758 503.585C273.025 503.549 276.454 499.644 276.419 494.865Z" fill="#0062F8"/>
<path d="M286.356 498.073L286.319 493.023C286.314 492.352 286.855 491.803 287.527 491.797L287.755 491.795C288.426 491.79 288.975 492.33 288.98 493.001L289.017 498.051C289.022 498.723 288.482 499.272 287.81 499.278L287.582 499.279C286.91 499.285 286.361 498.745 286.356 498.073Z" fill="#0062F8"/>
<path d="M291.759 498.031L291.722 492.98C291.717 492.309 292.257 491.76 292.929 491.754L293.157 491.752C293.829 491.747 294.378 492.287 294.383 492.958L294.42 498.009C294.425 498.68 293.884 499.229 293.212 499.235L292.984 499.236C292.313 499.242 291.764 498.702 291.759 498.031Z" fill="#0062F8"/>
<path d="M425.183 225.196C426.618 223.851 428.557 223.181 430.515 223.357C451.458 225.244 490.533 215.14 516.072 188.968C517.845 187.151 521.077 188.179 523.11 189.699C551.512 210.961 598.591 215.363 614.933 216.263C618.314 216.45 621.057 219.076 621.406 222.45C636.268 366.227 542.804 418.327 523.421 427.525C521.302 428.531 518.808 428.384 516.817 427.142C420.205 366.868 424.338 288.484 423.002 230.405C422.957 228.436 423.748 226.541 425.183 225.196Z" fill="#FFC91F"/>
<path opacity="0.61" d="M520.807 417.081C520.375 417.081 519.945 416.96 519.568 416.72C482.529 393.005 458.389 364.654 445.768 330.045C434.496 299.136 433.944 267.662 433.457 239.895L433.391 236.192C433.379 235.574 433.612 234.993 434.043 234.551C434.478 234.108 435.062 233.862 435.686 233.862C458.624 233.862 493.053 223.718 518.305 201.056C519.079 200.36 520.227 200.277 521.098 200.853C548.843 219.291 588.42 224.661 609.542 226.221C610.666 226.304 611.552 227.182 611.653 228.309C616.563 284.409 604.912 331.848 577.026 369.307C556.199 397.284 531.503 411.86 521.851 416.83C521.525 416.998 521.167 417.081 520.809 417.081H520.807ZM521.419 415.992C531.012 411.054 555.562 396.564 576.271 368.745C604.015 331.475 615.604 284.254 610.714 228.392C610.655 227.729 610.133 227.211 609.473 227.161C588.259 225.594 548.501 220.197 520.577 201.639C520.066 201.298 519.388 201.348 518.932 201.758C493.496 224.587 458.803 234.806 435.705 234.806C435.315 234.806 434.969 234.949 434.713 235.212C434.459 235.47 434.324 235.813 434.331 236.175L434.397 239.878C434.883 267.572 435.432 298.963 446.651 329.723C459.199 364.13 483.217 392.326 520.075 415.925C520.479 416.183 520.994 416.209 521.419 415.991V415.992Z" fill="white"/>
<path opacity="0.61" d="M554.578 279.47H550.209C548.04 279.47 546.28 277.709 546.28 275.535V260.578C546.28 255.224 541.947 250.884 536.601 250.884H509.53C504.184 250.884 499.851 255.224 499.851 260.578V275.535C499.851 277.708 498.093 279.47 495.922 279.47H491.553C489.384 279.47 487.624 277.709 487.624 275.535V260.578C487.624 248.462 497.431 238.64 509.528 238.64H536.6C548.697 238.64 558.503 248.462 558.503 260.578V275.535C558.503 277.708 556.744 279.47 554.575 279.47H554.578Z" fill="white"/>
<path opacity="0.61" d="M559.993 283H486.141C481.616 283 477.947 286.675 477.947 291.207V347.976C477.947 352.508 481.616 356.183 486.141 356.183H559.993C564.518 356.183 568.187 352.508 568.187 347.976V291.207C568.187 286.675 564.518 283 559.993 283ZM533.634 337.868C534.092 339.781 532.645 341.619 530.682 341.619H515.453C513.489 341.619 512.043 339.781 512.501 337.868L516.054 323.053C511.86 320.541 509.117 315.846 509.398 310.534C509.761 303.652 515.328 298.021 522.194 297.593C530.149 297.098 536.757 303.415 536.757 311.278C536.757 316.283 534.078 320.659 530.08 323.053L533.634 337.87V337.868Z" fill="white"/>
<path d="M80.5804 307.741C80.5804 307.741 88.417 308.156 89.377 324.303C89.377 324.303 71.2063 340.618 46.6618 344.501C44.8187 344.793 49.2385 331.903 49.9019 330.157C53.0628 321.85 63.0165 316.497 80.5804 307.741Z" fill="#1F2C40"/>
<path d="M168.83 288.757H152.294C152.294 288.757 101.541 232.616 68.2537 226.953C68.2537 226.953 45.0836 256.578 69.4877 311.93C71.4509 316.382 76.9417 318.361 81.0377 315.74C82.2627 314.955 83.1435 313.905 83.6756 312.59L81.7125 265.328C81.7125 265.328 125.005 303.251 132.529 310.569C140.053 317.887 178.303 313.427 168.827 288.755L168.83 288.757Z" fill="#03C988"/>
<path d="M8.9642 406.626C15.8928 400.544 26.9333 393.72 42.8737 391.765L48.2649 395.067C48.2649 395.067 44.8278 400.145 38.549 405.508C32.7774 408.865 23.8675 413.412 16.4793 414.398C9.29704 415.358 8.23737 411.01 8.96646 406.626H8.9642Z" fill="#1F2C40"/>
<path d="M49.9042 330.157C54.1723 331.54 56.0517 337.598 66.8839 333.593C77.3629 329.717 85.1542 324.718 89.1619 321.836C89.2502 322.616 89.3272 323.433 89.3793 324.303C89.3793 324.303 70.2214 342.555 45.6769 346.438C43.8337 346.73 42.3733 344.886 43.039 343.14C44.23 340.008 46.3788 335.255 49.9065 330.154L49.9042 330.157Z" fill="#C8D7ED"/>
<path d="M3.74281 411.82C5.10816 410.264 6.85163 408.479 8.96192 406.626C8.23283 411.01 9.29024 415.358 16.4747 414.398C23.863 413.412 32.7751 408.865 38.5444 405.508C31.3124 411.686 20.3058 418.245 6.41463 417.859C3.32845 417.773 1.70271 414.14 3.74055 411.82H3.74281Z" fill="#C8D7ED"/>
<path d="M168.225 300.74L90.7899 301.58C90.7899 301.58 46.569 338.224 38.5467 394.101C38.5467 394.101 37.2153 398.211 45.2081 398.914C45.2081 398.914 71.9445 381.424 89.377 350.502C110.752 312.588 153.1 329.653 153.1 329.653C173.444 334.15 189.638 332.477 201.487 314.211L168.223 300.736L168.225 300.74Z" fill="#03C988"/>
<path d="M166.396 238.261C166.396 238.261 158.059 280.105 117.216 296.658L102.686 294.944L99.2582 300.418L133.338 301.507C133.338 301.507 162.469 289.95 177.903 258.461C178.412 257.42 186.912 239.844 166.393 238.263L166.396 238.261Z" fill="url(#paint0_linear_145_145)"/>
<path d="M161.928 300.056C161.928 300.056 171.409 274.247 173.444 249.169C173.444 249.169 166.509 243.2 162.175 240.624C160.771 239.79 160.241 238.025 160.95 236.553C164.138 229.94 183.409 203.978 184.854 203.615C192.702 201.653 224.884 186.327 247.549 217.381C257.276 230.707 245.62 271.73 201.489 314.216C187.29 316.532 174.013 312.434 161.931 300.056H161.928Z" fill="#FFC91F"/>
<path d="M198.455 254.823C198.455 254.823 172.117 286.058 138.446 290.624C138.446 290.624 129.744 282.677 123.273 285.514C116.802 288.351 107.928 300.874 107.928 300.874H151.164C151.164 300.874 192.045 299.432 212.473 274.603C210.829 265.915 205.907 260.726 198.455 254.826V254.823Z" fill="#FEBBBA"/>
<path d="M213.821 181.71L219.583 200.959C219.848 201.842 219.522 202.796 218.763 203.318C215.99 205.221 208.737 209.006 198.79 205.327C197.654 204.908 196.873 203.842 196.775 202.631L195.41 185.86L213.823 181.708L213.821 181.71Z" fill="url(#paint1_linear_145_145)"/>
<path d="M180.076 166.118C180.076 166.118 182.909 186.073 190.562 192.21C198.215 198.347 213.128 193.725 218.163 178.682L208.128 152.96L180.076 166.118Z" fill="url(#paint2_linear_145_145)"/>
<path d="M209.26 169.606C208.678 169.794 208.069 169.42 207.979 168.815C207.702 166.973 207.012 163.326 205.617 160.843C205.617 160.843 206.348 158.226 199.01 162.181C191.674 166.136 180.654 171.946 174.167 168.486C167.843 165.113 161.435 148.138 178.152 151.282C178.788 151.402 179.372 150.894 179.325 150.248C179.118 147.458 179.395 141.04 185.884 138.979C191.957 137.051 195.281 139.797 196.651 141.453C197.054 141.94 197.801 141.931 198.186 141.428C200.004 139.049 204.945 133.987 212.217 137.196C218.209 139.84 219.139 143.537 219.04 145.839C219.008 146.585 219.764 147.091 220.441 146.778C222.275 145.932 225.228 145.492 228.054 149.039C231.962 153.944 226.378 158.196 224.703 159.312C224.429 159.496 224.256 159.798 224.254 160.129C224.238 162.68 223.842 173.804 218.274 180.081C217.792 180.626 216.902 180.465 216.621 179.795L212.335 169.565C212.136 169.091 211.608 168.846 211.117 169.005L209.256 169.606H209.26Z" fill="#1F2C40"/>
<path d="M209.17 171.684C209.17 171.684 211.787 161.006 215.763 164.472C219.739 167.937 214.726 175.568 210.173 177.024L209.17 171.684Z" fill="url(#paint3_linear_145_145)"/>
<path d="M110.106 303.298L90.6948 238.456C89.9023 235.812 87.5565 233.934 84.8054 233.746L58.5967 231.949C55.9316 231.768 53.9504 234.374 54.8357 236.898L76.5364 298.822C77.236 300.817 79.0225 302.226 81.1238 302.439L106.934 305.31L110.109 303.301L110.106 303.298Z" fill="#1F2C40"/>
<path d="M74.3038 260.434C75.7529 263.364 78.2572 265.081 79.8943 264.269C81.5313 263.457 81.6853 260.422 80.2362 257.492C78.787 254.562 76.2851 252.845 74.6457 253.657C73.0087 254.469 72.8547 257.504 74.3038 260.434Z" fill="#FFC91F"/>
<path d="M106.932 305.308C106.975 305.308 107.016 305.308 107.059 305.303L162.053 302.518C163.411 302.45 164.46 301.292 164.39 299.929C164.322 298.566 163.158 297.495 161.804 297.588L106.81 300.373C105.451 300.441 104.405 301.602 104.473 302.963C104.538 304.283 105.628 305.308 106.932 305.308Z" fill="#1F2C40"/>
<path d="M173.444 249.55C173.234 249.55 173.064 249.38 173.064 249.169C173.025 237.542 177.493 222.152 177.538 221.998C177.597 221.796 177.808 221.681 178.011 221.74C178.213 221.798 178.328 222.012 178.269 222.213C178.224 222.365 173.789 237.651 173.827 249.167C173.827 249.378 173.657 249.55 173.447 249.55H173.444Z" fill="#DEA901"/>
<path d="M198.455 255.206C198.374 255.206 198.29 255.179 198.22 255.125C198.055 254.993 198.027 254.755 198.156 254.59C198.276 254.438 210.229 239.216 214.321 228.834C214.398 228.639 214.618 228.537 214.815 228.618C215.009 228.695 215.107 228.918 215.03 229.113C210.897 239.601 198.874 254.909 198.754 255.061C198.679 255.157 198.566 255.206 198.455 255.206Z" fill="#DEA901"/>
<path d="M215.401 278.608L213.227 275.529C213.105 275.356 213.146 275.118 213.318 274.996C213.49 274.873 213.728 274.914 213.85 275.086L215.668 277.663C232.63 270.215 243.131 249.891 243.236 249.686C243.331 249.498 243.559 249.423 243.747 249.521C243.935 249.616 244.01 249.847 243.913 250.036C243.806 250.244 233.069 271.034 215.684 278.49L215.401 278.613V278.608Z" fill="#DEA901"/>
</g>
<defs>
<linearGradient id="paint0_linear_145_145" x1="121.79" y1="251.696" x2="158.337" y2="295.088" gradientUnits="userSpaceOnUse">
<stop stop-color="#FEBBBA"/>
<stop offset="1" stop-color="#FF928E"/>
</linearGradient>
<linearGradient id="paint1_linear_145_145" x1="208.932" y1="208.434" x2="206.238" y2="184.224" gradientUnits="userSpaceOnUse">
<stop stop-color="#FEBBBA"/>
<stop offset="1" stop-color="#FF928E"/>
</linearGradient>
<linearGradient id="paint2_linear_145_145" x1="194.606" y1="187.313" x2="206.478" y2="148.217" gradientUnits="userSpaceOnUse">
<stop stop-color="#FEBBBA"/>
<stop offset="1" stop-color="#FF928E"/>
</linearGradient>
<linearGradient id="paint3_linear_145_145" x1="206.869" y1="191.037" x2="218.741" y2="151.941" gradientUnits="userSpaceOnUse">
<stop stop-color="#FEBBBA"/>
<stop offset="1" stop-color="#FF928E"/>
</linearGradient>
<clipPath id="clip0_145_145">
<rect width="630" height="635" fill="white"/>
</clipPath>
<clipPath id="clip1_145_145">
<rect width="181" height="449" fill="white" transform="translate(249 170)"/>
</clipPath>
</defs>
</svg>
