<svg width="960" height="960" viewBox="0 0 960 960" fill="none" xmlns="http://www.w3.org/2000/svg">
<path d="M931.16 94.0922C899.796 139.111 849.119 167.416 796.511 181.946C743.929 196.476 688.874 198.607 634.386 200.661C573.075 202.974 511.737 205.261 450.426 207.575C423.259 208.588 395.526 209.732 370.213 219.739C344.901 229.746 322.06 250.462 316.961 277.39C309.777 315.131 337.948 350.298 342.66 388.429C348.892 438.724 313.459 484.965 273.418 515.557C233.401 546.15 186.433 568.14 152.133 605.127C107.791 652.979 89.8688 724.302 106.246 787.697C122.649 851.092 172.811 904.454 234.663 924.312C307.125 947.576 385.792 926.106 456.915 899.048C528.037 871.964 599.443 838.746 675.458 838.278C763.525 837.706 849.711 886.13 898.07 960H19.5188C8.75513 960 0 951.189 0 940.272V19.7282C0 8.83739 8.75513 0 19.5188 0H959.949C960.721 33.0102 950.138 66.9042 931.16 94.0922Z" fill="#E2EEFF"/>
<g clip-path="url(#clip0_0_1)">
<path d="M83.4711 707.271C93.4565 664.581 126.112 631.071 167.681 620.822C196.261 613.776 223.681 617.557 246.858 628.975C254.545 632.763 263.679 628.476 265.809 619.997C286.296 538.445 358.402 478.197 444.212 478.197C545.966 478.197 628.451 562.906 628.451 667.402C628.451 670.175 628.396 673.965 628.349 677.6C628.709 685.415 632.03 688.733 636.991 689.566C676.858 693.827 708.189 727.577 709.928 769.206C711.925 817.006 674.041 856.607 627.454 856.607H196.53C122.763 856.607 65.0038 786.215 83.4711 707.271Z" fill="#0062F8"/>
<path opacity="0.21" d="M116.846 723.268C125.763 685.152 154.917 655.23 192.035 646.082C217.554 639.791 242.035 643.168 262.728 653.362C269.591 656.743 277.747 652.915 279.649 645.345C297.941 572.528 362.321 518.735 438.939 518.735C529.79 518.735 603.439 594.37 603.439 687.67C603.439 690.146 603.39 693.53 603.349 696.775C603.67 703.751 606.637 706.715 611.065 707.459C646.66 711.265 674.634 741.4 676.188 778.568C677.97 821.247 644.146 856.605 602.55 856.605H217.791C151.926 856.605 100.356 793.756 116.844 723.268H116.846Z" fill="#F5F9FF"/>
<path d="M511.212 452.264C511.087 452.264 510.96 452.235 510.843 452.169C510.474 451.965 510.342 451.5 510.546 451.13C511.037 450.246 511.513 449.357 511.975 448.459C512.167 448.085 512.627 447.94 513.003 448.13C513.376 448.323 513.524 448.783 513.331 449.16C512.862 450.069 512.38 450.974 511.882 451.87C511.744 452.122 511.483 452.262 511.214 452.262L511.212 452.264Z" fill="#B3D1FF"/>
<path d="M422.041 504.833C421.59 504.833 421.142 504.831 420.691 504.824C420.27 504.817 419.935 504.472 419.94 504.051C419.946 503.633 420.286 503.298 420.703 503.298H420.714C422.686 503.325 424.676 503.291 426.646 503.202C427.038 503.175 427.423 503.509 427.441 503.93C427.461 504.352 427.135 504.708 426.714 504.726C425.165 504.797 423.594 504.833 422.043 504.833H422.041ZM411.009 504.236C410.982 504.236 410.955 504.237 410.928 504.232C408.938 504.017 406.929 503.74 404.964 503.409C404.549 503.338 404.269 502.944 404.339 502.529C404.409 502.114 404.803 501.83 405.217 501.903C407.156 502.229 409.132 502.502 411.095 502.715C411.514 502.76 411.818 503.137 411.772 503.556C411.729 503.948 411.399 504.236 411.016 504.236H411.009ZM436.346 503.828C435.973 503.828 435.647 503.552 435.592 503.171C435.534 502.753 435.823 502.368 436.24 502.309C438.192 502.034 440.159 501.696 442.089 501.306C442.498 501.225 442.904 501.492 442.987 501.905C443.069 502.318 442.802 502.722 442.39 502.805C440.431 503.2 438.434 503.543 436.453 503.821C436.417 503.826 436.38 503.828 436.346 503.828ZM395.599 501.361C395.533 501.361 395.467 501.352 395.402 501.334C393.47 500.817 391.53 500.236 389.633 499.608C389.232 499.476 389.017 499.043 389.148 498.644C389.279 498.245 389.709 498.027 390.11 498.159C391.978 498.778 393.889 499.349 395.794 499.86C396.201 499.968 396.441 500.386 396.332 500.794C396.242 501.136 395.934 501.361 395.597 501.361H395.599ZM451.657 500.447C451.329 500.447 451.028 500.234 450.928 499.905C450.806 499.501 451.035 499.075 451.438 498.952C453.326 498.379 455.219 497.744 457.064 497.063C457.458 496.918 457.898 497.12 458.042 497.517C458.187 497.914 457.986 498.351 457.59 498.497C455.717 499.188 453.797 499.832 451.879 500.415C451.804 500.438 451.732 500.447 451.657 500.447ZM380.809 496.154C380.707 496.154 380.603 496.133 380.503 496.088C378.671 495.278 376.842 494.405 375.069 493.494C374.695 493.301 374.548 492.841 374.738 492.466C374.931 492.092 375.388 491.945 375.764 492.135C377.512 493.033 379.312 493.893 381.117 494.691C381.502 494.861 381.676 495.312 381.506 495.698C381.379 495.984 381.101 496.154 380.809 496.154ZM466.266 494.746C465.983 494.746 465.709 494.587 465.578 494.312C465.395 493.934 465.555 493.476 465.933 493.294C467.706 492.439 469.479 491.518 471.202 490.557C471.571 490.353 472.033 490.484 472.239 490.854C472.443 491.221 472.312 491.688 471.943 491.893C470.195 492.868 468.395 493.802 466.595 494.671C466.488 494.723 466.375 494.746 466.264 494.746H466.266ZM367.001 488.729C366.861 488.729 366.718 488.69 366.591 488.609C364.909 487.527 363.236 486.382 361.621 485.205C361.282 484.957 361.207 484.479 361.454 484.139C361.703 483.799 362.178 483.724 362.518 483.971C364.108 485.13 365.754 486.257 367.413 487.323C367.767 487.55 367.871 488.024 367.644 488.377C367.499 488.604 367.253 488.729 367.001 488.729ZM479.822 486.851C479.58 486.851 479.342 486.735 479.195 486.522C478.955 486.175 479.043 485.699 479.39 485.461C481.011 484.341 482.623 483.157 484.177 481.943C484.509 481.685 484.987 481.744 485.248 482.077C485.506 482.411 485.447 482.889 485.114 483.15C483.536 484.381 481.903 485.581 480.257 486.72C480.124 486.81 479.974 486.856 479.825 486.856L479.822 486.851ZM354.505 479.261C354.324 479.261 354.145 479.197 354 479.07C352.508 477.748 351.031 476.36 349.61 474.943C349.311 474.646 349.311 474.162 349.607 473.863C349.904 473.564 350.386 473.564 350.685 473.861C352.084 475.256 353.54 476.623 355.012 477.927C355.327 478.206 355.356 478.689 355.078 479.004C354.926 479.174 354.718 479.261 354.507 479.261H354.505ZM492.018 476.968C491.816 476.968 491.612 476.886 491.463 476.727C491.173 476.421 491.189 475.938 491.495 475.648C492.93 474.292 494.341 472.879 495.69 471.448C495.98 471.142 496.462 471.128 496.768 471.416C497.074 471.706 497.087 472.189 496.8 472.496C495.43 473.949 493.997 475.383 492.541 476.759C492.394 476.897 492.206 476.968 492.018 476.968ZM343.589 467.987C343.369 467.987 343.154 467.894 343.002 467.713C341.725 466.177 340.473 464.581 339.285 462.968C339.035 462.628 339.106 462.152 339.445 461.9C339.787 461.651 340.263 461.723 340.512 462.061C341.682 463.651 342.916 465.223 344.175 466.737C344.445 467.062 344.402 467.543 344.078 467.812C343.935 467.93 343.763 467.989 343.591 467.989L343.589 467.987ZM502.569 465.356C502.406 465.356 502.241 465.304 502.103 465.195C501.77 464.937 501.711 464.456 501.969 464.125C503.183 462.562 504.362 460.95 505.474 459.331C505.714 458.984 506.19 458.895 506.534 459.133C506.88 459.374 506.969 459.848 506.731 460.195C505.601 461.839 504.405 463.476 503.171 465.062C503.022 465.254 502.796 465.356 502.569 465.356ZM334.507 455.187C334.249 455.187 333.995 455.056 333.853 454.818C332.82 453.094 331.828 451.325 330.904 449.556C330.71 449.182 330.855 448.722 331.228 448.527C331.6 448.332 332.062 448.477 332.256 448.851C333.164 450.593 334.14 452.334 335.159 454.033C335.376 454.394 335.259 454.863 334.899 455.081C334.776 455.156 334.641 455.19 334.507 455.19V455.187ZM327.499 441.14C327.198 441.14 326.913 440.961 326.793 440.664C326.039 438.804 325.332 436.902 324.694 435.01C324.56 434.611 324.773 434.178 325.171 434.042C325.568 433.906 326.002 434.121 326.138 434.52C326.768 436.382 327.463 438.255 328.208 440.088C328.366 440.478 328.178 440.925 327.789 441.083C327.696 441.122 327.599 441.14 327.501 441.14H327.499Z" fill="#B3D1FF"/>
<path d="M322.726 426.141C322.38 426.141 322.067 425.903 321.986 425.551C321.752 424.551 321.533 423.551 321.329 422.546C321.245 422.133 321.512 421.73 321.924 421.646C322.337 421.562 322.74 421.827 322.823 422.242C323.025 423.231 323.24 424.218 323.471 425.202C323.566 425.612 323.312 426.023 322.903 426.12C322.844 426.134 322.785 426.141 322.728 426.141H322.726Z" fill="#B3D1FF"/>
<path d="M335.65 348.283C335.512 348.283 335.372 348.245 335.245 348.165C334.89 347.941 334.783 347.469 335.007 347.113C335.551 346.249 336.11 345.389 336.681 344.537C336.916 344.187 337.389 344.092 337.738 344.328C338.089 344.564 338.18 345.038 337.946 345.387C337.383 346.228 336.832 347.074 336.296 347.927C336.151 348.158 335.904 348.283 335.65 348.283Z" fill="#B3D1FF"/>
<path d="M519.886 373.86C519.556 373.86 519.252 373.644 519.155 373.311C518.573 371.322 517.921 369.324 517.217 367.374C517.074 366.977 517.278 366.539 517.674 366.396C518.068 366.251 518.507 366.458 518.65 366.854C519.365 368.834 520.027 370.862 520.62 372.882C520.738 373.288 520.507 373.712 520.104 373.83C520.031 373.851 519.961 373.86 519.888 373.86H519.886ZM513.979 358.45C513.693 358.45 513.422 358.291 513.29 358.017C512.391 356.143 511.425 354.279 510.415 352.472C510.209 352.104 510.34 351.639 510.709 351.433C511.076 351.229 511.542 351.358 511.746 351.728C512.77 353.56 513.752 355.454 514.665 357.357C514.848 357.738 514.687 358.194 514.309 358.375C514.203 358.427 514.09 358.45 513.979 358.45ZM505.653 344.201C505.413 344.201 505.175 344.087 505.028 343.874C503.842 342.178 502.587 340.493 501.297 338.869C501.034 338.538 501.088 338.059 501.419 337.796C501.749 337.533 502.227 337.588 502.49 337.919C503.801 339.57 505.076 341.278 506.278 343.001C506.52 343.346 506.437 343.822 506.09 344.065C505.956 344.158 505.805 344.203 505.653 344.203V344.201ZM343.43 337.538C343.258 337.538 343.086 337.481 342.944 337.361C342.62 337.091 342.574 336.61 342.844 336.286C344.182 334.674 345.59 333.072 347.035 331.533C347.323 331.224 347.805 331.211 348.113 331.499C348.419 331.789 348.434 332.272 348.147 332.578C346.725 334.095 345.335 335.671 344.017 337.261C343.865 337.443 343.65 337.538 343.43 337.538ZM495.149 331.48C494.95 331.48 494.751 331.403 494.601 331.249C493.166 329.766 491.66 328.303 490.125 326.904C489.815 326.62 489.792 326.137 490.075 325.824C490.358 325.511 490.843 325.489 491.153 325.774C492.711 327.196 494.239 328.682 495.695 330.185C495.989 330.487 495.98 330.972 495.679 331.265C495.532 331.408 495.339 331.48 495.149 331.48ZM354.94 325.722C354.727 325.722 354.516 325.634 354.367 325.462C354.09 325.144 354.122 324.661 354.439 324.384C356.026 322.996 357.673 321.642 359.335 320.357C359.67 320.1 360.147 320.162 360.403 320.495C360.659 320.828 360.598 321.309 360.265 321.565C358.628 322.831 357.005 324.164 355.442 325.532C355.297 325.659 355.118 325.72 354.94 325.72V325.722ZM482.761 320.602C482.603 320.602 482.444 320.552 482.306 320.452C480.644 319.216 478.924 318.016 477.189 316.884C476.836 316.655 476.736 316.181 476.967 315.828C477.196 315.474 477.667 315.374 478.022 315.605C479.782 316.753 481.53 317.971 483.217 319.227C483.554 319.479 483.624 319.957 483.373 320.295C483.223 320.497 482.992 320.604 482.759 320.604L482.761 320.602ZM368.185 315.891C367.932 315.891 367.683 315.764 367.538 315.531C367.316 315.172 367.425 314.703 367.782 314.478C369.564 313.367 371.408 312.294 373.26 311.292C373.631 311.09 374.093 311.231 374.292 311.6C374.491 311.972 374.353 312.435 373.984 312.635C372.159 313.621 370.343 314.678 368.586 315.771C368.462 315.85 368.321 315.887 368.183 315.887L368.185 315.891ZM468.782 311.87C468.664 311.87 468.544 311.843 468.433 311.786C466.595 310.836 464.702 309.934 462.807 309.097C462.422 308.927 462.245 308.478 462.415 308.09C462.582 307.704 463.033 307.527 463.42 307.697C465.345 308.543 467.267 309.462 469.133 310.426C469.506 310.618 469.654 311.079 469.461 311.453C469.325 311.716 469.058 311.866 468.782 311.866V311.87ZM382.842 308.33C382.543 308.33 382.26 308.153 382.138 307.861C381.977 307.471 382.16 307.024 382.55 306.863C384.486 306.058 386.478 305.298 388.471 304.611C388.872 304.475 389.304 304.686 389.44 305.083C389.576 305.482 389.365 305.917 388.969 306.053C387.006 306.731 385.045 307.477 383.136 308.271C383.041 308.31 382.942 308.33 382.844 308.33H382.842ZM453.573 305.52C453.496 305.52 453.417 305.509 453.337 305.484C451.37 304.844 449.355 304.259 447.348 303.742C446.941 303.638 446.694 303.221 446.8 302.812C446.905 302.404 447.328 302.159 447.729 302.264C449.764 302.79 451.811 303.384 453.808 304.033C454.209 304.162 454.429 304.593 454.297 304.994C454.193 305.316 453.894 305.523 453.573 305.523V305.52ZM398.524 303.252C398.178 303.252 397.865 303.014 397.784 302.665C397.689 302.255 397.942 301.844 398.352 301.747C400.401 301.263 402.491 300.837 404.559 300.483C404.982 300.415 405.367 300.692 405.439 301.107C405.512 301.522 405.231 301.917 404.817 301.989C402.779 302.338 400.723 302.758 398.703 303.234C398.644 303.248 398.585 303.255 398.527 303.255L398.524 303.252ZM437.54 301.713C437.501 301.713 437.463 301.71 437.424 301.703C435.377 301.388 433.294 301.134 431.231 300.946C430.813 300.907 430.502 300.536 430.541 300.116C430.579 299.696 430.942 299.386 431.37 299.424C433.462 299.615 435.577 299.873 437.653 300.193C438.07 300.257 438.355 300.647 438.291 301.064C438.235 301.443 437.909 301.713 437.54 301.713ZM414.82 300.776C414.424 300.776 414.089 300.467 414.062 300.066C414.032 299.644 414.349 299.279 414.768 299.252C416.862 299.104 418.989 299.021 421.094 299.002H421.101C421.52 299.002 421.86 299.34 421.864 299.76C421.869 300.182 421.529 300.526 421.108 300.531C419.034 300.549 416.937 300.631 414.877 300.776C414.859 300.776 414.841 300.776 414.822 300.776H414.82Z" fill="#B3D1FF"/>
<path d="M522.784 386.859C522.415 386.859 522.092 386.59 522.033 386.213C521.879 385.215 521.709 384.222 521.521 383.226C521.444 382.811 521.716 382.412 522.13 382.335C522.542 382.262 522.943 382.532 523.02 382.945C523.208 383.954 523.38 384.963 523.538 385.975C523.604 386.392 523.319 386.782 522.902 386.848C522.861 386.855 522.823 386.857 522.784 386.857V386.859Z" fill="#B3D1FF"/>
<path d="M500.33 399.634C500.371 399.113 500.076 398.623 499.596 398.414L485.931 392.468C484.876 385.58 482.716 378.811 479.424 372.44L486.964 359.582C487.229 359.13 487.179 358.561 486.839 358.164L475.224 344.562C474.884 344.165 474.329 344.026 473.845 344.217L459.994 349.687C454.22 345.444 447.878 342.257 441.249 340.146L437.501 325.704C437.37 325.199 436.933 324.831 436.412 324.79L418.595 323.4C418.074 323.359 417.585 323.654 417.376 324.135L411.44 337.822C404.563 338.878 397.804 341.042 391.444 344.339L378.606 336.785C378.155 336.52 377.587 336.57 377.19 336.91L363.609 348.546C363.213 348.886 363.075 349.442 363.268 349.927L368.729 363.8C364.493 369.583 361.311 375.933 359.203 382.575L344.782 386.329C344.277 386.46 343.91 386.898 343.87 387.42L342.482 405.265C342.441 405.787 342.735 406.277 343.215 406.485L356.88 412.432C357.935 419.319 360.095 426.089 363.388 432.459L355.845 445.318C355.58 445.769 355.63 446.339 355.97 446.735L367.588 460.338C367.927 460.735 368.482 460.873 368.967 460.68L382.817 455.21C388.591 459.454 394.933 462.64 401.563 464.751L405.31 479.193C405.442 479.699 405.879 480.066 406.399 480.107L424.217 481.497C424.738 481.538 425.227 481.243 425.435 480.762L431.372 467.076C438.248 466.019 445.007 463.855 451.368 460.558L464.206 468.112C464.656 468.378 465.225 468.328 465.621 467.987L479.202 456.351C479.598 456.011 479.736 455.458 479.546 454.97L474.085 441.097C478.321 435.314 481.5 428.962 483.611 422.322L498.029 418.569C498.534 418.437 498.901 417.999 498.942 417.478L500.33 399.632V399.634Z" fill="#B3D1FF"/>
<path opacity="0.7" d="M421.371 419.494C417.881 419.494 414.485 418.419 411.58 416.36C403.922 410.933 402.102 400.278 407.52 392.609C410.144 388.894 414.057 386.424 418.536 385.658C423.014 384.891 427.525 385.916 431.231 388.544C434.94 391.175 437.406 395.092 438.171 399.578C438.939 404.063 437.916 408.581 435.289 412.296C432.665 416.011 428.752 418.48 424.273 419.247C423.304 419.412 422.331 419.494 421.366 419.494H421.371ZM421.439 387.699C420.603 387.699 419.763 387.771 418.923 387.914C415.047 388.579 411.659 390.715 409.388 393.931C404.697 400.569 406.273 409.792 412.9 414.489C416.111 416.766 420.012 417.65 423.891 416.988C427.767 416.323 431.152 414.187 433.426 410.971C435.699 407.756 436.584 403.846 435.921 399.963C435.257 396.081 433.122 392.688 429.914 390.413C427.398 388.631 424.459 387.699 421.439 387.699Z" fill="white"/>
<path opacity="0.7" d="M421.097 446.792C419.931 446.792 418.762 446.747 417.587 446.656C405.799 445.738 395.074 440.275 387.389 431.273C380.467 423.17 376.758 413.074 376.758 402.526C376.758 401.358 376.803 400.186 376.894 399.011C377.813 387.204 383.265 376.462 392.252 368.764C401.237 361.067 412.676 357.334 424.466 358.253C436.254 359.171 446.979 364.635 454.664 373.636C456.716 376.037 458.511 378.657 460.001 381.415L457.99 382.503C456.58 379.886 454.875 377.403 452.928 375.123C445.639 366.59 435.468 361.407 424.289 360.537C413.111 359.673 402.26 363.206 393.74 370.504C385.22 377.804 380.048 387.991 379.176 399.188C379.09 400.304 379.047 401.415 379.047 402.521C379.047 412.525 382.566 422.1 389.13 429.786C396.419 438.32 406.59 443.499 417.768 444.373C428.956 445.246 439.797 441.706 448.318 434.405C454.1 429.45 458.427 423.032 460.83 415.843L462.999 416.571C460.465 424.152 455.903 430.922 449.803 436.147C441.713 443.078 431.632 446.795 421.099 446.795L421.097 446.792Z" fill="white"/>
<path d="M597.195 477.326C597.063 477.326 596.93 477.292 596.807 477.22C596.445 477.004 596.325 476.537 596.54 476.174C597.052 475.308 597.543 474.423 597.996 473.543C598.189 473.169 598.648 473.024 599.024 473.215C599.398 473.407 599.545 473.868 599.353 474.244C598.886 475.149 598.381 476.061 597.854 476.952C597.711 477.192 597.457 477.326 597.197 477.326H597.195Z" fill="#B3D1FF"/>
<path d="M547.997 502.88C547.977 502.88 547.956 502.88 547.936 502.88C545.869 502.717 543.79 502.431 541.763 502.03C541.351 501.948 541.082 501.547 541.163 501.132C541.245 500.719 541.648 500.449 542.058 500.531C544.03 500.921 546.047 501.2 548.056 501.359C548.475 501.393 548.789 501.76 548.755 502.179C548.724 502.581 548.391 502.883 547.997 502.883V502.88ZM557.966 502.719C557.584 502.719 557.253 502.431 557.21 502.041C557.163 501.622 557.464 501.245 557.883 501.198C559.889 500.973 561.897 500.628 563.849 500.172C564.257 500.073 564.669 500.331 564.764 500.744C564.859 501.154 564.605 501.565 564.193 501.66C562.182 502.13 560.115 502.483 558.05 502.717C558.021 502.719 557.994 502.722 557.964 502.722L557.966 502.719ZM532.353 499.184C532.258 499.184 532.161 499.166 532.066 499.127C530.15 498.347 528.257 497.444 526.441 496.442C526.072 496.238 525.939 495.773 526.142 495.405C526.346 495.036 526.808 494.902 527.177 495.106C528.941 496.079 530.779 496.957 532.641 497.714C533.03 497.873 533.218 498.32 533.06 498.71C532.94 499.007 532.654 499.186 532.353 499.186V499.184ZM573.477 498.499C573.184 498.499 572.906 498.331 572.779 498.047C572.607 497.662 572.779 497.211 573.164 497.038C575.003 496.215 576.81 495.274 578.537 494.242C578.897 494.024 579.366 494.144 579.583 494.505C579.798 494.868 579.681 495.335 579.321 495.553C577.543 496.616 575.68 497.585 573.789 498.433C573.687 498.478 573.583 498.499 573.479 498.499H573.477ZM518.582 490.899C518.41 490.899 518.236 490.84 518.095 490.722C516.51 489.398 514.982 487.96 513.553 486.45C513.263 486.143 513.277 485.66 513.58 485.37C513.886 485.08 514.37 485.093 514.658 485.397C516.046 486.865 517.531 488.259 519.071 489.548C519.395 489.817 519.438 490.298 519.168 490.623C519.019 490.804 518.802 490.897 518.582 490.897V490.899ZM586.967 489.747C586.759 489.747 586.548 489.661 586.399 489.493C586.118 489.178 586.145 488.695 586.46 488.416L586.908 488.01C588.249 486.785 589.539 485.477 590.742 484.125C591.02 483.808 591.502 483.78 591.817 484.062C592.132 484.343 592.161 484.824 591.88 485.139C590.644 486.531 589.317 487.878 587.936 489.139L587.476 489.554C587.332 489.684 587.15 489.747 586.969 489.747H586.967ZM507.954 478.825C507.702 478.825 507.455 478.7 507.31 478.474C506.194 476.727 505.168 474.895 504.263 473.026C504.079 472.647 504.238 472.189 504.616 472.006C504.996 471.822 505.452 471.981 505.635 472.359C506.513 474.174 507.51 475.954 508.594 477.65C508.821 478.004 508.719 478.478 508.363 478.705C508.237 478.787 508.094 478.825 507.954 478.825Z" fill="#B3D1FF"/>
<path d="M501.471 464.062C501.134 464.062 500.826 463.835 500.735 463.492C500.472 462.499 500.235 461.485 500.031 460.478C499.947 460.066 500.212 459.662 500.626 459.578C501.039 459.494 501.442 459.759 501.525 460.174C501.725 461.152 501.956 462.138 502.209 463.102C502.318 463.51 502.076 463.928 501.668 464.037C501.602 464.055 501.537 464.062 501.473 464.062H501.471Z" fill="#B3D1FF"/>
<path d="M507.75 422.626C507.612 422.626 507.471 422.587 507.344 422.508C506.989 422.283 506.883 421.811 507.107 421.455C507.655 420.584 508.234 419.72 508.83 418.884C509.074 418.541 509.552 418.462 509.892 418.707C510.236 418.952 510.313 419.428 510.068 419.77C509.489 420.582 508.925 421.424 508.393 422.269C508.248 422.501 508.001 422.626 507.748 422.626H507.75Z" fill="#B3D1FF"/>
<path d="M600.347 430.05C600.05 430.05 599.769 429.876 599.645 429.586C598.873 427.762 597.983 425.964 597.002 424.24C596.794 423.875 596.921 423.408 597.288 423.199C597.652 422.991 598.118 423.118 598.327 423.485C599.337 425.258 600.251 427.111 601.048 428.989C601.214 429.377 601.033 429.826 600.643 429.991C600.546 430.032 600.446 430.053 600.344 430.053L600.347 430.05ZM592.03 416.579C591.815 416.579 591.6 416.489 591.45 416.312C591.061 415.854 590.662 415.402 590.255 414.953C589.324 413.933 588.344 412.937 587.336 411.994C587.028 411.706 587.012 411.223 587.3 410.914C587.587 410.606 588.07 410.59 588.378 410.878C589.412 411.849 590.422 412.871 591.38 413.924C591.799 414.384 592.211 414.849 592.61 415.321C592.881 415.643 592.843 416.123 592.524 416.398C592.381 416.52 592.204 416.579 592.03 416.579ZM515.878 412.663C515.677 412.663 515.475 412.583 515.326 412.427C515.036 412.121 515.047 411.638 515.351 411.347C515.659 411.053 515.971 410.76 516.288 410.472C517.479 409.383 518.734 408.338 520.015 407.363C520.35 407.107 520.828 407.172 521.082 407.508C521.338 407.844 521.272 408.322 520.937 408.576C519.691 409.524 518.473 410.54 517.316 411.597C517.008 411.878 516.705 412.164 516.404 412.45C516.257 412.59 516.066 412.66 515.878 412.66V412.663ZM580.095 406.188C579.957 406.188 579.814 406.149 579.687 406.07C578.014 405.011 576.262 404.038 574.48 403.181C574.099 402.997 573.941 402.544 574.122 402.163C574.303 401.782 574.756 401.621 575.139 401.804C576.973 402.686 578.777 403.687 580.5 404.777C580.856 405.004 580.962 405.474 580.738 405.832C580.593 406.061 580.346 406.188 580.093 406.188H580.095ZM528.812 403.551C528.531 403.551 528.262 403.396 528.128 403.126C527.94 402.748 528.094 402.29 528.472 402.104C530.295 401.196 532.192 400.387 534.113 399.693C534.511 399.552 534.946 399.756 535.088 400.153C535.231 400.55 535.025 400.988 534.629 401.131C532.761 401.804 530.918 402.591 529.149 403.471C529.041 403.526 528.925 403.551 528.81 403.551H528.812ZM565.608 399.854C565.543 399.854 565.477 399.845 565.411 399.829C563.5 399.321 561.537 398.917 559.576 398.632C559.16 398.57 558.87 398.182 558.931 397.767C558.992 397.35 559.375 397.051 559.794 397.121C561.811 397.416 563.831 397.829 565.801 398.353C566.208 398.461 566.451 398.879 566.342 399.287C566.251 399.629 565.943 399.854 565.606 399.854H565.608ZM543.874 398.736C543.505 398.736 543.181 398.468 543.122 398.092C543.056 397.674 543.339 397.284 543.756 397.219C545.764 396.901 547.816 396.695 549.858 396.609C550.279 396.6 550.635 396.917 550.651 397.339C550.669 397.761 550.343 398.117 549.922 398.133C547.938 398.216 545.946 398.416 543.994 398.725C543.953 398.731 543.912 398.734 543.874 398.734V398.736Z" fill="#B3D1FF"/>
<path d="M603.877 442.442C603.507 442.442 603.184 442.172 603.125 441.796C602.971 440.809 602.787 439.814 602.577 438.838C602.489 438.426 602.749 438.02 603.161 437.931C603.58 437.843 603.978 438.106 604.067 438.516C604.282 439.521 604.472 440.546 604.631 441.56C604.696 441.977 604.411 442.367 603.994 442.433C603.953 442.44 603.915 442.442 603.877 442.442Z" fill="#B3D1FF"/>
<path d="M592.342 448.633C592.363 448.365 592.213 448.114 591.967 448.007L584.947 444.952C584.406 441.415 583.297 437.936 581.605 434.665L585.479 428.059C585.615 427.828 585.59 427.535 585.416 427.331L579.45 420.344C579.275 420.14 578.99 420.069 578.741 420.167L571.627 422.977C568.661 420.797 565.405 419.16 561.997 418.076L560.072 410.658C560.004 410.397 559.78 410.209 559.513 410.188L550.361 409.474C550.094 409.454 549.842 409.606 549.736 409.85L546.686 416.881C543.154 417.423 539.683 418.536 536.415 420.228L529.819 416.348C529.589 416.212 529.296 416.237 529.093 416.411L522.116 422.389C521.913 422.564 521.843 422.85 521.94 423.099L524.745 430.225C522.569 433.196 520.935 436.457 519.852 439.87L512.446 441.798C512.185 441.866 511.998 442.09 511.977 442.358L511.264 451.525C511.244 451.792 511.395 452.044 511.64 452.151L518.659 455.205C519.2 458.743 520.312 462.222 522.001 465.492L518.127 472.099C517.991 472.33 518.016 472.622 518.19 472.827L524.159 479.814C524.333 480.018 524.618 480.088 524.868 479.991L531.982 477.181C534.948 479.36 538.206 480.998 541.612 482.082L543.536 489.5C543.604 489.761 543.828 489.949 544.096 489.969L553.248 490.684C553.515 490.704 553.766 490.552 553.873 490.307L556.923 483.277C560.455 482.733 563.928 481.621 567.193 479.93L573.789 483.81C574.02 483.946 574.312 483.921 574.516 483.746L581.492 477.771C581.696 477.596 581.766 477.31 581.669 477.061L578.863 469.935C581.039 466.964 582.674 463.701 583.756 460.29L591.163 458.362C591.423 458.294 591.611 458.07 591.631 457.802L592.345 448.635L592.342 448.633Z" fill="#B3D1FF"/>
<path opacity="0.7" d="M551.781 459.392C549.874 459.392 548.017 458.805 546.43 457.68C542.246 454.713 541.252 448.892 544.211 444.703C545.647 442.673 547.784 441.324 550.229 440.904C552.677 440.485 555.141 441.045 557.167 442.481C559.194 443.918 560.541 446.057 560.96 448.508C561.379 450.96 560.819 453.427 559.386 455.457C557.951 457.487 555.815 458.836 553.368 459.256C552.838 459.347 552.308 459.392 551.781 459.392ZM551.81 443.063C549.611 443.063 547.444 444.095 546.079 446.025C543.847 449.184 544.596 453.575 547.75 455.809C549.279 456.893 551.14 457.315 552.981 456.997C554.826 456.682 556.438 455.664 557.518 454.135C558.6 452.604 559.022 450.742 558.705 448.896C558.39 447.048 557.373 445.433 555.847 444.351C554.62 443.481 553.207 443.063 551.808 443.063H551.81Z" fill="white"/>
<path opacity="0.7" d="M551.645 473.414C551.031 473.414 550.415 473.389 549.797 473.341C543.593 472.858 537.95 469.983 533.904 465.247C530.155 460.859 528.321 455.466 528.323 450.096C528.323 443.508 531.085 436.958 536.465 432.35C546.224 423.986 560.96 425.136 569.308 434.912C569.374 434.99 569.439 435.067 569.503 435.144C570.409 436.232 571.215 437.4 571.903 438.623C571.905 438.627 571.91 438.632 571.912 438.636C571.923 438.654 571.932 438.673 571.941 438.691C571.96 438.722 571.978 438.754 571.996 438.786C572.005 438.804 572.016 438.822 572.025 438.838C572.055 438.893 572.086 438.949 572.116 439.004L570.105 440.092C569.399 438.784 568.547 437.541 567.571 436.398C562.239 430.157 554.022 427.816 546.555 429.656C543.475 430.415 540.523 431.885 537.95 434.087C533.1 438.244 530.61 444.149 530.607 450.091C530.607 454.933 532.263 459.798 535.641 463.755C543.17 472.57 556.458 473.609 565.262 466.066C568.156 463.587 570.32 460.374 571.523 456.777L573.692 457.505C572.358 461.496 569.958 465.057 566.747 467.806C562.49 471.452 557.185 473.409 551.642 473.409L551.645 473.414Z" fill="white"/>
<g clip-path="url(#clip1_0_1)">
<path d="M379.425 596L362 566.346L366.945 563L385 593.06L379.425 596Z" fill="#1F2C40"/>
<path d="M407.314 502.288C407.314 502.288 401.008 500.708 400.49 491.24C399.961 481.772 407.314 482.026 407.314 482.026L415.45 477.286C415.45 477.286 422.539 465.707 440.399 469.916C458.26 474.126 460.354 497.017 468.502 513.335C476.65 529.654 484.786 543.861 484.786 556.489C484.786 569.117 476.385 572.807 476.385 572.807C476.385 572.807 477.167 564.389 473.232 553.86C473.232 553.86 475.591 567.018 471.92 570.962C471.92 570.962 469.032 553.86 456.431 545.695C443.829 537.529 433.587 507.534 433.587 507.534C433.587 507.534 420.457 491.409 410.744 493.061L404.702 494.376L407.326 502.276L407.314 502.288Z" fill="#1F2C40"/>
<path d="M433.575 507.559C433.575 507.559 420.445 491.433 410.732 493.086L404.69 494.4L407.314 502.3L411.779 513.878C411.779 513.878 418.603 535.455 425.439 537.301C432.276 539.146 438.04 534.671 438.04 534.671L443.817 547.564C446.971 543.886 453.097 543.029 453.097 543.029C442.072 532.416 433.575 507.559 433.575 507.559Z" fill="#FEBBBA"/>
<path d="M407.314 482.026C407.314 482.026 419.398 481.495 433.575 507.546C433.575 507.546 428.581 480.964 415.462 477.286L407.326 482.026H407.314Z" fill="#F0204E"/>
<path d="M438.04 534.659L442.048 531.897L439.136 537.107L438.04 534.659Z" fill="#CC9F80"/>
<path d="M480.261 648.935C481.645 638.08 485.183 621.497 484.786 600.776C484.569 589.21 482.872 576.92 481.428 568.297C479.093 571.625 476.385 572.819 476.385 572.819C476.385 572.819 477.167 564.401 473.232 553.872C473.232 553.872 475.591 567.03 471.92 570.974C471.92 570.974 469.032 553.872 456.431 545.707C455.299 544.971 454.192 544.066 453.097 543.017C453.097 543.017 446.971 543.668 443.817 547.552C443.817 547.552 439.485 552.81 441.254 565.643C441.254 565.643 435.826 572.349 428.894 579.453C421.961 586.557 425.5 597.013 426.884 608.073C428.268 619.121 427.534 628.999 424.741 644.388C421.949 659.778 417.616 682.874 417.616 682.874C417.616 682.874 424.513 681.885 437.114 686.432C449.715 690.967 461.341 687.216 470.006 682.681C478.672 678.146 483.197 676.566 483.197 676.566C483.197 676.566 478.864 659.79 480.249 648.935H480.261Z" fill="#F0204E"/>
<path d="M441.254 565.643C442.337 568.441 443.071 571.312 443.709 574.194C444.311 577.089 444.84 580.007 444.997 583.011C443.902 580.213 443.18 577.342 442.542 574.46C441.94 571.565 441.422 568.646 441.254 565.643Z" fill="#A54653"/>
<path d="M470.018 577.282C469.224 575.22 468.791 573.097 468.442 570.962C468.129 568.827 467.912 566.669 468.057 564.461C468.851 566.524 469.284 568.647 469.633 570.781C469.946 572.928 470.163 575.075 470.018 577.282Z" fill="#A54653"/>
<path d="M451.219 613.995C451.219 613.995 457.995 617.155 459.969 622.486" stroke="#1F2C40" stroke-miterlimit="10"/>
<path d="M409.36 593.673C409.36 593.673 399.912 588.933 393.209 589.729C386.517 590.513 378.826 590.235 378.044 591.659C377.262 593.082 377.262 594.662 379.621 594.867C379.621 594.867 378.838 597.038 379.813 599.607C380.8 602.176 384.339 607.108 388.082 607.506C391.825 607.904 406.195 606.517 406.195 606.517C406.195 606.517 426.282 623.101 434.755 628.227C443.228 633.353 458.188 642.037 468.43 638.093C478.672 634.149 475.326 616.576 474.147 605.528C472.967 594.481 470.006 577.306 470.006 577.306C470.006 577.306 464.29 587.57 444.997 583.035L451.219 614.019C451.219 614.019 440.869 608.893 432.793 605.143C424.717 601.392 409.36 593.697 409.36 593.697V593.673Z" fill="#FEBBBA"/>
<path d="M379.621 594.855C380.969 594.384 382.317 594.276 383.653 594.251C385.001 594.264 386.349 594.372 387.684 594.855C386.337 595.337 384.989 595.445 383.653 595.458C382.305 595.433 380.957 595.325 379.621 594.855Z" fill="#CC9F80"/>
<path d="M379.813 599.594C380.367 599.124 380.933 599.015 381.486 598.991C382.04 599.003 382.606 599.112 383.159 599.594C382.606 600.077 382.04 600.185 381.486 600.197C380.933 600.173 380.367 600.065 379.813 599.594Z" fill="#CC9F80"/>
<path d="M470.019 682.682C461.353 687.216 449.739 690.967 437.126 686.432C424.525 681.898 417.629 682.875 417.629 682.875C417.629 682.875 396.157 735.966 390.645 750.97C385.133 765.974 381.197 815.314 379.621 831.5C378.044 847.686 372.135 871.759 372.135 871.759C372.135 871.759 383.954 880.841 389.863 877.283C389.863 877.283 408.77 842.15 412.706 828.726C416.642 815.302 419.013 788.696 421.769 780.483C424.525 772.269 454.854 735.568 463.917 721.361C472.979 707.153 488.336 688.603 483.221 676.555C483.221 676.555 478.696 678.135 470.031 682.67L470.019 682.682Z" fill="#D1D8DA"/>
<path d="M504.873 820.44C502.117 802.289 494.631 787.285 492.272 775.839C490.31 766.323 483.992 710.458 481.909 691.86C477.926 701.593 469.657 712.351 463.905 721.361C460.065 727.379 452.423 737.414 444.672 747.629C450.449 762.174 460.715 788.153 463.507 795.969C467.443 807.017 479.262 827.158 480.838 843.73C482.415 860.313 484.22 883.205 484.22 883.205C484.22 883.205 498.169 890.707 504.861 884.785C504.861 884.785 507.617 838.604 504.861 820.44H504.873Z" fill="#BFC3C4"/>
<path d="M372.135 871.759C372.135 871.759 363.072 881.625 352.445 882.614C341.806 883.603 335.114 882.433 332.358 887.064C329.602 891.695 329.012 894.855 329.012 894.855C329.012 894.855 363.277 910.052 386.722 908.074C386.722 908.074 390.657 887.739 389.875 877.283C383.966 880.841 372.147 871.759 372.147 871.759H372.135Z" fill="#FFCB5B"/>
<path d="M504.957 883.205C504.897 884.206 504.873 884.785 504.873 884.785C498.181 890.706 484.232 883.205 484.232 883.205C484.232 883.205 482.427 892.672 466.083 899.39C449.739 906.096 447.175 907.483 448.162 916.167C448.162 916.167 483.618 921.293 510 914.394C510 914.394 507.617 890.115 504.969 883.205H504.957Z" fill="#FFCB5B"/>
</g>
<path d="M165.099 900.992C165.099 904.015 167.571 906.488 170.592 906.488H467.649C470.67 906.488 473.142 904.015 473.142 900.992L475.613 730.01C475.613 726.988 472.058 721.084 465.539 721.529L175.222 714.005C171.432 713.907 167.767 715.367 165.082 718.048C162.397 720.727 160.929 724.393 161.017 728.185L165.097 900.992H165.099Z" fill="#1F2C40"/>
<path d="M170.522 895.718C170.522 898.581 172.86 900.924 175.719 900.924H460.484C463.343 900.924 465.682 898.581 465.682 895.718L468.014 740.5C467.74 731.159 459.565 727.803 454.608 728.001L176.367 720.524C173.704 720.451 171.128 721.48 169.242 723.364C167.355 725.247 166.318 727.827 166.385 730.494L170.524 895.718H170.522Z" fill="#B3D1FF"/>
<path d="M142.106 920.683H490.112C490.723 920.683 491.218 920.187 491.218 919.575V906.766C491.218 906.155 490.723 905.659 490.112 905.659H142.106C141.495 905.659 141 906.155 141 906.766V919.575C141 920.187 141.495 920.683 142.106 920.683Z" fill="#1F2C40"/>
<path d="M294.065 893.352H184.424C180.381 893.352 177.105 890.069 177.105 886.022V742.678C177.105 738.519 180.555 735.192 184.705 735.351L294.347 739.553C298.278 739.704 301.386 742.94 301.386 746.88V886.022C301.386 890.071 298.108 893.352 294.067 893.352H294.065Z" fill="white"/>
<path opacity="0.51" d="M272.259 791.582H199.633C199.057 791.582 198.59 792.05 198.59 792.627V800.204C198.59 800.781 199.057 801.249 199.633 801.249H272.259C272.836 801.249 273.303 800.781 273.303 800.204V792.627C273.303 792.05 272.836 791.582 272.259 791.582Z" fill="#E9F2FF"/>
<path opacity="0.51" d="M272.406 807.019H199.78C199.204 807.019 198.737 807.487 198.737 808.064V815.641C198.737 816.218 199.204 816.686 199.78 816.686H272.406C272.982 816.686 273.449 816.218 273.449 815.641V808.064C273.449 807.487 272.982 807.019 272.406 807.019Z" fill="#E9F2FF"/>
<path opacity="0.51" d="M272.843 822.782H200.216C199.64 822.782 199.173 823.249 199.173 823.826V831.404C199.173 831.981 199.64 832.449 200.216 832.449H272.843C273.419 832.449 273.886 831.981 273.886 831.404V823.826C273.886 823.249 273.419 822.782 272.843 822.782Z" fill="#E9F2FF"/>
<path opacity="0.51" d="M272.991 838.219H200.364C199.788 838.219 199.321 838.686 199.321 839.263V846.841C199.321 847.418 199.788 847.886 200.364 847.886H272.991C273.567 847.886 274.034 847.418 274.034 846.841V839.263C274.034 838.686 273.567 838.219 272.991 838.219Z" fill="#E9F2FF"/>
<path opacity="0.5" d="M426.347 816.634H321.019C320.443 816.634 319.976 817.102 319.976 817.679V825.256C319.976 825.833 320.443 826.301 321.019 826.301H426.347C426.923 826.301 427.39 825.833 427.39 825.256V817.679C427.39 817.102 426.923 816.634 426.347 816.634Z" fill="white"/>
<path opacity="0.5" d="M426.68 832.083H321.351C320.775 832.083 320.308 832.551 320.308 833.128V840.705C320.308 841.282 320.775 841.75 321.351 841.75H426.68C427.256 841.75 427.723 841.282 427.723 840.705V833.128C427.723 832.551 427.256 832.083 426.68 832.083Z" fill="white"/>
<path opacity="0.5" d="M382.913 847.846H321.351C320.775 847.846 320.308 848.313 320.308 848.89V856.468C320.308 857.045 320.775 857.513 321.351 857.513H382.913C383.49 857.513 383.956 857.045 383.956 856.468V848.89C383.956 848.313 383.49 847.846 382.913 847.846Z" fill="white"/>
<path d="M357.618 792.207L357.654 797.093L409.199 796.666C410.433 796.656 411.425 795.648 411.416 794.415L411.413 793.996C411.404 792.763 410.397 791.772 409.163 791.782L357.618 792.208L357.618 792.207Z" fill="#0062F8"/>
<path d="M401.634 793.246L401.717 804.58C401.719 804.809 401.907 804.996 402.138 804.994L405.034 804.97C405.264 804.968 405.451 804.78 405.449 804.549L405.366 793.215L401.634 793.246Z" fill="#0062F8"/>
<path d="M394.464 802.609L394.404 794.349C394.401 794.016 394.67 793.743 395.004 793.74L397.527 793.719C397.861 793.716 398.133 793.985 398.136 794.318L398.196 802.579C398.199 802.912 397.93 803.185 397.596 803.188L395.073 803.209C394.74 803.211 394.467 802.943 394.464 802.609Z" fill="#0062F8"/>
<path d="M397.762 801.223L397.724 796.109L403.52 796.061L403.558 801.175L397.762 801.223Z" fill="#0062F8"/>
<path d="M337.672 794.02C337.622 787.199 342.516 781.627 348.604 781.575C354.693 781.525 359.667 787.015 359.718 793.838C359.768 800.66 354.874 806.231 348.786 806.283C342.698 806.333 337.722 800.844 337.672 794.02ZM356.419 793.865C356.384 789.084 352.897 785.238 348.631 785.272C344.365 785.308 340.935 789.213 340.971 793.991C341.006 798.773 344.493 802.619 348.758 802.585C353.025 802.549 356.454 798.644 356.419 793.865Z" fill="#0062F8"/>
<path d="M366.356 797.073L366.319 792.023C366.314 791.352 366.855 790.803 367.527 790.797L367.755 790.795C368.426 790.79 368.975 791.33 368.98 792.001L369.017 797.051C369.022 797.723 368.482 798.272 367.81 798.278L367.582 798.279C366.91 798.285 366.361 797.745 366.356 797.073Z" fill="#0062F8"/>
<path d="M371.759 797.031L371.722 791.98C371.717 791.309 372.257 790.76 372.929 790.754L373.157 790.752C373.829 790.747 374.378 791.287 374.383 791.958L374.42 797.009C374.425 797.68 373.884 798.229 373.212 798.235L372.984 798.236C372.313 798.242 371.764 797.702 371.759 797.031Z" fill="#0062F8"/>
<path d="M505.183 524.196C506.618 522.851 508.557 522.181 510.515 522.357C531.458 524.244 570.533 514.14 596.072 487.968C597.845 486.151 601.077 487.179 603.11 488.699C631.512 509.961 678.591 514.363 694.933 515.263C698.314 515.45 701.057 518.076 701.406 521.45C716.268 665.227 622.804 717.327 603.421 726.525C601.302 727.531 598.808 727.384 596.817 726.142C500.205 665.868 504.338 587.484 503.002 529.405C502.957 527.436 503.748 525.541 505.183 524.196Z" fill="#FFC91F"/>
<path opacity="0.61" d="M600.807 716.081C600.375 716.081 599.945 715.96 599.568 715.72C562.529 692.005 538.389 663.654 525.768 629.045C514.496 598.136 513.944 566.662 513.457 538.895L513.391 535.192C513.379 534.574 513.612 533.993 514.043 533.551C514.478 533.108 515.062 532.862 515.686 532.862C538.624 532.862 573.053 522.718 598.305 500.056C599.079 499.36 600.227 499.277 601.098 499.853C628.843 518.291 668.42 523.661 689.542 525.221C690.666 525.304 691.552 526.182 691.653 527.309C696.563 583.409 684.912 630.848 657.026 668.307C636.199 696.284 611.503 710.86 601.851 715.83C601.525 715.998 601.167 716.081 600.809 716.081H600.807ZM601.419 714.992C611.012 710.054 635.562 695.564 656.271 667.745C684.015 630.475 695.604 583.254 690.714 527.392C690.655 526.729 690.133 526.211 689.473 526.161C668.259 524.594 628.501 519.197 600.577 500.639C600.066 500.298 599.388 500.348 598.932 500.758C573.496 523.587 538.803 533.806 515.705 533.806C515.315 533.806 514.969 533.949 514.713 534.212C514.459 534.47 514.324 534.813 514.331 535.175L514.397 538.878C514.883 566.572 515.432 597.963 526.651 628.723C539.199 663.13 563.217 691.326 600.075 714.925C600.479 715.183 600.994 715.209 601.419 714.991V714.992Z" fill="white"/>
<path opacity="0.61" d="M634.578 578.47H630.209C628.04 578.47 626.28 576.709 626.28 574.535V559.578C626.28 554.224 621.947 549.884 616.601 549.884H589.53C584.184 549.884 579.851 554.224 579.851 559.578V574.535C579.851 576.708 578.093 578.47 575.922 578.47H571.553C569.384 578.47 567.624 576.709 567.624 574.535V559.578C567.624 547.462 577.431 537.64 589.528 537.64H616.6C628.697 537.64 638.503 547.462 638.503 559.578V574.535C638.503 576.708 636.744 578.47 634.575 578.47H634.578Z" fill="white"/>
<path opacity="0.61" d="M639.993 582H566.141C561.616 582 557.947 585.675 557.947 590.207V646.976C557.947 651.508 561.616 655.183 566.141 655.183H639.993C644.518 655.183 648.187 651.508 648.187 646.976V590.207C648.187 585.675 644.518 582 639.993 582ZM613.634 636.868C614.092 638.781 612.645 640.619 610.682 640.619H595.453C593.489 640.619 592.043 638.781 592.501 636.868L596.054 622.053C591.86 619.541 589.117 614.846 589.398 609.534C589.761 602.652 595.328 597.021 602.194 596.593C610.149 596.098 616.757 602.415 616.757 610.278C616.757 615.283 614.078 619.659 610.08 622.053L613.634 636.87V636.868Z" fill="white"/>
<path d="M160.58 606.741C160.58 606.741 168.417 607.156 169.377 623.303C169.377 623.303 151.206 639.618 126.662 643.501C124.819 643.793 129.239 630.903 129.902 629.157C133.063 620.85 143.017 615.497 160.58 606.741Z" fill="#1F2C40"/>
<path d="M248.83 587.757H232.294C232.294 587.757 181.541 531.616 148.254 525.953C148.254 525.953 125.084 555.578 149.488 610.93C151.451 615.382 156.942 617.361 161.038 614.74C162.263 613.955 163.143 612.905 163.676 611.59L161.712 564.328C161.712 564.328 205.005 602.251 212.529 609.569C220.053 616.887 258.303 612.427 248.827 587.755L248.83 587.757Z" fill="#03C988"/>
<path d="M88.9642 705.626C95.8928 699.544 106.933 692.72 122.874 690.765L128.265 694.067C128.265 694.067 124.828 699.145 118.549 704.508C112.777 707.865 103.868 712.412 96.4793 713.398C89.297 714.358 88.2374 710.01 88.9665 705.626H88.9642Z" fill="#1F2C40"/>
<path d="M129.904 629.157C134.172 630.54 136.052 636.598 146.884 632.593C157.363 628.717 165.154 623.718 169.162 620.836C169.25 621.616 169.327 622.433 169.379 623.303C169.379 623.303 150.221 641.555 125.677 645.438C123.834 645.73 122.373 643.886 123.039 642.14C124.23 639.008 126.379 634.255 129.906 629.154L129.904 629.157Z" fill="#C8D7ED"/>
<path d="M83.7428 710.82C85.1082 709.264 86.8516 707.479 88.9619 705.626C88.2328 710.01 89.2902 714.358 96.4747 713.398C103.863 712.412 112.775 707.865 118.544 704.508C111.312 710.686 100.306 717.245 86.4146 716.859C83.3285 716.773 81.7027 713.14 83.7405 710.82H83.7428Z" fill="#C8D7ED"/>
<path d="M248.225 599.74L170.79 600.58C170.79 600.58 126.569 637.224 118.547 693.101C118.547 693.101 117.215 697.211 125.208 697.914C125.208 697.914 151.944 680.424 169.377 649.502C190.752 611.588 233.1 628.653 233.1 628.653C253.444 633.15 269.638 631.477 281.487 613.211L248.223 599.736L248.225 599.74Z" fill="#03C988"/>
<path d="M246.396 537.261C246.396 537.261 238.059 579.105 197.216 595.658L182.686 593.944L179.258 599.418L213.338 600.507C213.338 600.507 242.469 588.95 257.903 557.461C258.412 556.42 266.912 538.844 246.393 537.263L246.396 537.261Z" fill="url(#paint0_linear_0_1)"/>
<path d="M241.928 599.056C241.928 599.056 251.409 573.247 253.444 548.169C253.444 548.169 246.509 542.2 242.175 539.624C240.771 538.79 240.241 537.025 240.95 535.553C244.138 528.94 263.409 502.978 264.854 502.615C272.702 500.653 304.884 485.327 327.549 516.381C337.276 529.707 325.62 570.73 281.489 613.216C267.29 615.532 254.013 611.434 241.931 599.056H241.928Z" fill="#FFC91F"/>
<path d="M278.455 553.823C278.455 553.823 252.117 585.058 218.446 589.624C218.446 589.624 209.744 581.677 203.273 584.514C196.802 587.351 187.928 599.874 187.928 599.874H231.164C231.164 599.874 272.045 598.432 292.473 573.603C290.829 564.915 285.907 559.726 278.455 553.826V553.823Z" fill="#FEBBBA"/>
<path d="M293.821 480.71L299.583 499.959C299.848 500.842 299.522 501.796 298.763 502.318C295.99 504.221 288.737 508.006 278.79 504.327C277.654 503.908 276.873 502.842 276.775 501.631L275.41 484.86L293.823 480.708L293.821 480.71Z" fill="url(#paint1_linear_0_1)"/>
<path d="M260.076 465.118C260.076 465.118 262.909 485.073 270.562 491.21C278.215 497.347 293.128 492.725 298.163 477.682L288.128 451.96L260.076 465.118Z" fill="url(#paint2_linear_0_1)"/>
<path d="M289.26 468.606C288.678 468.794 288.069 468.42 287.979 467.815C287.702 465.973 287.012 462.326 285.617 459.843C285.617 459.843 286.348 457.226 279.01 461.181C271.674 465.136 260.654 470.946 254.167 467.486C247.843 464.113 241.435 447.138 258.152 450.282C258.788 450.402 259.372 449.894 259.325 449.248C259.118 446.458 259.395 440.04 265.884 437.979C271.957 436.051 275.281 438.797 276.651 440.453C277.054 440.94 277.801 440.931 278.186 440.428C280.004 438.049 284.945 432.987 292.217 436.196C298.209 438.84 299.139 442.537 299.04 444.839C299.008 445.585 299.764 446.091 300.441 445.778C302.275 444.932 305.228 444.492 308.054 448.039C311.962 452.944 306.378 457.196 304.703 458.312C304.429 458.496 304.256 458.798 304.254 459.129C304.238 461.68 303.842 472.804 298.274 479.081C297.792 479.626 296.902 479.465 296.621 478.795L292.335 468.565C292.136 468.091 291.608 467.846 291.117 468.005L289.256 468.606H289.26Z" fill="#1F2C40"/>
<path d="M289.17 470.684C289.17 470.684 291.787 460.006 295.763 463.472C299.739 466.937 294.726 474.568 290.173 476.024L289.17 470.684Z" fill="url(#paint3_linear_0_1)"/>
<path d="M190.106 602.298L170.695 537.456C169.902 534.812 167.557 532.934 164.805 532.746L138.597 530.949C135.932 530.768 133.95 533.374 134.836 535.898L156.536 597.822C157.236 599.817 159.023 601.226 161.124 601.439L186.934 604.31L190.109 602.301L190.106 602.298Z" fill="#1F2C40"/>
<path d="M154.304 559.434C155.753 562.364 158.257 564.081 159.894 563.269C161.531 562.457 161.685 559.422 160.236 556.492C158.787 553.562 156.285 551.845 154.646 552.657C153.009 553.469 152.855 556.504 154.304 559.434Z" fill="#FFC91F"/>
<path d="M186.932 604.308C186.975 604.308 187.016 604.308 187.059 604.303L242.053 601.518C243.411 601.45 244.46 600.292 244.39 598.929C244.322 597.566 243.158 596.495 241.804 596.588L186.81 599.373C185.451 599.441 184.405 600.602 184.473 601.963C184.538 603.283 185.628 604.308 186.932 604.308Z" fill="#1F2C40"/>
<path d="M253.444 548.55C253.234 548.55 253.064 548.38 253.064 548.169C253.025 536.542 257.493 521.152 257.538 520.998C257.597 520.796 257.808 520.681 258.011 520.74C258.213 520.798 258.328 521.012 258.269 521.213C258.224 521.365 253.789 536.651 253.827 548.167C253.827 548.378 253.657 548.55 253.447 548.55H253.444Z" fill="#DEA901"/>
<path d="M278.455 554.206C278.374 554.206 278.29 554.179 278.22 554.125C278.055 553.993 278.027 553.755 278.156 553.59C278.276 553.438 290.229 538.216 294.321 527.834C294.398 527.639 294.618 527.537 294.815 527.618C295.009 527.695 295.107 527.918 295.03 528.113C290.897 538.601 278.874 553.909 278.754 554.061C278.679 554.157 278.566 554.206 278.455 554.206Z" fill="#DEA901"/>
<path d="M295.401 577.608L293.227 574.529C293.105 574.356 293.146 574.118 293.318 573.996C293.49 573.873 293.728 573.914 293.85 574.086L295.668 576.663C312.63 569.215 323.131 548.891 323.236 548.686C323.331 548.498 323.559 548.423 323.747 548.521C323.935 548.616 324.01 548.847 323.913 549.036C323.806 549.244 313.069 570.034 295.684 577.49L295.401 577.613V577.608Z" fill="#DEA901"/>
</g>
<defs>
<linearGradient id="paint0_linear_0_1" x1="201.79" y1="550.696" x2="238.337" y2="594.088" gradientUnits="userSpaceOnUse">
<stop stop-color="#FEBBBA"/>
<stop offset="1" stop-color="#FF928E"/>
</linearGradient>
<linearGradient id="paint1_linear_0_1" x1="288.932" y1="507.434" x2="286.238" y2="483.224" gradientUnits="userSpaceOnUse">
<stop stop-color="#FEBBBA"/>
<stop offset="1" stop-color="#FF928E"/>
</linearGradient>
<linearGradient id="paint2_linear_0_1" x1="274.606" y1="486.313" x2="286.478" y2="447.217" gradientUnits="userSpaceOnUse">
<stop stop-color="#FEBBBA"/>
<stop offset="1" stop-color="#FF928E"/>
</linearGradient>
<linearGradient id="paint3_linear_0_1" x1="286.869" y1="490.037" x2="298.741" y2="450.941" gradientUnits="userSpaceOnUse">
<stop stop-color="#FEBBBA"/>
<stop offset="1" stop-color="#FF928E"/>
</linearGradient>
<clipPath id="clip0_0_1">
<rect width="630" height="635" fill="white" transform="translate(80 299)"/>
</clipPath>
<clipPath id="clip1_0_1">
<rect width="181" height="449" fill="white" transform="translate(329 469)"/>
</clipPath>
</defs>
</svg>
