<svg width="243" height="60" viewBox="0 0 243 60" fill="none" xmlns="http://www.w3.org/2000/svg">
<path d="M193.693 40C190.818 40 188.09 39.5117 185.51 38.5352C182.967 37.5211 180.995 36.2253 179.594 34.6479L180.866 32.507C182.193 33.8967 183.999 35.0798 186.284 36.0563C188.606 36.9953 191.058 37.4648 193.638 37.4648C196.218 37.4648 198.319 37.1268 199.941 36.4507C201.6 35.7371 202.816 34.7981 203.59 33.6338C204.401 32.4695 204.807 31.1737 204.807 29.7465C204.807 28.0563 204.364 26.7042 203.48 25.6901C202.595 24.6761 201.434 23.8685 199.996 23.2676C198.559 22.6667 196.992 22.1596 195.297 21.7465C193.601 21.3333 191.887 20.9014 190.155 20.4507C188.422 19.9624 186.837 19.3427 185.4 18.5915C183.962 17.8404 182.801 16.8263 181.916 15.5493C181.068 14.2347 180.644 12.5446 180.644 10.4789C180.644 8.60094 181.124 6.87324 182.082 5.29577C183.04 3.71831 184.533 2.44131 186.561 1.46479C188.588 0.488263 191.187 0 194.357 0C196.495 0 198.596 0.319249 200.66 0.957747C202.761 1.59625 204.549 2.46009 206.023 3.5493L204.973 5.85915C203.351 4.73239 201.6 3.9061 199.72 3.38028C197.877 2.8169 196.089 2.53521 194.357 2.53521C191.887 2.53521 189.841 2.89202 188.219 3.60563C186.597 4.31925 185.4 5.27699 184.625 6.47887C183.851 7.64319 183.464 8.95775 183.464 10.4225C183.464 12.1127 183.888 13.4648 184.736 14.4789C185.621 15.493 186.782 16.3005 188.219 16.9014C189.657 17.5023 191.242 18.0094 192.974 18.4225C194.707 18.8357 196.421 19.2864 198.116 19.7746C199.812 20.2254 201.379 20.8263 202.816 21.5775C204.254 22.3286 205.415 23.3427 206.3 24.6197C207.184 25.8967 207.627 27.5493 207.627 29.5775C207.627 31.4178 207.129 33.1455 206.134 34.7606C205.138 36.338 203.609 37.615 201.545 38.5915C199.517 39.5305 196.9 40 193.693 40Z" fill="#1F2C40"/>
<path d="M160 40C157.125 40 154.397 39.5117 151.817 38.5352C149.274 37.5211 147.302 36.2253 145.901 34.6479L147.173 32.507C148.5 33.8967 150.306 35.0798 152.591 36.0563C154.913 36.9953 157.365 37.4648 159.945 37.4648C162.525 37.4648 164.626 37.1268 166.248 36.4507C167.907 35.7371 169.123 34.7981 169.897 33.6338C170.708 32.4695 171.114 31.1737 171.114 29.7465C171.114 28.0563 170.671 26.7042 169.787 25.6901C168.902 24.6761 167.741 23.8685 166.303 23.2676C164.866 22.6667 163.299 22.1596 161.604 21.7465C159.908 21.3333 158.194 20.9014 156.461 20.4507C154.729 19.9624 153.144 19.3427 151.706 18.5915C150.269 17.8404 149.108 16.8263 148.223 15.5493C147.375 14.2347 146.951 12.5446 146.951 10.4789C146.951 8.60094 147.431 6.87324 148.389 5.29577C149.347 3.71831 150.84 2.44131 152.868 1.46479C154.895 0.488263 157.494 0 160.664 0C162.802 0 164.903 0.319249 166.967 0.957747C169.068 1.59625 170.856 2.46009 172.33 3.5493L171.28 5.85915C169.658 4.73239 167.907 3.9061 166.027 3.38028C164.184 2.8169 162.396 2.53521 160.664 2.53521C158.194 2.53521 156.148 2.89202 154.526 3.60563C152.904 4.31925 151.706 5.27699 150.932 6.47887C150.158 7.64319 149.771 8.95775 149.771 10.4225C149.771 12.1127 150.195 13.4648 151.043 14.4789C151.928 15.493 153.089 16.3005 154.526 16.9014C155.964 17.5023 157.549 18.0094 159.281 18.4225C161.014 18.8357 162.728 19.2864 164.423 19.7746C166.119 20.2254 167.686 20.8263 169.123 21.5775C170.561 22.3286 171.722 23.3427 172.607 24.6197C173.491 25.8967 173.934 27.5493 173.934 29.5775C173.934 31.4178 173.436 33.1455 172.441 34.7606C171.445 36.338 169.916 37.615 167.851 38.5915C165.824 39.5305 163.207 40 160 40Z" fill="#1F2C40"/>
<path d="M115.328 18.4226H136.283V20.9578H115.328V18.4226ZM115.66 37.1268H139.545V39.7184H112.84V0.281738H138.716V2.87329H115.66V37.1268Z" fill="#1F2C40"/>
<path d="M89.3203 40C86.4452 40 83.7175 39.5117 81.1372 38.5352C78.5938 37.5211 76.6218 36.2253 75.2211 34.6479L76.4928 32.507C77.8198 33.8967 79.6259 35.0798 81.9113 36.0563C84.2335 36.9953 86.6848 37.4648 89.265 37.4648C91.8453 37.4648 93.9463 37.1268 95.5682 36.4507C97.227 35.7371 98.4434 34.7981 99.2174 33.6338C100.028 32.4695 100.434 31.1737 100.434 29.7465C100.434 28.0563 99.9915 26.7042 99.1069 25.6901C98.2222 24.6761 97.0611 23.8685 95.6235 23.2676C94.1859 22.6667 92.6194 22.1596 90.9238 21.7465C89.2282 21.3333 87.5141 20.9014 85.7817 20.4507C84.0492 19.9624 82.4642 19.3427 81.0266 18.5915C79.5891 17.8404 78.428 16.8263 77.5433 15.5493C76.6955 14.2347 76.2716 12.5446 76.2716 10.4789C76.2716 8.60094 76.7508 6.87324 77.7092 5.29577C78.6676 3.71831 80.1604 2.44131 82.1878 1.46479C84.2151 0.488263 86.8138 0 89.9838 0C92.1217 0 94.2228 0.319249 96.287 0.957747C98.3881 1.59625 100.176 2.46009 101.65 3.5493L100.6 5.85915C98.9778 4.73239 97.227 3.9061 95.3471 3.38028C93.504 2.8169 91.7163 2.53521 89.9838 2.53521C87.5141 2.53521 85.4684 2.89202 83.8465 3.60563C82.2246 4.31925 81.0266 5.27699 80.2526 6.47887C79.4785 7.64319 79.0915 8.95775 79.0915 10.4225C79.0915 12.1127 79.5154 13.4648 80.3632 14.4789C81.2478 15.493 82.4089 16.3005 83.8465 16.9014C85.2841 17.5023 86.8691 18.0094 88.6015 18.4225C90.334 18.8357 92.048 19.2864 93.7436 19.7746C95.4392 20.2254 97.0058 20.8263 98.4434 21.5775C99.8809 22.3286 101.042 23.3427 101.927 24.6197C102.811 25.8967 103.254 27.5493 103.254 29.5775C103.254 31.4178 102.756 33.1455 101.761 34.7606C100.766 36.338 99.2359 37.615 97.1717 38.5915C95.1443 39.5305 92.5272 40 89.3203 40Z" fill="#1F2C40"/>
<path d="M55.6273 40C52.7521 40 50.0244 39.5117 47.4442 38.5352C44.9008 37.5211 42.9287 36.2253 41.528 34.6479L42.7997 32.507C44.1267 33.8967 45.9329 35.0798 48.2182 36.0563C50.5405 36.9953 52.9917 37.4648 55.572 37.4648C58.1522 37.4648 60.2533 37.1268 61.8752 36.4507C63.5339 35.7371 64.7503 34.7981 65.5244 33.6338C66.3353 32.4695 66.7408 31.1737 66.7408 29.7465C66.7408 28.0563 66.2984 26.7042 65.4138 25.6901C64.5291 24.6761 63.368 23.8685 61.9304 23.2676C60.4929 22.6667 58.9263 22.1596 57.2307 21.7465C55.5351 21.3333 53.8211 20.9014 52.0886 20.4507C50.3562 19.9624 48.7711 19.3427 47.3336 18.5915C45.896 17.8404 44.7349 16.8263 43.8502 15.5493C43.0024 14.2347 42.5785 12.5446 42.5785 10.4789C42.5785 8.60094 43.0577 6.87324 44.0161 5.29577C44.9745 3.71831 46.4673 2.44131 48.4947 1.46479C50.522 0.488263 53.1207 0 56.2907 0C58.4287 0 60.5297 0.319249 62.5939 0.957747C64.695 1.59625 66.4828 2.46009 67.9572 3.5493L66.9067 5.85915C65.2848 4.73239 63.5339 3.9061 61.654 3.38028C59.811 2.8169 58.0232 2.53521 56.2907 2.53521C53.8211 2.53521 51.7753 2.89202 50.1534 3.60563C48.5315 4.31925 47.3336 5.27699 46.5595 6.47887C45.7854 7.64319 45.3984 8.95775 45.3984 10.4225C45.3984 12.1127 45.8223 13.4648 46.6701 14.4789C47.5547 15.493 48.7159 16.3005 50.1534 16.9014C51.591 17.5023 53.176 18.0094 54.9085 18.4225C56.6409 18.8357 58.3549 19.2864 60.0505 19.7746C61.7461 20.2254 63.3127 20.8263 64.7503 21.5775C66.1879 22.3286 67.349 23.3427 68.2336 24.6197C69.1183 25.8967 69.5606 27.5493 69.5606 29.5775C69.5606 31.4178 69.063 33.1455 68.0678 34.7606C67.0725 36.338 65.5428 37.615 63.4786 38.5915C61.4513 39.5305 58.8341 40 55.6273 40Z" fill="#1F2C40"/>
<path d="M0 39.7184L17.8038 0.281738H20.6236L38.4274 39.7184H35.3864L18.5778 2.08456H19.7942L3.04101 39.7184H0ZM6.52436 28.6198L7.46431 26.1972H30.6313L31.5713 28.6198H6.52436Z" fill="#1F2C40"/>
<path d="M240.384 57.787C239.785 57.787 239.254 57.6577 238.792 57.3991C238.337 57.1406 237.977 56.7831 237.711 56.3268C237.453 55.8705 237.325 55.3495 237.325 54.7639C237.325 54.1706 237.446 53.6497 237.689 53.201C237.939 52.7446 238.28 52.3872 238.712 52.1286C239.144 51.87 239.63 51.7407 240.168 51.7407C240.706 51.7407 241.188 51.8662 241.612 52.1172C242.045 52.3682 242.382 52.7218 242.625 53.1781C242.875 53.6269 243 54.1478 243 54.7411C243 54.7639 242.996 54.7905 242.989 54.8209C242.989 54.8437 242.989 54.8703 242.989 54.9008H237.745V54.4559H242.682L242.454 54.6726C242.462 54.2087 242.363 53.7942 242.158 53.4291C241.961 53.0565 241.692 52.7675 241.351 52.5621C241.01 52.3492 240.615 52.2427 240.168 52.2427C239.728 52.2427 239.334 52.3492 238.985 52.5621C238.644 52.7675 238.375 53.0565 238.178 53.4291C237.98 53.7942 237.882 54.2125 237.882 54.684V54.7867C237.882 55.2734 237.988 55.7069 238.2 56.0872C238.42 56.4599 238.72 56.7527 239.099 56.9656C239.478 57.171 239.91 57.2737 240.395 57.2737C240.775 57.2737 241.127 57.2052 241.453 57.0683C241.787 56.9314 242.067 56.7223 242.295 56.4409L242.625 56.8173C242.367 57.1368 242.041 57.3801 241.647 57.5474C241.26 57.7072 240.839 57.787 240.384 57.787Z" fill="#7C838D"/>
<path d="M234.455 57.7414V50.8737C234.455 50.3794 234.595 49.9839 234.876 49.6873C235.164 49.3831 235.573 49.231 236.104 49.231C236.324 49.231 236.54 49.2652 236.752 49.3336C236.964 49.3945 237.139 49.4895 237.275 49.6188L237.048 50.0523C236.934 49.9383 236.798 49.8546 236.638 49.8014C236.479 49.7481 236.309 49.7215 236.127 49.7215C235.763 49.7215 235.486 49.8242 235.296 50.0295C235.107 50.2273 235.012 50.5239 235.012 50.9194V51.9233L235.023 52.1971V57.7414H234.455ZM233.363 52.2769V51.7864H236.911V52.2769H233.363Z" fill="#7C838D"/>
<path d="M231.375 57.7415V51.7865H231.944V57.7415H231.375ZM231.66 50.3376C231.531 50.3376 231.421 50.292 231.33 50.2007C231.239 50.1095 231.193 50.003 231.193 49.8813C231.193 49.752 231.239 49.6417 231.33 49.5505C231.421 49.4592 231.531 49.4136 231.66 49.4136C231.796 49.4136 231.906 49.4592 231.99 49.5505C232.081 49.6341 232.126 49.7406 232.126 49.8699C232.126 49.9992 232.081 50.1095 231.99 50.2007C231.906 50.292 231.796 50.3376 231.66 50.3376Z" fill="#7C838D"/>
<path d="M224.904 57.7415V49.7559H225.484V57.2168H230.068V57.7415H224.904Z" fill="#7C838D"/>
<path d="M212.633 57.7415L216.296 49.7559H216.876L220.538 57.7415H219.912L216.455 50.1209H216.705L213.259 57.7415H212.633ZM213.975 55.4941L214.169 55.0036H218.934L219.128 55.4941H213.975Z" fill="#7C838D"/>
<path d="M206.867 53.4293H211.178V53.9426H206.867V53.4293ZM206.936 57.2168H211.849V57.7415H206.356V49.7559H211.678V50.2806H206.936V57.2168Z" fill="#7C838D"/>
<path d="M197.092 57.7415V49.7559H197.582L203.257 57.0228H202.995V49.7559H203.575V57.7415H203.098L197.411 50.4746H197.673V57.7415H197.092Z" fill="#7C838D"/>
<path d="M187.844 60C187.571 60 187.313 59.9543 187.071 59.8631C186.836 59.7718 186.635 59.6387 186.468 59.4638L186.752 59.0303C186.904 59.19 187.067 59.3079 187.241 59.3839C187.423 59.46 187.628 59.498 187.855 59.498C188.128 59.498 188.367 59.422 188.572 59.2698C188.784 59.1177 188.981 58.8401 189.163 58.4371L189.573 57.5244L189.652 57.4217L192.166 51.7861H192.746L189.698 58.5511C189.539 58.9162 189.364 59.2014 189.175 59.4067C188.993 59.6197 188.792 59.7718 188.572 59.8631C188.352 59.9543 188.109 60 187.844 60ZM189.561 57.8895L186.809 51.7861H187.412L189.914 57.3875L189.561 57.8895Z" fill="#7C838D"/>
<path d="M183.452 57.7868C182.929 57.7868 182.455 57.6651 182.03 57.4218C181.613 57.1784 181.28 56.8285 181.03 56.3722C180.787 55.9159 180.666 55.3797 180.666 54.7637C180.666 54.1324 180.787 53.5924 181.03 53.1437C181.28 52.695 181.613 52.349 182.03 52.1056C182.455 51.8622 182.929 51.7405 183.452 51.7405C184.013 51.7405 184.514 51.8698 184.953 52.1284C185.401 52.3794 185.75 52.733 186 53.1893C186.258 53.6381 186.387 54.1628 186.387 54.7637C186.387 55.3569 186.258 55.8817 186 56.338C185.75 56.7943 185.401 57.1518 184.953 57.4103C184.514 57.6613 184.013 57.7868 183.452 57.7868ZM180.472 57.7412V49.2764H181.041V53.7141L180.927 54.7523L181.018 55.7904V57.7412H180.472ZM183.418 57.2734C183.873 57.2734 184.282 57.1708 184.646 56.9654C185.01 56.7525 185.295 56.4559 185.499 56.0756C185.712 55.6953 185.818 55.258 185.818 54.7637C185.818 54.2617 185.712 53.8244 185.499 53.4517C185.295 53.0715 185.01 52.7787 184.646 52.5733C184.282 52.3604 183.873 52.2539 183.418 52.2539C182.963 52.2539 182.554 52.3604 182.19 52.5733C181.833 52.7787 181.549 53.0715 181.337 53.4517C181.132 53.8244 181.03 54.2617 181.03 54.7637C181.03 55.258 181.132 55.6953 181.337 56.0756C181.549 56.4559 181.833 56.7525 182.19 56.9654C182.554 57.1708 182.963 57.2734 183.418 57.2734Z" fill="#7C838D"/>
<path d="M172.162 57.7868C171.609 57.7868 171.108 57.6613 170.661 57.4103C170.221 57.1518 169.872 56.7943 169.615 56.338C169.357 55.8817 169.228 55.3569 169.228 54.7637C169.228 54.1628 169.357 53.6381 169.615 53.1893C169.872 52.733 170.221 52.3794 170.661 52.1284C171.108 51.8698 171.609 51.7405 172.162 51.7405C172.686 51.7405 173.156 51.8622 173.573 52.1056C173.997 52.349 174.331 52.695 174.574 53.1437C174.824 53.5924 174.949 54.1324 174.949 54.7637C174.949 55.3797 174.828 55.9159 174.585 56.3722C174.342 56.8285 174.009 57.1784 173.584 57.4218C173.167 57.6651 172.693 57.7868 172.162 57.7868ZM172.196 57.2734C172.651 57.2734 173.057 57.1708 173.413 56.9654C173.777 56.7525 174.062 56.4559 174.266 56.0756C174.479 55.6953 174.585 55.258 174.585 54.7637C174.585 54.2617 174.479 53.8244 174.266 53.4517C174.062 53.0715 173.777 52.7787 173.413 52.5733C173.057 52.3604 172.651 52.2539 172.196 52.2539C171.742 52.2539 171.332 52.3604 170.968 52.5733C170.612 52.7787 170.327 53.0715 170.115 53.4517C169.91 53.8244 169.808 54.2617 169.808 54.7637C169.808 55.258 169.91 55.6953 170.115 56.0756C170.327 56.4559 170.612 56.7525 170.968 56.9654C171.332 57.1708 171.742 57.2734 172.196 57.2734ZM174.596 57.7412V55.7904L174.699 54.7523L174.585 53.7141V49.2764H175.154V57.7412H174.596Z" fill="#7C838D"/>
<path d="M165.501 57.787C164.902 57.787 164.371 57.6577 163.909 57.3991C163.454 57.1406 163.094 56.7831 162.828 56.3268C162.571 55.8705 162.442 55.3495 162.442 54.7639C162.442 54.1706 162.563 53.6497 162.806 53.201C163.056 52.7446 163.397 52.3872 163.829 52.1286C164.261 51.87 164.747 51.7407 165.285 51.7407C165.823 51.7407 166.305 51.8662 166.729 52.1172C167.162 52.3682 167.499 52.7218 167.742 53.1781C167.992 53.6269 168.117 54.1478 168.117 54.7411C168.117 54.7639 168.113 54.7905 168.106 54.8209C168.106 54.8437 168.106 54.8703 168.106 54.9008H162.862V54.4559H167.799L167.571 54.6726C167.579 54.2087 167.48 53.7942 167.275 53.4291C167.078 53.0565 166.809 52.7675 166.468 52.5621C166.127 52.3492 165.732 52.2427 165.285 52.2427C164.845 52.2427 164.451 52.3492 164.102 52.5621C163.761 52.7675 163.492 53.0565 163.295 53.4291C163.097 53.7942 162.999 54.2125 162.999 54.684V54.7867C162.999 55.2734 163.105 55.7069 163.317 56.0872C163.537 56.4599 163.837 56.7527 164.216 56.9656C164.595 57.171 165.027 57.2737 165.512 57.2737C165.892 57.2737 166.244 57.2052 166.57 57.0683C166.904 56.9314 167.184 56.7223 167.412 56.4409L167.742 56.8173C167.484 57.1368 167.158 57.3801 166.764 57.5474C166.377 57.7072 165.956 57.787 165.501 57.787Z" fill="#7C838D"/>
<path d="M158.769 57.7414V51.7864H159.315V53.4177L159.259 53.2352C159.425 52.756 159.706 52.3872 160.1 52.1286C160.495 51.87 160.988 51.7407 161.579 51.7407V52.2997C161.557 52.2997 161.534 52.2997 161.511 52.2997C161.488 52.2921 161.466 52.2883 161.443 52.2883C160.783 52.2883 160.267 52.4975 159.896 52.9158C159.524 53.3264 159.338 53.9007 159.338 54.6384V57.7414H158.769Z" fill="#7C838D"/>
<path d="M154.394 57.787C153.795 57.787 153.264 57.6577 152.802 57.3991C152.347 57.1406 151.987 56.7831 151.721 56.3268C151.464 55.8705 151.335 55.3495 151.335 54.7639C151.335 54.1706 151.456 53.6497 151.699 53.201C151.949 52.7446 152.29 52.3872 152.722 52.1286C153.154 51.87 153.64 51.7407 154.178 51.7407C154.716 51.7407 155.198 51.8662 155.622 52.1172C156.055 52.3682 156.392 52.7218 156.635 53.1781C156.885 53.6269 157.01 54.1478 157.01 54.7411C157.01 54.7639 157.006 54.7905 156.999 54.8209C156.999 54.8437 156.999 54.8703 156.999 54.9008H151.755V54.4559H156.692L156.464 54.6726C156.472 54.2087 156.373 53.7942 156.168 53.4291C155.971 53.0565 155.702 52.7675 155.361 52.5621C155.02 52.3492 154.625 52.2427 154.178 52.2427C153.738 52.2427 153.344 52.3492 152.995 52.5621C152.654 52.7675 152.385 53.0565 152.188 53.4291C151.991 53.7942 151.892 54.2125 151.892 54.684V54.7867C151.892 55.2734 151.998 55.7069 152.21 56.0872C152.43 56.4599 152.73 56.7527 153.109 56.9656C153.488 57.171 153.92 57.2737 154.406 57.2737C154.785 57.2737 155.137 57.2052 155.463 57.0683C155.797 56.9314 156.077 56.7223 156.305 56.4409L156.635 56.8173C156.377 57.1368 156.051 57.3801 155.657 57.5474C155.27 57.7072 154.849 57.787 154.394 57.787Z" fill="#7C838D"/>
<path d="M143.502 57.7412L141.25 51.7861H141.796L143.889 57.4217H143.65L145.8 51.7861H146.289L148.427 57.4217H148.177L150.304 51.7861H150.827L148.575 57.7412H148.04L145.948 52.3337H146.129L144.025 57.7412H143.502Z" fill="#7C838D"/>
<path d="M137.776 57.787C137.207 57.787 136.699 57.6577 136.252 57.3991C135.812 57.1406 135.46 56.7831 135.194 56.3268C134.936 55.8705 134.808 55.3495 134.808 54.7639C134.808 54.1706 134.936 53.6497 135.194 53.201C135.46 52.7446 135.812 52.3872 136.252 52.1286C136.699 51.87 137.207 51.7407 137.776 51.7407C138.345 51.7407 138.853 51.87 139.3 52.1286C139.747 52.3872 140.1 52.7446 140.358 53.201C140.616 53.6497 140.745 54.1706 140.745 54.7639C140.745 55.3495 140.616 55.8705 140.358 56.3268C140.1 56.7831 139.747 57.1406 139.3 57.3991C138.853 57.6577 138.345 57.787 137.776 57.787ZM137.776 57.2737C138.231 57.2737 138.64 57.171 139.004 56.9656C139.368 56.7527 139.653 56.4561 139.857 56.0758C140.062 55.6955 140.164 55.2582 140.164 54.7639C140.164 54.2619 140.062 53.8246 139.857 53.4519C139.653 53.0717 139.368 52.7789 139.004 52.5735C138.64 52.3606 138.231 52.2541 137.776 52.2541C137.321 52.2541 136.912 52.3606 136.548 52.5735C136.191 52.7789 135.907 53.0717 135.695 53.4519C135.49 53.8246 135.388 54.2619 135.388 54.7639C135.388 55.2582 135.49 55.6955 135.695 56.0758C135.907 56.4561 136.191 56.7527 136.548 56.9656C136.912 57.171 137.321 57.2737 137.776 57.2737Z" fill="#7C838D"/>
<path d="M127.652 57.7415V49.7559H130.507C131.174 49.7559 131.746 49.8623 132.224 50.0753C132.702 50.2882 133.069 50.5963 133.327 50.9993C133.585 51.3948 133.714 51.8778 133.714 52.4482C133.714 53.0034 133.585 53.4825 133.327 53.8856C133.069 54.2887 132.702 54.5967 132.224 54.8096C131.746 55.0226 131.174 55.1291 130.507 55.1291H127.97L128.232 54.8553V57.7415H127.652ZM128.232 54.8895L127.97 54.6043H130.507C131.363 54.6043 132.012 54.418 132.452 54.0453C132.899 53.665 133.123 53.1327 133.123 52.4482C133.123 51.7561 132.899 51.2237 132.452 50.851C132.012 50.4708 131.363 50.2806 130.507 50.2806H127.97L128.232 49.9954V54.8895Z" fill="#7C838D"/>
<rect x="216.854" width="4.61392" height="40" fill="#0062F8"/>
<rect x="227.62" width="4.61392" height="40" fill="#03C988"/>
<rect x="238.386" width="4.61392" height="40" fill="#FFC91F"/>
</svg>
