<svg width="960" height="960" viewBox="0 0 960 960" fill="none" xmlns="http://www.w3.org/2000/svg">
<path d="M931.16 94.0922C899.796 139.111 849.119 167.416 796.511 181.946C743.929 196.476 688.874 198.607 634.386 200.661C573.075 202.974 511.737 205.261 450.426 207.575C423.259 208.588 395.526 209.732 370.213 219.739C344.901 229.746 322.06 250.462 316.961 277.39C309.777 315.131 337.948 350.298 342.66 388.429C348.892 438.724 313.459 484.965 273.418 515.557C233.401 546.15 186.433 568.14 152.133 605.127C107.791 652.979 89.8688 724.302 106.246 787.697C122.649 851.092 172.811 904.454 234.663 924.312C307.125 947.576 385.792 926.106 456.915 899.048C528.037 871.964 599.443 838.746 675.458 838.278C763.525 837.706 849.711 886.13 898.07 960H19.5188C8.75513 960 0 951.189 0 940.272V19.7282C0 8.83739 8.75513 0 19.5188 0H959.949C960.721 33.0102 950.138 66.9042 931.16 94.0922Z" fill="#E2EEFF"/>
</svg>
